<svg width="785" height="838" viewBox="0 0 785 838" fill="none" xmlns="http://www.w3.org/2000/svg">
<g clip-path="url(#clip0_504_2154)">
<path d="M31.4303 778.314C31.7316 778.314 32.0329 778.311 32.3342 778.309C36.3348 778.293 40.1057 779.262 43.0258 782.129C43.119 782.219 43.2121 782.309 43.3081 782.402C46.7774 786.003 46.9666 791.592 46.9734 796.283C46.9743 796.541 46.9752 796.799 46.9761 797.057C46.9781 797.609 46.9797 798.16 46.981 798.711C46.9831 799.584 46.9864 800.457 46.9898 801.33C46.9994 803.81 47.0075 806.29 47.0144 808.771C47.0183 810.144 47.0231 811.517 47.0289 812.891C47.0325 813.757 47.0349 814.624 47.0364 815.491C47.0377 816.03 47.04 816.57 47.0427 817.109C47.0437 817.358 47.0443 817.607 47.0443 817.857C46.9943 820.277 46.9943 820.277 47.8971 822.468C48.7854 823.336 49.7881 823.447 50.981 823.439C51.1215 823.437 51.262 823.435 51.4068 823.432C51.623 823.43 51.623 823.43 51.8437 823.429C52.197 823.425 52.5504 823.421 52.9037 823.415C52.9037 823.639 52.9037 823.862 52.9037 824.092C50.3655 825.359 47.7777 826.355 44.9202 825.581C43.3946 825.011 42.6099 824.089 41.8767 822.66C41.4499 821.692 41.2504 820.672 41.1314 819.625C41.0636 819.693 40.9957 819.76 40.9258 819.83C36.4021 824.124 29.9208 826.409 23.7347 826.292C20.3881 826.174 17.1761 825.078 14.8008 822.651C12.8504 820.46 12.194 817.776 12.3097 814.887C12.558 811.719 13.988 809.115 16.3099 806.986C19.2973 804.465 23.0172 803.035 26.7882 802.163C26.9164 802.133 27.0445 802.104 27.1766 802.073C30.3908 801.344 33.6679 801.008 36.9452 800.708C37.0392 800.699 37.1332 800.69 37.23 800.681C38.5342 800.561 39.8224 800.518 41.1314 800.539C41.123 799.527 41.1125 798.514 41.0995 797.502C41.0936 797.032 41.0882 796.562 41.0846 796.091C41.0508 791.907 40.8404 787.311 37.8839 784.024C37.7834 783.903 37.7834 783.903 37.6809 783.779C36.1599 782.075 33.5974 781.253 31.3889 781.046C26.1353 780.752 21.7544 782.266 17.577 785.452C17.1802 785.752 16.7749 786.038 16.3691 786.326C16.2293 786.178 16.0915 786.028 15.9547 785.877C15.8777 785.794 15.8008 785.711 15.7216 785.625C15.6673 785.544 15.6131 785.462 15.5572 785.378C15.7822 784.703 16.3885 784.374 16.937 783.945C17.1065 783.812 17.2754 783.679 17.4439 783.545C21.5472 780.286 26.1316 778.314 31.4303 778.314ZM38.7286 802.012C38.6185 802.025 38.5084 802.038 38.395 802.051C38.0384 802.093 37.6821 802.136 37.3257 802.18C37.2032 802.195 37.0807 802.21 36.9545 802.226C33.6897 802.629 30.468 803.184 27.3295 804.194C27.2289 804.225 27.1283 804.256 27.0246 804.289C25.03 804.915 23.0943 805.782 21.511 807.172C21.3577 807.296 21.3577 807.296 21.2012 807.423C19.4342 808.901 18.397 810.989 18.1281 813.263C17.984 816.014 18.4623 818.556 20.2932 820.708C21.8246 822.402 24.0081 823.293 26.2469 823.551C29.9853 823.736 33.4015 822.966 36.6661 821.114C36.7559 821.063 36.8456 821.013 36.9381 820.96C38.3298 820.16 39.5448 819.222 40.7255 818.136C40.7993 818.075 40.873 818.015 40.949 817.952C41.1958 817.652 41.1815 817.466 41.1802 817.08C41.1808 816.946 41.1814 816.812 41.1819 816.674C41.1805 816.528 41.179 816.381 41.1775 816.23C41.1776 816.076 41.1776 815.921 41.1777 815.762C41.1774 815.25 41.1743 814.738 41.1711 814.226C41.1703 813.871 41.1697 813.517 41.1693 813.162C41.1681 812.324 41.1647 811.485 41.1607 810.647C41.1561 809.692 41.1539 808.738 41.1519 807.783C41.1476 805.82 41.1405 803.856 41.1314 801.892C40.9406 801.891 40.7497 801.89 40.5588 801.889C40.4525 801.889 40.3463 801.888 40.2367 801.888C39.7298 801.895 39.2315 801.952 38.7286 802.012Z" fill="black"/>
<path d="M64.4097 754.52C64.4097 777.882 64.4097 801.244 64.4097 825.315C62.5343 825.315 60.6588 825.315 58.7266 825.315C58.7266 802.622 58.7266 779.93 58.7266 756.55C59.8735 756.072 61.0192 755.603 62.1771 755.154C62.333 755.093 62.4889 755.031 62.6496 754.968C62.7993 754.91 62.9489 754.852 63.1031 754.792C63.2373 754.739 63.3716 754.687 63.5098 754.633C63.8685 754.52 63.8685 754.52 64.4097 754.52Z" fill="black"/>
<path d="M109.592 765.215C109.726 765.215 109.86 765.215 109.998 765.215C109.998 769.861 109.998 774.506 109.998 779.293C115.178 779.293 120.358 779.293 125.694 779.293C125.605 779.561 125.516 779.829 125.424 780.105C125.384 780.227 125.345 780.35 125.305 780.476C125.082 780.939 124.901 781.161 124.476 781.459C123.426 781.72 122.29 781.615 121.217 781.591C120.894 781.588 120.57 781.586 120.247 781.585C119.398 781.58 118.549 781.566 117.7 781.551C116.833 781.538 115.965 781.531 115.098 781.525C113.398 781.51 111.698 781.487 109.998 781.459C110.009 785.802 110.021 790.145 110.036 794.488C110.037 795.002 110.039 795.516 110.041 796.029C110.041 796.132 110.042 796.234 110.042 796.339C110.047 797.991 110.052 799.643 110.056 801.295C110.06 802.993 110.065 804.69 110.071 806.387C110.075 807.433 110.078 808.479 110.08 809.525C110.082 810.329 110.085 811.133 110.088 811.938C110.089 812.266 110.09 812.594 110.09 812.922C110.095 817.768 110.095 817.768 112.307 821.979C113.781 823.39 115.774 823.82 117.762 823.878C120.144 823.81 122.373 823.156 124.499 822.099C124.882 821.911 125.126 821.797 125.559 821.797C126.104 822.464 126.104 822.464 126.093 822.88C125.902 823.284 125.631 823.384 125.238 823.589C125.086 823.669 124.934 823.749 124.778 823.831C124.612 823.915 124.447 823.998 124.282 824.081C124.199 824.124 124.116 824.166 124.031 824.209C120.162 826.182 115.35 827.271 111.08 825.993C110.92 825.947 110.761 825.901 110.596 825.854C108.213 825.089 106.535 823.601 105.397 821.391C104.279 818.791 104.256 816.036 104.269 813.253C104.269 812.905 104.269 812.556 104.268 812.208C104.268 811.463 104.27 810.718 104.272 809.974C104.275 808.897 104.276 807.82 104.277 806.743C104.278 804.995 104.28 803.248 104.284 801.5C104.288 799.804 104.291 798.108 104.292 796.412C104.293 796.307 104.293 796.202 104.293 796.094C104.293 795.568 104.294 795.042 104.294 794.516C104.299 790.163 104.306 785.811 104.315 781.459C101.903 781.459 99.4922 781.459 97.0078 781.459C97.0078 780.922 97.0078 780.386 97.0078 779.834C97.3264 779.675 97.5499 779.668 97.9054 779.646C98.0354 779.638 98.1654 779.63 98.2994 779.622C98.44 779.613 98.5807 779.605 98.7257 779.597C98.8694 779.588 99.0132 779.579 99.1614 779.57C99.6218 779.542 100.082 779.515 100.543 779.487C100.855 779.468 101.166 779.449 101.478 779.43C102.243 779.384 103.008 779.338 103.773 779.293C104.381 778.02 104.896 776.712 105.415 775.402C105.575 775.001 105.735 774.599 105.895 774.197C106.292 773.202 106.688 772.206 107.084 771.209C107.42 770.364 107.757 769.519 108.094 768.674C108.251 768.278 108.408 767.882 108.565 767.486C108.662 767.245 108.758 767.003 108.854 766.762C108.919 766.597 108.919 766.597 108.986 766.428C109.026 766.327 109.067 766.226 109.108 766.122C109.143 766.035 109.178 765.947 109.214 765.857C109.321 765.621 109.321 765.621 109.592 765.215Z" fill="black"/>
<path d="M91.7277 779.223C91.9906 779.228 92.2536 779.233 92.5166 779.237C93.1588 779.249 93.8005 779.268 94.4424 779.29C94.339 779.783 94.2378 779.933 93.8123 780.212C93.7086 780.282 93.6049 780.351 93.4981 780.422C93.3855 780.495 93.2729 780.569 93.1569 780.644C92.9202 780.802 92.6836 780.96 92.4471 781.118C92.3274 781.197 92.2078 781.276 92.0845 781.358C91.5763 781.698 91.0763 782.05 90.5775 782.404C90.4842 782.47 90.3909 782.536 90.2947 782.604C90.0081 782.808 89.7219 783.012 89.4358 783.216C89.3369 783.286 89.238 783.357 89.1362 783.429C87.7343 784.43 86.3536 785.455 84.9916 786.509C84.6932 786.74 84.3942 786.971 84.0951 787.201C82.1621 788.692 80.2806 790.243 78.4235 791.828C78.1918 792.026 77.9596 792.223 77.7275 792.42C76.8557 793.162 75.9974 793.916 75.1533 794.69C74.7797 795.031 74.3997 795.364 74.018 795.696C73.4688 796.177 72.9281 796.668 72.3863 797.158C73.0399 797.945 73.742 798.67 74.4667 799.392C74.5766 799.502 74.6865 799.613 74.7997 799.726C75.2828 800.209 75.7665 800.683 76.2861 801.126C77.1615 801.879 77.9561 802.723 78.767 803.544C79.5029 804.289 80.2367 805.024 81.0339 805.704C81.774 806.365 82.4578 807.092 83.1548 807.798C84.1017 808.765 84.1017 808.765 85.1015 809.675C85.9723 810.418 86.7585 811.258 87.5624 812.072C88.2983 812.817 89.0321 813.552 89.8293 814.232C90.5694 814.893 91.2532 815.62 91.9502 816.326C92.6872 817.072 93.4214 817.814 94.223 818.491C94.2954 818.554 94.3678 818.617 94.4424 818.681C94.513 818.737 94.5835 818.792 94.6562 818.85C94.9247 819.182 94.8973 819.405 94.8944 819.829C94.8944 819.981 94.8944 820.133 94.8943 820.289C94.8922 820.453 94.8901 820.616 94.888 820.785C94.8874 820.953 94.8868 821.12 94.8862 821.293C94.8844 821.739 94.8807 822.184 94.8762 822.629C94.8721 823.084 94.8702 823.538 94.8682 823.993C94.8637 824.884 94.8569 825.776 94.8483 826.668C94.15 826.564 93.8203 826.25 93.3446 825.753C93.2282 825.635 93.2282 825.635 93.1095 825.514C92.8618 825.263 92.6161 825.009 92.3704 824.756C92.1259 824.505 91.881 824.255 91.6357 824.005C91.4835 823.85 91.3317 823.695 91.1806 823.539C90.7955 823.144 90.4009 822.77 89.9836 822.409C89.448 821.946 88.9474 821.456 88.4505 820.953C88.3615 820.863 88.2725 820.774 88.1808 820.681C87.8052 820.303 87.4304 819.925 87.0555 819.546C86.7794 819.267 86.5029 818.989 86.2263 818.711C86.1436 818.627 86.0608 818.543 85.9755 818.456C85.5628 818.041 85.1428 817.643 84.6998 817.26C84.1665 816.799 83.6681 816.311 83.1733 815.809C83.0843 815.719 82.9953 815.63 82.9036 815.537C82.528 815.16 82.1531 814.781 81.7782 814.402C81.5021 814.123 81.2256 813.845 80.9491 813.567C80.8663 813.483 80.7836 813.399 80.6983 813.313C80.2861 812.898 79.8669 812.5 79.4244 812.118C78.88 811.647 78.3718 811.148 77.8665 810.635C77.7745 810.543 77.6825 810.45 77.5877 810.355C77.1991 809.964 76.8113 809.572 76.4235 809.181C76.138 808.893 75.8521 808.605 75.5662 808.317C75.4804 808.23 75.3947 808.144 75.3064 808.054C74.8007 807.545 74.2778 807.068 73.7352 806.599C73.2995 806.213 72.8922 805.8 72.4836 805.386C72.3945 805.296 72.3055 805.207 72.2138 805.114C71.8382 804.737 71.4634 804.358 71.0885 803.979C70.8124 803.7 70.5359 803.422 70.2593 803.144C70.1766 803.06 70.0938 802.976 70.0085 802.89C69.5027 802.381 68.9803 801.9 68.4359 801.433C68.067 801.11 67.7229 800.765 67.3797 800.415C67.2805 800.315 67.2805 800.315 67.1794 800.213C67.0203 800.053 66.8617 799.891 66.7031 799.73C66.9055 799.243 67.1804 798.968 67.5742 798.622C67.7563 798.462 67.7563 798.462 67.9421 798.298C68.4342 797.879 68.9359 797.472 69.4385 797.066C69.9522 796.638 70.4402 796.185 70.9317 795.733C71.4136 795.3 71.9162 794.896 72.4201 794.489C72.933 794.063 73.4195 793.611 73.9096 793.16C74.2672 792.839 74.6334 792.535 75.008 792.234C75.6573 791.711 76.2664 791.154 76.8747 790.584C77.3187 790.171 77.7719 789.779 78.2471 789.4C78.9986 788.797 79.6951 788.142 80.3924 787.479C80.9194 786.977 81.4557 786.491 82.0048 786.014C82.3935 785.675 82.7734 785.326 83.1522 784.976C83.2663 784.87 83.2663 784.87 83.3827 784.763C83.8521 784.327 84.3087 783.882 84.7569 783.425C84.9806 783.206 85.2137 783.004 85.4525 782.801C85.9943 782.333 86.5019 781.834 87.0086 781.329C87.1258 781.213 87.1258 781.213 87.2454 781.094C87.3608 780.978 87.3608 780.978 87.4785 780.86C87.5582 780.782 87.638 780.705 87.7201 780.625C87.9578 780.38 87.9578 780.38 88.1173 780.075C88.8883 778.833 90.446 779.177 91.7277 779.223Z" fill="black"/>
<path d="M145.288 784.122C145.389 784.122 145.49 784.122 145.594 784.122C147.117 784.129 148.576 784.2 150.058 784.57C150.15 784.592 150.243 784.614 150.338 784.636C153.378 785.367 155.925 786.89 158.177 789.037C158.256 789.107 158.336 789.176 158.418 789.248C160.607 791.241 161.984 794.365 162.778 797.159C162.804 797.248 162.83 797.338 162.857 797.43C164.775 804.091 164.341 812.214 161.054 818.366C160.498 819.366 159.87 820.251 159.124 821.118C159.026 821.237 158.927 821.356 158.826 821.478C155.956 824.823 151.891 826.395 147.622 826.939C146.912 826.971 146.202 826.972 145.491 826.973C145.391 826.973 145.292 826.973 145.189 826.973C143.624 826.972 142.113 826.895 140.586 826.533C140.42 826.494 140.254 826.454 140.082 826.414C137.513 825.733 135.285 824.629 133.279 822.878C133.146 822.769 133.146 822.769 133.01 822.659C129.031 819.401 127.426 813.849 126.919 808.936C126.428 803.39 127.045 797.622 129.761 792.692C129.827 792.569 129.894 792.446 129.962 792.32C132.125 788.517 135.741 785.931 139.91 784.739C140.002 784.712 140.095 784.685 140.191 784.658C141.871 784.203 143.56 784.113 145.288 784.122ZM140.992 786.465C140.844 786.501 140.697 786.537 140.544 786.575C138.697 787.083 136.916 787.943 135.444 789.172C135.311 789.284 135.178 789.395 135.04 789.51C131.273 792.761 129.653 797.779 129.25 802.617C128.876 808.683 129.451 815.485 133.619 820.27C136.269 823.185 139.941 824.862 143.866 825.067C145.82 825.132 147.747 825.11 149.652 824.638C149.743 824.615 149.834 824.593 149.928 824.57C152.059 824.02 153.904 823.048 155.606 821.66C155.728 821.566 155.728 821.566 155.853 821.47C158.586 819.332 160.119 815.551 160.849 812.26C160.89 812.079 160.89 812.079 160.931 811.894C161.362 809.825 161.476 807.777 161.467 805.67C161.466 805.548 161.466 805.427 161.466 805.302C161.447 799.665 160.194 794.216 156.24 790.018C154.384 788.241 152.126 787.103 149.652 786.465C149.485 786.422 149.318 786.378 149.146 786.333C146.533 785.769 143.584 785.802 140.992 786.465Z" fill="black"/>
</g>
<rect x="5" y="342.742" width="490" height="490" stroke="black" stroke-width="10"/>
<rect x="157.593" y="162.806" width="490" height="490" transform="rotate(-18.6223 157.593 162.806)" stroke="black" stroke-width="10"/>
<path d="M489.998 562.585L317.197 620.814L225.18 347.742H489.998V562.585Z" fill="black"/>
<defs>
<clipPath id="clip0_504_2154">
<rect width="152" height="73" fill="white" transform="translate(12 754)"/>
</clipPath>
</defs>
</svg>
