<svg width="838" height="785" viewBox="0 0 838 785" fill="none" xmlns="http://www.w3.org/2000/svg">
<rect x="495" y="5" width="490" height="490" transform="rotate(90 495 5)" stroke="black" stroke-width="10"/>
<rect x="674.929" y="157.589" width="490" height="490" transform="rotate(71.3776 674.929 157.589)" stroke="black" stroke-width="10"/>
<path d="M275.15 489.998L216.92 317.197L489.992 225.18L489.992 489.998L275.15 489.998Z" fill="black"/>
<path d="M31.2595 440.795C31.5628 440.794 31.8661 440.792 32.1694 440.789C36.1963 440.773 39.9922 441.742 42.9315 444.61C43.0253 444.7 43.119 444.79 43.2156 444.882C46.7079 448.483 46.8983 454.072 46.9051 458.763C46.906 459.021 46.9069 459.28 46.9079 459.538C46.9099 460.089 46.9115 460.64 46.9128 461.192C46.9149 462.065 46.9182 462.937 46.9216 463.81C46.9313 466.29 46.9395 468.771 46.9464 471.251C46.9503 472.624 46.9551 473.998 46.9609 475.371C46.9646 476.238 46.967 477.105 46.9686 477.971C46.9698 478.511 46.9722 479.05 46.9749 479.59C46.9759 479.839 46.9764 480.088 46.9765 480.337C46.9262 482.757 46.9262 482.757 47.8349 484.948C48.729 485.817 49.7384 485.927 50.9392 485.92C51.0806 485.917 51.222 485.915 51.3677 485.913C51.5854 485.911 51.5854 485.911 51.8075 485.909C52.1632 485.906 52.5188 485.901 52.8745 485.896C52.8745 486.119 52.8745 486.343 52.8745 486.573C50.3196 487.839 47.7148 488.836 44.8384 488.062C43.3027 487.491 42.5129 486.569 41.7748 485.14C41.3452 484.172 41.1444 483.153 41.0246 482.106C40.9563 482.173 40.888 482.241 40.8177 482.31C36.2641 486.604 29.7401 488.889 23.5132 488.772C20.1446 488.654 16.9113 487.558 14.5204 485.132C12.5572 482.94 11.8965 480.257 12.0129 477.368C12.2628 474.199 13.7023 471.596 16.0394 469.466C19.0466 466.946 22.791 465.515 26.5869 464.644C26.7159 464.614 26.8449 464.584 26.9778 464.553C30.2132 463.824 33.5119 463.488 36.8108 463.189C36.9054 463.18 37 463.171 37.0975 463.162C38.4103 463.041 39.707 462.998 41.0246 463.019C41.0162 462.007 41.0056 460.995 40.9925 459.983C40.9865 459.512 40.9812 459.042 40.9774 458.572C40.9435 454.387 40.7316 449.791 37.7557 446.505C37.6546 446.383 37.6546 446.383 37.5514 446.26C36.0203 444.555 33.441 443.734 31.2178 443.527C25.9296 443.233 21.5199 444.747 17.3149 447.932C16.9155 448.232 16.5075 448.519 16.099 448.806C15.9583 448.658 15.8197 448.508 15.6819 448.358C15.6045 448.274 15.527 448.191 15.4473 448.106C15.3927 448.024 15.3381 447.943 15.2818 447.859C15.5083 447.183 16.1186 446.854 16.6707 446.425C16.8413 446.293 17.0113 446.159 17.181 446.025C21.3113 442.767 25.9259 440.794 31.2595 440.795ZM38.6059 464.492C38.4951 464.505 38.3843 464.518 38.2702 464.531C37.9113 464.573 37.5525 464.617 37.1939 464.661C37.0705 464.676 36.9472 464.691 36.8202 464.706C33.5338 465.109 30.2909 465.665 27.1317 466.674C27.0304 466.705 26.9291 466.737 26.8248 466.769C24.8171 467.395 22.8687 468.262 21.2748 469.652C21.1205 469.777 21.1205 469.777 20.9631 469.904C19.1843 471.382 18.1404 473.469 17.8697 475.744C17.7246 478.494 18.206 481.036 20.049 483.189C21.5906 484.883 23.7884 485.774 26.042 486.031C29.805 486.217 33.2438 485.446 36.5299 483.595C36.6202 483.544 36.7106 483.493 36.8037 483.441C38.2046 482.641 39.4275 481.702 40.616 480.617C40.6903 480.556 40.7645 480.495 40.841 480.432C41.0895 480.132 41.075 479.946 41.0738 479.56C41.0743 479.427 41.0749 479.293 41.0755 479.155C41.074 479.008 41.0725 478.862 41.071 478.711C41.0711 478.556 41.0711 478.402 41.0712 478.242C41.0709 477.73 41.0677 477.218 41.0645 476.706C41.0638 476.352 41.0632 475.997 41.0628 475.643C41.0615 474.804 41.0582 473.966 41.0541 473.128C41.0495 472.173 41.0472 471.218 41.0452 470.264C41.0409 468.3 41.0337 466.337 41.0246 464.373C40.8325 464.372 40.6404 464.371 40.4483 464.37C40.3413 464.369 40.2343 464.369 40.124 464.368C39.6138 464.376 39.1122 464.432 38.6059 464.492Z" fill="black"/>
<path d="M64.455 417C64.455 440.362 64.455 463.725 64.455 487.795C62.5672 487.795 60.6794 487.795 58.7344 487.795C58.7344 465.103 58.7344 442.41 58.7344 419.03C59.8889 418.552 61.0421 418.084 62.2076 417.635C62.3646 417.573 62.5215 417.512 62.6833 417.448C62.8339 417.39 62.9846 417.332 63.1398 417.272C63.2749 417.22 63.41 417.168 63.5492 417.114C63.9102 417 63.9102 417 64.455 417Z" fill="black"/>
<path d="M109.933 427.695C110.068 427.695 110.202 427.695 110.341 427.695C110.341 432.341 110.341 436.987 110.341 441.773C115.555 441.773 120.769 441.773 126.141 441.773C126.051 442.041 125.961 442.309 125.869 442.585C125.829 442.708 125.79 442.83 125.749 442.956C125.524 443.42 125.343 443.641 124.915 443.939C123.858 444.2 122.714 444.096 121.634 444.071C121.309 444.069 120.983 444.067 120.658 444.065C119.803 444.06 118.949 444.047 118.094 444.032C117.221 444.018 116.348 444.012 115.475 444.005C113.764 443.991 112.053 443.968 110.341 443.939C110.353 448.282 110.365 452.625 110.379 456.969C110.381 457.482 110.383 457.996 110.385 458.51C110.385 458.612 110.385 458.714 110.386 458.82C110.391 460.472 110.395 462.124 110.4 463.776C110.404 465.473 110.409 467.17 110.415 468.868C110.419 469.913 110.422 470.959 110.424 472.005C110.426 472.81 110.429 473.614 110.432 474.418C110.433 474.746 110.434 475.075 110.435 475.403C110.439 480.249 110.439 480.249 112.665 484.459C114.149 485.871 116.156 486.301 118.156 486.359C120.554 486.291 122.798 485.636 124.938 484.58C125.323 484.391 125.569 484.277 126.005 484.277C126.554 484.944 126.554 484.944 126.542 485.36C126.35 485.765 126.078 485.865 125.682 486.07C125.529 486.15 125.376 486.229 125.218 486.311C125.052 486.395 124.886 486.478 124.72 486.562C124.636 486.604 124.553 486.646 124.467 486.69C120.572 488.663 115.728 489.751 111.431 488.474C111.27 488.428 111.109 488.382 110.943 488.334C108.545 487.57 106.855 486.081 105.71 483.871C104.585 481.272 104.561 478.517 104.574 475.734C104.574 475.385 104.574 475.037 104.574 474.688C104.574 473.944 104.575 473.199 104.578 472.454C104.581 471.377 104.582 470.3 104.582 469.224C104.583 467.476 104.586 465.728 104.59 463.98C104.594 462.284 104.597 460.588 104.598 458.892C104.598 458.787 104.598 458.683 104.599 458.575C104.599 458.048 104.6 457.522 104.6 456.996C104.604 452.644 104.612 448.291 104.621 443.939C102.194 443.939 99.7664 443.939 97.2656 443.939C97.2656 443.403 97.2656 442.867 97.2656 442.315C97.5863 442.155 97.8113 442.148 98.1691 442.127C98.3 442.118 98.4309 442.11 98.5657 442.102C98.7073 442.094 98.8489 442.086 98.9948 442.077C99.1395 442.068 99.2843 442.06 99.4334 442.05C99.8969 442.022 100.36 441.995 100.824 441.968C101.138 441.949 101.451 441.93 101.765 441.911C102.535 441.864 103.306 441.819 104.076 441.773C104.687 440.501 105.205 439.193 105.729 437.883C105.889 437.481 106.05 437.079 106.211 436.678C106.611 435.682 107.01 434.686 107.408 433.69C107.747 432.845 108.085 431.999 108.424 431.154C108.583 430.759 108.741 430.363 108.899 429.967C108.996 429.725 109.093 429.484 109.19 429.242C109.256 429.077 109.256 429.077 109.323 428.909C109.363 428.808 109.404 428.707 109.446 428.603C109.481 428.515 109.516 428.428 109.552 428.337C109.66 428.101 109.66 428.101 109.933 427.695Z" fill="black"/>
<path d="M91.9551 441.703C92.2198 441.708 92.4845 441.713 92.7492 441.718C93.3957 441.73 94.0416 441.748 94.6878 441.771C94.5837 442.263 94.4819 442.414 94.0536 442.693C93.9492 442.762 93.8448 442.831 93.7372 442.903C93.6239 442.976 93.5106 443.049 93.3938 443.124C93.1555 443.282 92.9173 443.44 92.6793 443.598C92.5588 443.678 92.4384 443.757 92.3143 443.839C91.8027 444.179 91.2994 444.53 90.7974 444.884C90.7035 444.95 90.6095 445.016 90.5127 445.085C90.2243 445.288 89.9361 445.492 89.6482 445.696C89.5486 445.767 89.4491 445.837 89.3465 445.91C87.9354 446.911 86.5456 447.936 85.1747 448.99C84.8743 449.221 84.5733 449.451 84.2723 449.681C82.3265 451.172 80.4326 452.724 78.5633 454.308C78.33 454.506 78.0963 454.703 77.8627 454.9C76.9851 455.643 76.1211 456.396 75.2716 457.17C74.8955 457.511 74.5129 457.844 74.1287 458.176C73.5759 458.658 73.0317 459.149 72.4863 459.639C73.1441 460.426 73.8509 461.151 74.5804 461.872C74.691 461.983 74.8016 462.093 74.9156 462.207C75.4019 462.689 75.8888 463.163 76.4117 463.607C77.293 464.36 78.0928 465.203 78.909 466.025C79.6498 466.769 80.3884 467.505 81.1909 468.184C81.9358 468.846 82.6241 469.572 83.3258 470.279C84.2789 471.245 84.2789 471.245 85.2853 472.156C86.1618 472.899 86.9532 473.738 87.7624 474.552C88.5032 475.297 89.2418 476.033 90.0443 476.712C90.7892 477.374 91.4775 478.1 92.1791 478.807C92.921 479.553 93.6601 480.294 94.467 480.972C94.5398 481.034 94.6127 481.097 94.6878 481.162C94.7588 481.217 94.8298 481.273 94.903 481.33C95.1732 481.662 95.1456 481.886 95.1428 482.31C95.1427 482.461 95.1427 482.613 95.1427 482.769C95.1406 482.933 95.1385 483.097 95.1363 483.266C95.1357 483.433 95.1351 483.601 95.1345 483.774C95.1326 484.219 95.129 484.664 95.1244 485.11C95.1202 485.564 95.1184 486.019 95.1163 486.473C95.1118 487.365 95.105 488.256 95.0964 489.148C94.3934 489.044 94.0615 488.73 93.5827 488.233C93.4656 488.115 93.4656 488.115 93.3461 487.995C93.0968 487.743 92.8494 487.49 92.6021 487.236C92.356 486.986 92.1094 486.736 91.8625 486.486C91.7093 486.331 91.5566 486.175 91.4045 486.019C91.0168 485.624 90.6196 485.25 90.1995 484.89C89.6605 484.427 89.1566 483.937 88.6564 483.433C88.5668 483.344 88.4772 483.254 88.3849 483.162C88.0068 482.784 87.6295 482.405 87.2521 482.026C86.9742 481.748 86.6959 481.469 86.4175 481.191C86.3342 481.107 86.2509 481.023 86.1651 480.937C85.7496 480.522 85.3269 480.123 84.881 479.74C84.3441 479.279 83.8425 478.791 83.3444 478.289C83.2548 478.2 83.1652 478.11 83.0729 478.018C82.6948 477.64 82.3175 477.261 81.9401 476.882C81.6622 476.604 81.3839 476.326 81.1055 476.047C81.0222 475.963 80.9389 475.88 80.853 475.793C80.4382 475.378 80.0162 474.981 79.5708 474.598C79.0227 474.128 78.5112 473.628 78.0026 473.116C77.91 473.023 77.8173 472.931 77.7219 472.835C77.3308 472.445 76.9405 472.053 76.5501 471.661C76.2627 471.373 75.9749 471.085 75.6871 470.798C75.6008 470.711 75.5145 470.624 75.4256 470.535C74.9166 470.026 74.3902 469.548 73.8441 469.08C73.4055 468.693 72.9955 468.281 72.5842 467.866C72.4946 467.777 72.405 467.687 72.3127 467.595C71.9345 467.217 71.5572 466.838 71.1799 466.459C70.902 466.181 70.6236 465.903 70.3453 465.624C70.262 465.54 70.1786 465.457 70.0928 465.37C69.5837 464.861 69.0579 464.381 68.5098 463.913C68.1385 463.591 67.7921 463.246 67.4467 462.896C67.3468 462.796 67.3468 462.796 67.245 462.694C67.0849 462.533 66.9252 462.372 66.7656 462.211C66.9693 461.724 67.246 461.448 67.6424 461.102C67.8258 460.942 67.8258 460.942 68.0128 460.779C68.5081 460.359 69.0131 459.953 69.519 459.546C70.0361 459.119 70.5273 458.666 71.022 458.213C71.5072 457.78 72.013 457.376 72.5203 456.97C73.0366 456.544 73.5262 456.092 74.0196 455.64C74.3795 455.319 74.7482 455.016 75.1252 454.715C75.7789 454.191 76.392 453.635 77.0042 453.065C77.4512 452.651 77.9074 452.259 78.3857 451.881C79.1421 451.278 79.8432 450.623 80.5452 449.959C81.0756 449.458 81.6154 448.972 82.1681 448.495C82.5594 448.155 82.9418 447.807 83.3231 447.456C83.438 447.351 83.438 447.351 83.5552 447.243C84.0277 446.808 84.4872 446.363 84.9384 445.906C85.1636 445.686 85.3982 445.484 85.6386 445.282C86.184 444.814 86.6949 444.315 87.205 443.81C87.323 443.693 87.323 443.693 87.4434 443.575C87.5595 443.459 87.5595 443.459 87.678 443.341C87.7582 443.263 87.8385 443.185 87.9211 443.105C88.1604 442.86 88.1604 442.86 88.3209 442.555C89.0971 441.313 90.665 441.657 91.9551 441.703Z" fill="black"/>
<path d="M145.871 446.602C145.973 446.602 146.075 446.603 146.179 446.603C147.712 446.609 149.181 446.681 150.673 447.051C150.765 447.072 150.858 447.094 150.954 447.117C154.015 447.848 156.578 449.371 158.845 451.518C158.925 451.587 159.005 451.656 159.087 451.728C161.291 453.722 162.677 456.846 163.476 459.639C163.502 459.729 163.528 459.818 163.555 459.91C165.486 466.571 165.049 474.694 161.741 480.846C161.181 481.846 160.549 482.731 159.798 483.599C159.699 483.717 159.6 483.836 159.498 483.958C156.61 487.304 152.518 488.875 148.221 489.419C147.506 489.452 146.791 489.453 146.076 489.453C145.975 489.453 145.875 489.453 145.771 489.454C144.197 489.452 142.675 489.375 141.138 489.013C140.971 488.974 140.803 488.935 140.631 488.894C138.044 488.214 135.802 487.109 133.783 485.358C133.649 485.25 133.649 485.25 133.512 485.139C129.506 481.882 127.891 476.329 127.381 471.416C126.887 465.871 127.508 460.102 130.242 455.172C130.309 455.05 130.375 454.927 130.444 454.8C132.621 450.997 136.261 448.412 140.457 447.22C140.551 447.193 140.644 447.166 140.741 447.138C142.431 446.684 144.131 446.593 145.871 446.602ZM141.547 448.946C141.398 448.982 141.249 449.018 141.096 449.055C139.237 449.564 137.444 450.423 135.962 451.653C135.828 451.764 135.694 451.876 135.556 451.99C131.764 455.242 130.133 460.26 129.728 465.097C129.351 471.163 129.93 477.965 134.125 482.75C136.793 485.666 140.489 487.343 144.44 487.547C146.407 487.612 148.346 487.59 150.264 487.118C150.356 487.096 150.447 487.073 150.542 487.05C152.686 486.5 154.544 485.529 156.257 484.14C156.38 484.046 156.38 484.046 156.505 483.951C159.257 481.812 160.8 478.031 161.535 474.741C161.576 474.56 161.576 474.56 161.617 474.375C162.051 472.306 162.165 470.258 162.156 468.15C162.156 468.029 162.156 467.907 162.156 467.782C162.136 462.146 160.875 456.696 156.895 452.499C155.027 450.722 152.755 449.583 150.264 448.946C150.096 448.902 149.928 448.859 149.755 448.814C147.125 448.249 144.156 448.282 141.547 448.946Z" fill="black"/>
</svg>
