<svg width="922" height="708" viewBox="0 0 922 708" fill="none" xmlns="http://www.w3.org/2000/svg">
<rect x="495.74" y="167.845" width="490" height="490" transform="rotate(90.0278 495.74 167.845)" stroke="black" stroke-width="10"/>
<rect x="553.831" y="7.93612" width="490" height="490" transform="rotate(42.6321 553.831 7.93612)" stroke="black" stroke-width="10"/>
<path d="M32.2595 603.795C32.5628 603.794 32.8661 603.792 33.1694 603.789C37.1963 603.773 40.9922 604.742 43.9315 607.61C44.0253 607.7 44.119 607.79 44.2156 607.882C47.7079 611.483 47.8983 617.072 47.9051 621.763C47.906 622.021 47.9069 622.28 47.9079 622.538C47.9099 623.089 47.9115 623.64 47.9128 624.192C47.9149 625.065 47.9182 625.937 47.9216 626.81C47.9313 629.29 47.9395 631.771 47.9464 634.251C47.9503 635.624 47.9551 636.998 47.9609 638.371C47.9646 639.238 47.967 640.105 47.9686 640.971C47.9698 641.511 47.9722 642.05 47.9749 642.59C47.9759 642.839 47.9764 643.088 47.9765 643.337C47.9262 645.757 47.9262 645.757 48.8349 647.948C49.729 648.817 50.7384 648.927 51.9392 648.92C52.0806 648.917 52.222 648.915 52.3677 648.913C52.5854 648.911 52.5854 648.911 52.8075 648.909C53.1632 648.906 53.5188 648.901 53.8745 648.896C53.8745 649.119 53.8745 649.343 53.8745 649.573C51.3196 650.839 48.7148 651.836 45.8384 651.062C44.3027 650.491 43.5129 649.569 42.7748 648.14C42.3452 647.172 42.1444 646.153 42.0246 645.106C41.9563 645.173 41.888 645.241 41.8177 645.31C37.2641 649.604 30.7401 651.889 24.5132 651.772C21.1446 651.654 17.9113 650.558 15.5204 648.132C13.5572 645.94 12.8965 643.257 13.0129 640.368C13.2628 637.199 14.7023 634.596 17.0394 632.466C20.0466 629.946 23.791 628.515 27.5869 627.644C27.7159 627.614 27.8449 627.584 27.9778 627.553C31.2132 626.824 34.5119 626.488 37.8108 626.189C37.9054 626.18 38 626.171 38.0975 626.162C39.4103 626.041 40.707 625.998 42.0246 626.019C42.0162 625.007 42.0056 623.995 41.9925 622.983C41.9865 622.512 41.9812 622.042 41.9774 621.572C41.9435 617.387 41.7316 612.791 38.7557 609.505C38.6546 609.383 38.6546 609.383 38.5514 609.26C37.0203 607.555 34.441 606.734 32.2178 606.527C26.9296 606.233 22.5199 607.747 18.3149 610.932C17.9155 611.232 17.5075 611.519 17.099 611.806C16.9583 611.658 16.8197 611.508 16.6819 611.358C16.6045 611.274 16.527 611.191 16.4473 611.106C16.3927 611.024 16.3381 610.943 16.2818 610.859C16.5083 610.183 17.1186 609.854 17.6707 609.425C17.8413 609.293 18.0113 609.159 18.181 609.025C22.3113 605.767 26.9259 603.794 32.2595 603.795ZM39.6059 627.492C39.4951 627.505 39.3843 627.518 39.2702 627.531C38.9113 627.573 38.5525 627.617 38.1939 627.661C38.0705 627.676 37.9472 627.691 37.8202 627.706C34.5338 628.109 31.2909 628.665 28.1317 629.674C28.0304 629.705 27.9291 629.737 27.8248 629.769C25.8171 630.395 23.8687 631.262 22.2748 632.652C22.1205 632.777 22.1205 632.777 21.9631 632.904C20.1843 634.382 19.1404 636.469 18.8697 638.744C18.7246 641.494 19.206 644.036 21.049 646.189C22.5906 647.883 24.7884 648.774 27.042 649.031C30.805 649.217 34.2438 648.446 37.5299 646.595C37.6202 646.544 37.7106 646.493 37.8037 646.441C39.2046 645.641 40.4275 644.702 41.616 643.617C41.6903 643.556 41.7645 643.495 41.841 643.432C42.0895 643.132 42.075 642.946 42.0738 642.56C42.0743 642.427 42.0749 642.293 42.0755 642.155C42.074 642.008 42.0725 641.862 42.071 641.711C42.0711 641.556 42.0711 641.402 42.0712 641.242C42.0709 640.73 42.0677 640.218 42.0645 639.706C42.0638 639.352 42.0632 638.997 42.0628 638.643C42.0615 637.804 42.0582 636.966 42.0541 636.128C42.0495 635.173 42.0472 634.218 42.0452 633.264C42.0409 631.3 42.0337 629.337 42.0246 627.373C41.8325 627.372 41.6404 627.371 41.4483 627.37C41.3413 627.369 41.2343 627.369 41.124 627.368C40.6138 627.376 40.1122 627.432 39.6059 627.492Z" fill="black"/>
<path d="M65.455 580C65.455 603.362 65.455 626.725 65.455 650.795C63.5672 650.795 61.6794 650.795 59.7344 650.795C59.7344 628.103 59.7344 605.41 59.7344 582.03C60.8889 581.552 62.0421 581.084 63.2076 580.635C63.3646 580.573 63.5215 580.512 63.6833 580.448C63.8339 580.39 63.9846 580.332 64.1398 580.272C64.2749 580.22 64.41 580.168 64.5492 580.114C64.9102 580 64.9102 580 65.455 580Z" fill="black"/>
<path d="M110.933 590.695C111.068 590.695 111.202 590.695 111.341 590.695C111.341 595.341 111.341 599.987 111.341 604.773C116.555 604.773 121.769 604.773 127.141 604.773C127.051 605.041 126.961 605.309 126.869 605.585C126.829 605.708 126.79 605.83 126.749 605.956C126.524 606.42 126.343 606.641 125.915 606.939C124.858 607.2 123.714 607.096 122.634 607.071C122.309 607.069 121.983 607.067 121.658 607.065C120.803 607.06 119.949 607.047 119.094 607.032C118.221 607.018 117.348 607.012 116.475 607.005C114.764 606.991 113.053 606.968 111.341 606.939C111.353 611.282 111.365 615.625 111.379 619.969C111.381 620.482 111.383 620.996 111.385 621.51C111.385 621.612 111.385 621.714 111.386 621.82C111.391 623.472 111.395 625.124 111.4 626.776C111.404 628.473 111.409 630.17 111.415 631.868C111.419 632.913 111.422 633.959 111.424 635.005C111.426 635.81 111.429 636.614 111.432 637.418C111.433 637.746 111.434 638.075 111.435 638.403C111.439 643.249 111.439 643.249 113.665 647.459C115.149 648.871 117.156 649.301 119.156 649.359C121.554 649.291 123.798 648.636 125.938 647.58C126.323 647.391 126.569 647.277 127.005 647.277C127.554 647.944 127.554 647.944 127.542 648.36C127.35 648.765 127.078 648.865 126.682 649.07C126.529 649.15 126.376 649.229 126.218 649.311C126.052 649.395 125.886 649.478 125.72 649.562C125.636 649.604 125.553 649.646 125.467 649.69C121.572 651.663 116.728 652.751 112.431 651.474C112.27 651.428 112.109 651.382 111.943 651.334C109.545 650.57 107.855 649.081 106.71 646.871C105.585 644.272 105.561 641.517 105.574 638.734C105.574 638.385 105.574 638.037 105.574 637.688C105.574 636.944 105.575 636.199 105.578 635.454C105.581 634.377 105.582 633.3 105.582 632.224C105.583 630.476 105.586 628.728 105.59 626.98C105.594 625.284 105.597 623.588 105.598 621.892C105.598 621.787 105.598 621.683 105.599 621.575C105.599 621.048 105.6 620.522 105.6 619.996C105.604 615.644 105.612 611.291 105.621 606.939C103.194 606.939 100.766 606.939 98.2656 606.939C98.2656 606.403 98.2656 605.867 98.2656 605.315C98.5863 605.155 98.8113 605.148 99.1691 605.127C99.3 605.118 99.4309 605.11 99.5657 605.102C99.7073 605.094 99.8489 605.086 99.9948 605.077C100.14 605.068 100.284 605.06 100.433 605.05C100.897 605.022 101.36 604.995 101.824 604.968C102.138 604.949 102.451 604.93 102.765 604.911C103.535 604.864 104.306 604.819 105.076 604.773C105.687 603.501 106.205 602.193 106.729 600.883C106.889 600.481 107.05 600.079 107.211 599.678C107.611 598.682 108.01 597.686 108.408 596.69C108.747 595.845 109.085 594.999 109.424 594.154C109.583 593.759 109.741 593.363 109.899 592.967C109.996 592.725 110.093 592.484 110.19 592.242C110.256 592.077 110.256 592.077 110.323 591.909C110.363 591.808 110.404 591.707 110.446 591.603C110.481 591.515 110.516 591.428 110.552 591.337C110.66 591.101 110.66 591.101 110.933 590.695Z" fill="black"/>
<path d="M92.9551 604.703C93.2198 604.708 93.4845 604.713 93.7492 604.718C94.3957 604.73 95.0416 604.748 95.6878 604.771C95.5837 605.263 95.4819 605.414 95.0536 605.693C94.9492 605.762 94.8448 605.831 94.7372 605.903C94.6239 605.976 94.5106 606.049 94.3938 606.124C94.1555 606.282 93.9173 606.44 93.6793 606.598C93.5588 606.678 93.4384 606.757 93.3143 606.839C92.8027 607.179 92.2994 607.53 91.7974 607.884C91.7035 607.95 91.6095 608.016 91.5127 608.085C91.2243 608.288 90.9361 608.492 90.6482 608.696C90.5486 608.767 90.4491 608.837 90.3465 608.91C88.9354 609.911 87.5456 610.936 86.1747 611.99C85.8743 612.221 85.5733 612.451 85.2723 612.681C83.3265 614.172 81.4326 615.724 79.5633 617.308C79.33 617.506 79.0963 617.703 78.8627 617.9C77.9851 618.643 77.1211 619.396 76.2716 620.17C75.8955 620.511 75.5129 620.844 75.1287 621.176C74.5759 621.658 74.0317 622.149 73.4863 622.639C74.1441 623.426 74.8509 624.151 75.5804 624.872C75.691 624.983 75.8016 625.093 75.9156 625.207C76.4019 625.689 76.8888 626.163 77.4117 626.607C78.293 627.36 79.0928 628.203 79.909 629.025C80.6498 629.769 81.3884 630.505 82.1909 631.184C82.9358 631.846 83.6241 632.572 84.3258 633.279C85.2789 634.245 85.2789 634.245 86.2853 635.156C87.1618 635.899 87.9532 636.738 88.7624 637.552C89.5032 638.297 90.2418 639.033 91.0443 639.712C91.7892 640.374 92.4775 641.1 93.1791 641.807C93.921 642.553 94.6601 643.294 95.467 643.972C95.5398 644.034 95.6127 644.097 95.6878 644.162C95.7588 644.217 95.8298 644.273 95.903 644.33C96.1732 644.662 96.1456 644.886 96.1428 645.31C96.1427 645.461 96.1427 645.613 96.1427 645.769C96.1406 645.933 96.1385 646.097 96.1363 646.266C96.1357 646.433 96.1351 646.601 96.1345 646.774C96.1326 647.219 96.129 647.664 96.1244 648.11C96.1202 648.564 96.1184 649.019 96.1163 649.473C96.1118 650.365 96.105 651.256 96.0964 652.148C95.3934 652.044 95.0615 651.73 94.5827 651.233C94.4656 651.115 94.4656 651.115 94.3461 650.995C94.0968 650.743 93.8494 650.49 93.6021 650.236C93.356 649.986 93.1094 649.736 92.8625 649.486C92.7093 649.331 92.5566 649.175 92.4045 649.019C92.0168 648.624 91.6196 648.25 91.1995 647.89C90.6605 647.427 90.1566 646.937 89.6564 646.433C89.5668 646.344 89.4772 646.254 89.3849 646.162C89.0068 645.784 88.6295 645.405 88.2521 645.026C87.9742 644.748 87.6959 644.469 87.4175 644.191C87.3342 644.107 87.2509 644.023 87.1651 643.937C86.7496 643.522 86.3269 643.123 85.881 642.74C85.3441 642.279 84.8425 641.791 84.3444 641.289C84.2548 641.2 84.1652 641.11 84.0729 641.018C83.6948 640.64 83.3175 640.261 82.9401 639.882C82.6622 639.604 82.3839 639.326 82.1055 639.047C82.0222 638.963 81.9389 638.88 81.853 638.793C81.4382 638.378 81.0162 637.981 80.5708 637.598C80.0227 637.128 79.5112 636.628 79.0026 636.116C78.91 636.023 78.8173 635.931 78.7219 635.835C78.3308 635.445 77.9405 635.053 77.5501 634.661C77.2627 634.373 76.9749 634.085 76.6871 633.798C76.6008 633.711 76.5145 633.624 76.4256 633.535C75.9166 633.026 75.3902 632.548 74.8441 632.08C74.4055 631.693 73.9955 631.281 73.5842 630.866C73.4946 630.777 73.405 630.687 73.3127 630.595C72.9345 630.217 72.5572 629.838 72.1799 629.459C71.902 629.181 71.6236 628.903 71.3453 628.624C71.262 628.54 71.1786 628.457 71.0928 628.37C70.5837 627.861 70.0579 627.381 69.5098 626.913C69.1385 626.591 68.7921 626.246 68.4467 625.896C68.3468 625.796 68.3468 625.796 68.245 625.694C68.0849 625.533 67.9252 625.372 67.7656 625.211C67.9693 624.724 68.246 624.448 68.6424 624.102C68.8258 623.942 68.8258 623.942 69.0128 623.779C69.5081 623.359 70.0131 622.953 70.519 622.546C71.0361 622.119 71.5273 621.666 72.022 621.213C72.5072 620.78 73.013 620.376 73.5203 619.97C74.0366 619.544 74.5262 619.092 75.0196 618.64C75.3795 618.319 75.7482 618.016 76.1252 617.715C76.7789 617.191 77.392 616.635 78.0042 616.065C78.4512 615.651 78.9074 615.259 79.3857 614.881C80.1421 614.278 80.8432 613.623 81.5452 612.959C82.0756 612.458 82.6154 611.972 83.1681 611.495C83.5594 611.155 83.9418 610.807 84.3231 610.456C84.438 610.351 84.438 610.351 84.5552 610.243C85.0277 609.808 85.4872 609.363 85.9384 608.906C86.1636 608.686 86.3982 608.484 86.6386 608.282C87.184 607.814 87.6949 607.315 88.205 606.81C88.323 606.693 88.323 606.693 88.4434 606.575C88.5595 606.459 88.5595 606.459 88.678 606.341C88.7582 606.263 88.8385 606.185 88.9211 606.105C89.1604 605.86 89.1604 605.86 89.3209 605.555C90.0971 604.313 91.665 604.657 92.9551 604.703Z" fill="black"/>
<path d="M146.871 609.602C146.973 609.602 147.075 609.603 147.179 609.603C148.712 609.609 150.181 609.681 151.673 610.051C151.765 610.072 151.858 610.094 151.954 610.117C155.015 610.848 157.578 612.371 159.845 614.518C159.925 614.587 160.005 614.656 160.087 614.728C162.291 616.722 163.677 619.846 164.476 622.639C164.502 622.729 164.528 622.818 164.555 622.91C166.486 629.571 166.049 637.694 162.741 643.846C162.181 644.846 161.549 645.731 160.798 646.599C160.699 646.717 160.6 646.836 160.498 646.958C157.61 650.304 153.518 651.875 149.221 652.419C148.506 652.452 147.791 652.453 147.076 652.453C146.975 652.453 146.875 652.453 146.771 652.454C145.197 652.452 143.675 652.375 142.138 652.013C141.971 651.974 141.803 651.935 141.631 651.894C139.044 651.214 136.802 650.109 134.783 648.358C134.649 648.25 134.649 648.25 134.512 648.139C130.506 644.882 128.891 639.329 128.381 634.416C127.887 628.871 128.508 623.102 131.242 618.172C131.309 618.05 131.375 617.927 131.444 617.8C133.621 613.997 137.261 611.412 141.457 610.22C141.551 610.193 141.644 610.166 141.741 610.138C143.431 609.684 145.131 609.593 146.871 609.602ZM142.547 611.946C142.398 611.982 142.249 612.018 142.096 612.055C140.237 612.564 138.444 613.423 136.962 614.653C136.828 614.764 136.694 614.876 136.556 614.99C132.764 618.242 131.133 623.26 130.728 628.097C130.351 634.163 130.93 640.965 135.125 645.75C137.793 648.666 141.489 650.343 145.44 650.547C147.407 650.612 149.346 650.59 151.264 650.118C151.356 650.096 151.447 650.073 151.542 650.05C153.686 649.5 155.544 648.529 157.257 647.14C157.38 647.046 157.38 647.046 157.505 646.951C160.257 644.812 161.8 641.031 162.535 637.741C162.576 637.56 162.576 637.56 162.617 637.375C163.051 635.306 163.165 633.258 163.156 631.15C163.156 631.029 163.156 630.907 163.156 630.782C163.136 625.146 161.875 619.696 157.895 615.499C156.027 613.722 153.755 612.583 151.264 611.946C151.096 611.902 150.928 611.859 150.755 611.814C148.125 611.249 145.156 611.282 142.547 611.946Z" fill="black"/>
<path d="M229.018 368.136L408.837 172.804L490.734 172.844L490.523 608.874L229.018 368.136Z" fill="black"/>
</svg>
