<svg width="785" height="838" viewBox="0 0 785 838" fill="none" xmlns="http://www.w3.org/2000/svg">
<rect x="5" y="342.742" width="490" height="490" stroke="black" stroke-width="10"/>
<rect x="157.593" y="162.806" width="490" height="490" transform="rotate(-18.6223 157.593 162.806)" stroke="black" stroke-width="10"/>
<path d="M489.998 562.585L317.197 620.814L225.18 347.742H489.998V562.585Z" fill="black"/>
<path d="M31.2595 778.795C31.5628 778.794 31.8661 778.792 32.1694 778.789C36.1963 778.773 39.9922 779.742 42.9315 782.61C43.0253 782.7 43.119 782.79 43.2156 782.882C46.7079 786.483 46.8983 792.072 46.9051 796.763C46.906 797.021 46.9069 797.28 46.9079 797.538C46.9099 798.089 46.9115 798.64 46.9128 799.192C46.9149 800.065 46.9182 800.937 46.9216 801.81C46.9313 804.29 46.9395 806.771 46.9464 809.251C46.9503 810.624 46.9551 811.998 46.9609 813.371C46.9646 814.238 46.967 815.105 46.9686 815.971C46.9698 816.511 46.9722 817.05 46.9749 817.59C46.9759 817.839 46.9764 818.088 46.9765 818.337C46.9262 820.757 46.9262 820.757 47.8349 822.948C48.729 823.817 49.7384 823.927 50.9392 823.92C51.0806 823.917 51.222 823.915 51.3677 823.913C51.5854 823.911 51.5854 823.911 51.8075 823.909C52.1632 823.906 52.5188 823.901 52.8745 823.896C52.8745 824.119 52.8745 824.343 52.8745 824.573C50.3196 825.839 47.7148 826.836 44.8384 826.062C43.3027 825.491 42.5129 824.569 41.7748 823.14C41.3452 822.172 41.1444 821.153 41.0246 820.106C40.9563 820.173 40.888 820.241 40.8177 820.31C36.2641 824.604 29.7401 826.889 23.5132 826.772C20.1446 826.654 16.9113 825.558 14.5204 823.132C12.5572 820.94 11.8965 818.257 12.0129 815.368C12.2628 812.199 13.7023 809.596 16.0394 807.466C19.0466 804.946 22.791 803.515 26.5869 802.644C26.7159 802.614 26.8449 802.584 26.9778 802.553C30.2132 801.824 33.5119 801.488 36.8108 801.189C36.9054 801.18 37 801.171 37.0975 801.162C38.4103 801.041 39.707 800.998 41.0246 801.019C41.0162 800.007 41.0056 798.995 40.9925 797.983C40.9865 797.512 40.9812 797.042 40.9774 796.572C40.9435 792.387 40.7316 787.791 37.7557 784.505C37.6546 784.383 37.6546 784.383 37.5514 784.26C36.0203 782.555 33.441 781.734 31.2178 781.527C25.9296 781.233 21.5199 782.747 17.3149 785.932C16.9155 786.232 16.5075 786.519 16.099 786.806C15.9583 786.658 15.8197 786.508 15.6819 786.358C15.6045 786.274 15.527 786.191 15.4473 786.106C15.3927 786.024 15.3381 785.943 15.2818 785.859C15.5083 785.183 16.1186 784.854 16.6707 784.425C16.8413 784.293 17.0113 784.159 17.181 784.025C21.3113 780.767 25.9259 778.794 31.2595 778.795ZM38.6059 802.492C38.4951 802.505 38.3843 802.518 38.2702 802.531C37.9113 802.573 37.5525 802.617 37.1939 802.661C37.0705 802.676 36.9472 802.691 36.8202 802.706C33.5338 803.109 30.2909 803.665 27.1317 804.674C27.0304 804.705 26.9291 804.737 26.8248 804.769C24.8171 805.395 22.8687 806.262 21.2748 807.652C21.1205 807.777 21.1205 807.777 20.9631 807.904C19.1843 809.382 18.1404 811.469 17.8697 813.744C17.7246 816.494 18.206 819.036 20.049 821.189C21.5906 822.883 23.7884 823.774 26.042 824.031C29.805 824.217 33.2438 823.446 36.5299 821.595C36.6202 821.544 36.7106 821.493 36.8037 821.441C38.2046 820.641 39.4275 819.702 40.616 818.617C40.6903 818.556 40.7645 818.495 40.841 818.432C41.0895 818.132 41.075 817.946 41.0738 817.56C41.0743 817.427 41.0749 817.293 41.0755 817.155C41.074 817.008 41.0725 816.862 41.071 816.711C41.0711 816.556 41.0711 816.402 41.0712 816.242C41.0709 815.73 41.0677 815.218 41.0645 814.706C41.0638 814.352 41.0632 813.997 41.0628 813.643C41.0615 812.804 41.0582 811.966 41.0541 811.128C41.0495 810.173 41.0472 809.218 41.0452 808.264C41.0409 806.3 41.0337 804.337 41.0246 802.373C40.8325 802.372 40.6404 802.371 40.4483 802.37C40.3413 802.369 40.2343 802.369 40.124 802.368C39.6138 802.376 39.1122 802.432 38.6059 802.492Z" fill="black"/>
<path d="M64.455 755C64.455 778.362 64.455 801.725 64.455 825.795C62.5672 825.795 60.6794 825.795 58.7344 825.795C58.7344 803.103 58.7344 780.41 58.7344 757.03C59.8889 756.552 61.0421 756.084 62.2076 755.635C62.3646 755.573 62.5215 755.512 62.6833 755.448C62.8339 755.39 62.9846 755.332 63.1398 755.272C63.2749 755.22 63.41 755.168 63.5492 755.114C63.9102 755 63.9102 755 64.455 755Z" fill="black"/>
<path d="M109.933 765.695C110.068 765.695 110.202 765.695 110.341 765.695C110.341 770.341 110.341 774.987 110.341 779.773C115.555 779.773 120.769 779.773 126.141 779.773C126.051 780.041 125.961 780.309 125.869 780.585C125.829 780.708 125.79 780.83 125.749 780.956C125.524 781.42 125.343 781.641 124.915 781.939C123.858 782.2 122.714 782.096 121.634 782.071C121.309 782.069 120.983 782.067 120.658 782.065C119.803 782.06 118.949 782.047 118.094 782.032C117.221 782.018 116.348 782.012 115.475 782.005C113.764 781.991 112.053 781.968 110.341 781.939C110.353 786.282 110.365 790.625 110.379 794.969C110.381 795.482 110.383 795.996 110.385 796.51C110.385 796.612 110.385 796.714 110.386 796.82C110.391 798.472 110.395 800.124 110.4 801.776C110.404 803.473 110.409 805.17 110.415 806.868C110.419 807.913 110.422 808.959 110.424 810.005C110.426 810.81 110.429 811.614 110.432 812.418C110.433 812.746 110.434 813.075 110.435 813.403C110.439 818.249 110.439 818.249 112.665 822.459C114.149 823.871 116.156 824.301 118.156 824.359C120.554 824.291 122.798 823.636 124.938 822.58C125.323 822.391 125.569 822.277 126.005 822.277C126.554 822.944 126.554 822.944 126.542 823.36C126.35 823.765 126.078 823.865 125.682 824.07C125.529 824.15 125.376 824.229 125.218 824.311C125.052 824.395 124.886 824.478 124.72 824.562C124.636 824.604 124.553 824.646 124.467 824.69C120.572 826.663 115.728 827.751 111.431 826.474C111.27 826.428 111.109 826.382 110.943 826.334C108.545 825.57 106.855 824.081 105.71 821.871C104.585 819.272 104.561 816.517 104.574 813.734C104.574 813.385 104.574 813.037 104.574 812.688C104.574 811.944 104.575 811.199 104.578 810.454C104.581 809.377 104.582 808.3 104.582 807.224C104.583 805.476 104.586 803.728 104.59 801.98C104.594 800.284 104.597 798.588 104.598 796.892C104.598 796.787 104.598 796.683 104.599 796.575C104.599 796.048 104.6 795.522 104.6 794.996C104.604 790.644 104.612 786.291 104.621 781.939C102.194 781.939 99.7664 781.939 97.2656 781.939C97.2656 781.403 97.2656 780.867 97.2656 780.315C97.5863 780.155 97.8113 780.148 98.1691 780.127C98.3 780.118 98.4309 780.11 98.5657 780.102C98.7073 780.094 98.8489 780.086 98.9948 780.077C99.1395 780.068 99.2843 780.06 99.4334 780.05C99.8969 780.022 100.36 779.995 100.824 779.968C101.138 779.949 101.451 779.93 101.765 779.911C102.535 779.864 103.306 779.819 104.076 779.773C104.687 778.501 105.205 777.193 105.729 775.883C105.889 775.481 106.05 775.079 106.211 774.678C106.611 773.682 107.01 772.686 107.408 771.69C107.747 770.845 108.085 769.999 108.424 769.154C108.583 768.759 108.741 768.363 108.899 767.967C108.996 767.725 109.093 767.484 109.19 767.242C109.256 767.077 109.256 767.077 109.323 766.909C109.363 766.808 109.404 766.707 109.446 766.603C109.481 766.515 109.516 766.428 109.552 766.337C109.66 766.101 109.66 766.101 109.933 765.695Z" fill="black"/>
<path d="M91.9551 779.703C92.2198 779.708 92.4845 779.713 92.7492 779.718C93.3957 779.73 94.0416 779.748 94.6878 779.771C94.5837 780.263 94.4819 780.414 94.0536 780.693C93.9492 780.762 93.8448 780.831 93.7372 780.903C93.6239 780.976 93.5106 781.049 93.3938 781.124C93.1555 781.282 92.9173 781.44 92.6793 781.598C92.5588 781.678 92.4384 781.757 92.3143 781.839C91.8027 782.179 91.2994 782.53 90.7974 782.884C90.7035 782.95 90.6095 783.016 90.5127 783.085C90.2243 783.288 89.9361 783.492 89.6482 783.696C89.5486 783.767 89.4491 783.837 89.3465 783.91C87.9354 784.911 86.5456 785.936 85.1747 786.99C84.8743 787.221 84.5733 787.451 84.2723 787.681C82.3265 789.172 80.4326 790.724 78.5633 792.308C78.33 792.506 78.0963 792.703 77.8627 792.9C76.9851 793.643 76.1211 794.396 75.2716 795.17C74.8955 795.511 74.5129 795.844 74.1287 796.176C73.5759 796.658 73.0317 797.149 72.4863 797.639C73.1441 798.426 73.8509 799.151 74.5804 799.872C74.691 799.983 74.8016 800.093 74.9156 800.207C75.4019 800.689 75.8888 801.163 76.4117 801.607C77.293 802.36 78.0928 803.203 78.909 804.025C79.6498 804.769 80.3884 805.505 81.1909 806.184C81.9358 806.846 82.6241 807.572 83.3258 808.279C84.2789 809.245 84.2789 809.245 85.2853 810.156C86.1618 810.899 86.9532 811.738 87.7624 812.552C88.5032 813.297 89.2418 814.033 90.0443 814.712C90.7892 815.374 91.4775 816.1 92.1791 816.807C92.921 817.553 93.6601 818.294 94.467 818.972C94.5398 819.034 94.6127 819.097 94.6878 819.162C94.7588 819.217 94.8298 819.273 94.903 819.33C95.1732 819.662 95.1456 819.886 95.1428 820.31C95.1427 820.461 95.1427 820.613 95.1427 820.769C95.1406 820.933 95.1385 821.097 95.1363 821.266C95.1357 821.433 95.1351 821.601 95.1345 821.774C95.1326 822.219 95.129 822.664 95.1244 823.11C95.1202 823.564 95.1184 824.019 95.1163 824.473C95.1118 825.365 95.105 826.256 95.0964 827.148C94.3934 827.044 94.0615 826.73 93.5827 826.233C93.4656 826.115 93.4656 826.115 93.3461 825.995C93.0968 825.743 92.8494 825.49 92.6021 825.236C92.356 824.986 92.1094 824.736 91.8625 824.486C91.7093 824.331 91.5566 824.175 91.4045 824.019C91.0168 823.624 90.6196 823.25 90.1995 822.89C89.6605 822.427 89.1566 821.937 88.6564 821.433C88.5668 821.344 88.4772 821.254 88.3849 821.162C88.0068 820.784 87.6295 820.405 87.2521 820.026C86.9742 819.748 86.6959 819.469 86.4175 819.191C86.3342 819.107 86.2509 819.023 86.1651 818.937C85.7496 818.522 85.3269 818.123 84.881 817.74C84.3441 817.279 83.8425 816.791 83.3444 816.289C83.2548 816.2 83.1652 816.11 83.0729 816.018C82.6948 815.64 82.3175 815.261 81.9401 814.882C81.6622 814.604 81.3839 814.326 81.1055 814.047C81.0222 813.963 80.9389 813.88 80.853 813.793C80.4382 813.378 80.0162 812.981 79.5708 812.598C79.0227 812.128 78.5112 811.628 78.0026 811.116C77.91 811.023 77.8173 810.931 77.7219 810.835C77.3308 810.445 76.9405 810.053 76.5501 809.661C76.2627 809.373 75.9749 809.085 75.6871 808.798C75.6008 808.711 75.5145 808.624 75.4256 808.535C74.9166 808.026 74.3902 807.548 73.8441 807.08C73.4055 806.693 72.9955 806.281 72.5842 805.866C72.4946 805.777 72.405 805.687 72.3127 805.595C71.9345 805.217 71.5572 804.838 71.1799 804.459C70.902 804.181 70.6236 803.903 70.3453 803.624C70.262 803.54 70.1786 803.457 70.0928 803.37C69.5837 802.861 69.0579 802.381 68.5098 801.913C68.1385 801.591 67.7921 801.246 67.4467 800.896C67.3468 800.796 67.3468 800.796 67.245 800.694C67.0849 800.533 66.9252 800.372 66.7656 800.211C66.9693 799.724 67.246 799.448 67.6424 799.102C67.8258 798.942 67.8258 798.942 68.0128 798.779C68.5081 798.359 69.0131 797.953 69.519 797.546C70.0361 797.119 70.5273 796.666 71.022 796.213C71.5072 795.78 72.013 795.376 72.5203 794.97C73.0366 794.544 73.5262 794.092 74.0196 793.64C74.3795 793.319 74.7482 793.016 75.1252 792.715C75.7789 792.191 76.392 791.635 77.0042 791.065C77.4512 790.651 77.9074 790.259 78.3857 789.881C79.1421 789.278 79.8432 788.623 80.5452 787.959C81.0756 787.458 81.6154 786.972 82.1681 786.495C82.5594 786.155 82.9418 785.807 83.3231 785.456C83.438 785.351 83.438 785.351 83.5552 785.243C84.0277 784.808 84.4872 784.363 84.9384 783.906C85.1636 783.686 85.3982 783.484 85.6386 783.282C86.184 782.814 86.6949 782.315 87.205 781.81C87.323 781.693 87.323 781.693 87.4434 781.575C87.5595 781.459 87.5595 781.459 87.678 781.341C87.7582 781.263 87.8385 781.185 87.9211 781.105C88.1604 780.86 88.1604 780.86 88.3209 780.555C89.0971 779.313 90.665 779.657 91.9551 779.703Z" fill="black"/>
<path d="M145.871 784.602C145.973 784.602 146.075 784.603 146.179 784.603C147.712 784.609 149.181 784.681 150.673 785.051C150.765 785.072 150.858 785.094 150.954 785.117C154.015 785.848 156.578 787.371 158.845 789.518C158.925 789.587 159.005 789.656 159.087 789.728C161.291 791.722 162.677 794.846 163.476 797.639C163.502 797.729 163.528 797.818 163.555 797.91C165.486 804.571 165.049 812.694 161.741 818.846C161.181 819.846 160.549 820.731 159.798 821.599C159.699 821.717 159.6 821.836 159.498 821.958C156.61 825.304 152.518 826.875 148.221 827.419C147.506 827.452 146.791 827.453 146.076 827.453C145.975 827.453 145.875 827.453 145.771 827.454C144.197 827.452 142.675 827.375 141.138 827.013C140.971 826.974 140.803 826.935 140.631 826.894C138.044 826.214 135.802 825.109 133.783 823.358C133.649 823.25 133.649 823.25 133.512 823.139C129.506 819.882 127.891 814.329 127.381 809.416C126.887 803.871 127.508 798.102 130.242 793.172C130.309 793.05 130.375 792.927 130.444 792.8C132.621 788.997 136.261 786.412 140.457 785.22C140.551 785.193 140.644 785.166 140.741 785.138C142.431 784.684 144.131 784.593 145.871 784.602ZM141.547 786.946C141.398 786.982 141.249 787.018 141.096 787.055C139.237 787.564 137.444 788.423 135.962 789.653C135.828 789.764 135.694 789.876 135.556 789.99C131.764 793.242 130.133 798.26 129.728 803.097C129.351 809.163 129.93 815.965 134.125 820.75C136.793 823.666 140.489 825.343 144.44 825.547C146.407 825.612 148.346 825.59 150.264 825.118C150.356 825.096 150.447 825.073 150.542 825.05C152.686 824.5 154.544 823.529 156.257 822.14C156.38 822.046 156.38 822.046 156.505 821.951C159.257 819.812 160.8 816.031 161.535 812.741C161.576 812.56 161.576 812.56 161.617 812.375C162.051 810.306 162.165 808.258 162.156 806.15C162.156 806.029 162.156 805.907 162.156 805.782C162.136 800.146 160.875 794.696 156.895 790.499C155.027 788.722 152.755 787.583 150.264 786.946C150.096 786.902 149.928 786.859 149.755 786.814C147.125 786.249 144.156 786.282 141.547 786.946Z" fill="black"/>
</svg>
