<svg width="709" height="913" viewBox="0 0 709 913" fill="none" xmlns="http://www.w3.org/2000/svg">
<path d="M31.4303 853.314C31.7316 853.314 32.0329 853.311 32.3342 853.309C36.3348 853.293 40.1057 854.262 43.0258 857.129C43.119 857.219 43.2121 857.309 43.3081 857.402C46.7774 861.003 46.9666 866.592 46.9734 871.283C46.9743 871.541 46.9752 871.799 46.9761 872.057C46.9781 872.609 46.9797 873.16 46.981 873.711C46.9831 874.584 46.9864 875.457 46.9898 876.33C46.9994 878.81 47.0075 881.29 47.0144 883.771C47.0183 885.144 47.0231 886.517 47.0289 887.891C47.0325 888.757 47.0349 889.624 47.0364 890.491C47.0377 891.03 47.04 891.57 47.0427 892.109C47.0437 892.358 47.0443 892.607 47.0443 892.857C46.9943 895.277 46.9943 895.277 47.8971 897.468C48.7854 898.336 49.7881 898.447 50.981 898.439C51.1215 898.437 51.262 898.435 51.4068 898.432C51.623 898.43 51.623 898.43 51.8437 898.429C52.197 898.425 52.5504 898.421 52.9037 898.415C52.9037 898.639 52.9037 898.862 52.9037 899.092C50.3655 900.359 47.7777 901.355 44.9202 900.581C43.3946 900.011 42.6099 899.089 41.8767 897.66C41.4499 896.692 41.2504 895.672 41.1314 894.625C41.0636 894.693 40.9957 894.76 40.9258 894.83C36.4021 899.124 29.9208 901.409 23.7347 901.292C20.3881 901.174 17.1761 900.078 14.8008 897.651C12.8504 895.46 12.194 892.776 12.3097 889.887C12.558 886.719 13.988 884.115 16.3099 881.986C19.2973 879.465 23.0172 878.035 26.7882 877.163C26.9164 877.133 27.0445 877.104 27.1766 877.073C30.3908 876.344 33.6679 876.008 36.9452 875.708C37.0392 875.699 37.1332 875.69 37.23 875.681C38.5342 875.561 39.8224 875.518 41.1314 875.539C41.123 874.527 41.1125 873.514 41.0995 872.502C41.0936 872.032 41.0882 871.562 41.0846 871.091C41.0508 866.907 40.8404 862.311 37.8839 859.024C37.7834 858.903 37.7834 858.903 37.6809 858.779C36.1599 857.075 33.5974 856.253 31.3889 856.046C26.1353 855.752 21.7544 857.266 17.577 860.452C17.1802 860.752 16.7749 861.038 16.3691 861.326C16.2293 861.178 16.0915 861.028 15.9547 860.877C15.8777 860.794 15.8008 860.711 15.7216 860.625C15.6673 860.544 15.6131 860.462 15.5572 860.378C15.7822 859.703 16.3885 859.374 16.937 858.945C17.1065 858.812 17.2754 858.679 17.4439 858.545C21.5472 855.286 26.1316 853.314 31.4303 853.314ZM38.7286 877.012C38.6185 877.025 38.5084 877.038 38.395 877.051C38.0384 877.093 37.6821 877.136 37.3257 877.18C37.2032 877.195 37.0807 877.21 36.9545 877.226C33.6897 877.629 30.468 878.184 27.3295 879.194C27.2289 879.225 27.1283 879.256 27.0246 879.289C25.03 879.915 23.0943 880.782 21.511 882.172C21.3577 882.296 21.3577 882.296 21.2012 882.423C19.4342 883.901 18.397 885.989 18.1281 888.263C17.984 891.014 18.4623 893.556 20.2932 895.708C21.8246 897.402 24.0081 898.293 26.2469 898.551C29.9853 898.736 33.4015 897.966 36.6661 896.114C36.7559 896.063 36.8456 896.013 36.9381 895.96C38.3298 895.16 39.5448 894.222 40.7255 893.136C40.7993 893.075 40.873 893.015 40.949 892.952C41.1958 892.652 41.1815 892.466 41.1802 892.08C41.1808 891.946 41.1814 891.812 41.1819 891.674C41.1805 891.528 41.179 891.381 41.1775 891.23C41.1776 891.076 41.1776 890.921 41.1777 890.762C41.1774 890.25 41.1743 889.738 41.1711 889.226C41.1703 888.871 41.1697 888.517 41.1693 888.162C41.1681 887.324 41.1647 886.485 41.1607 885.647C41.1561 884.692 41.1539 883.738 41.1519 882.783C41.1476 880.82 41.1405 878.856 41.1314 876.892C40.9406 876.891 40.7497 876.89 40.5588 876.889C40.4525 876.889 40.3463 876.888 40.2367 876.888C39.7298 876.895 39.2315 876.952 38.7286 877.012Z" fill="black"/>
<path d="M64.4097 829.52C64.4097 852.882 64.4097 876.244 64.4097 900.315C62.5343 900.315 60.6588 900.315 58.7266 900.315C58.7266 877.622 58.7266 854.93 58.7266 831.55C59.8735 831.072 61.0192 830.603 62.1771 830.154C62.333 830.093 62.4889 830.031 62.6496 829.968C62.7993 829.91 62.9489 829.852 63.1031 829.792C63.2373 829.739 63.3716 829.687 63.5098 829.633C63.8685 829.52 63.8685 829.52 64.4097 829.52Z" fill="black"/>
<path d="M109.592 840.215C109.726 840.215 109.86 840.215 109.998 840.215C109.998 844.861 109.998 849.506 109.998 854.293C115.178 854.293 120.358 854.293 125.694 854.293C125.605 854.561 125.516 854.829 125.424 855.105C125.384 855.227 125.345 855.35 125.305 855.476C125.082 855.939 124.901 856.161 124.476 856.459C123.426 856.72 122.29 856.615 121.217 856.591C120.894 856.588 120.57 856.586 120.247 856.585C119.398 856.58 118.549 856.566 117.7 856.551C116.833 856.538 115.965 856.531 115.098 856.525C113.398 856.51 111.698 856.487 109.998 856.459C110.009 860.802 110.021 865.145 110.036 869.488C110.037 870.002 110.039 870.516 110.041 871.029C110.041 871.132 110.042 871.234 110.042 871.339C110.047 872.991 110.052 874.643 110.056 876.295C110.06 877.993 110.065 879.69 110.071 881.387C110.075 882.433 110.078 883.479 110.08 884.525C110.082 885.329 110.085 886.133 110.088 886.938C110.089 887.266 110.09 887.594 110.09 887.922C110.095 892.768 110.095 892.768 112.307 896.979C113.781 898.39 115.774 898.82 117.762 898.878C120.144 898.81 122.373 898.156 124.499 897.099C124.882 896.911 125.126 896.797 125.559 896.797C126.104 897.464 126.104 897.464 126.093 897.88C125.902 898.284 125.631 898.384 125.238 898.589C125.086 898.669 124.934 898.749 124.778 898.831C124.612 898.915 124.447 898.998 124.282 899.081C124.199 899.124 124.116 899.166 124.031 899.209C120.162 901.182 115.35 902.271 111.08 900.993C110.92 900.947 110.761 900.901 110.596 900.854C108.213 900.089 106.535 898.601 105.397 896.391C104.279 893.791 104.256 891.036 104.269 888.253C104.269 887.905 104.269 887.556 104.268 887.208C104.268 886.463 104.27 885.718 104.272 884.974C104.275 883.897 104.276 882.82 104.277 881.743C104.278 879.995 104.28 878.248 104.284 876.5C104.288 874.804 104.291 873.108 104.292 871.412C104.293 871.307 104.293 871.202 104.293 871.094C104.293 870.568 104.294 870.042 104.294 869.516C104.299 865.163 104.306 860.811 104.315 856.459C101.903 856.459 99.4922 856.459 97.0078 856.459C97.0078 855.922 97.0078 855.386 97.0078 854.834C97.3264 854.675 97.5499 854.668 97.9054 854.646C98.0354 854.638 98.1654 854.63 98.2994 854.622C98.44 854.613 98.5807 854.605 98.7257 854.597C98.8694 854.588 99.0132 854.579 99.1614 854.57C99.6218 854.542 100.082 854.515 100.543 854.487C100.855 854.468 101.166 854.449 101.478 854.43C102.243 854.384 103.008 854.338 103.773 854.293C104.381 853.02 104.896 851.712 105.415 850.402C105.575 850.001 105.735 849.599 105.895 849.197C106.292 848.202 106.688 847.206 107.084 846.209C107.42 845.364 107.757 844.519 108.094 843.674C108.251 843.278 108.408 842.882 108.565 842.486C108.662 842.245 108.758 842.003 108.854 841.762C108.919 841.597 108.919 841.597 108.986 841.428C109.026 841.327 109.067 841.226 109.108 841.122C109.143 841.035 109.178 840.947 109.214 840.857C109.321 840.621 109.321 840.621 109.592 840.215Z" fill="black"/>
<path d="M91.7277 854.223C91.9906 854.228 92.2536 854.233 92.5166 854.237C93.1588 854.249 93.8005 854.268 94.4424 854.29C94.339 854.783 94.2378 854.933 93.8123 855.212C93.7086 855.282 93.6049 855.351 93.4981 855.422C93.3855 855.495 93.2729 855.569 93.1569 855.644C92.9202 855.802 92.6836 855.96 92.4471 856.118C92.3274 856.197 92.2078 856.276 92.0845 856.358C91.5763 856.698 91.0763 857.05 90.5775 857.404C90.4842 857.47 90.3909 857.536 90.2947 857.604C90.0081 857.808 89.7219 858.012 89.4358 858.216C89.3369 858.286 89.238 858.357 89.1362 858.429C87.7343 859.43 86.3536 860.455 84.9916 861.509C84.6932 861.74 84.3942 861.971 84.0951 862.201C82.1621 863.692 80.2806 865.243 78.4235 866.828C78.1918 867.026 77.9596 867.223 77.7275 867.42C76.8557 868.162 75.9974 868.916 75.1533 869.69C74.7797 870.031 74.3997 870.364 74.018 870.696C73.4688 871.177 72.9281 871.668 72.3863 872.158C73.0399 872.945 73.742 873.67 74.4667 874.392C74.5766 874.502 74.6865 874.613 74.7997 874.726C75.2828 875.209 75.7665 875.683 76.2861 876.126C77.1615 876.879 77.9561 877.723 78.767 878.544C79.5029 879.289 80.2367 880.024 81.0339 880.704C81.774 881.365 82.4578 882.092 83.1548 882.798C84.1017 883.765 84.1017 883.765 85.1015 884.675C85.9723 885.418 86.7585 886.258 87.5624 887.072C88.2983 887.817 89.0321 888.552 89.8293 889.232C90.5694 889.893 91.2532 890.62 91.9502 891.326C92.6872 892.072 93.4214 892.814 94.223 893.491C94.2954 893.554 94.3678 893.617 94.4424 893.681C94.513 893.737 94.5835 893.792 94.6562 893.85C94.9247 894.182 94.8973 894.405 94.8944 894.829C94.8944 894.981 94.8944 895.133 94.8943 895.289C94.8922 895.453 94.8901 895.616 94.888 895.785C94.8874 895.953 94.8868 896.12 94.8862 896.293C94.8844 896.739 94.8807 897.184 94.8762 897.629C94.8721 898.084 94.8702 898.538 94.8682 898.993C94.8637 899.884 94.8569 900.776 94.8483 901.668C94.15 901.564 93.8203 901.25 93.3446 900.753C93.2282 900.635 93.2282 900.635 93.1095 900.514C92.8618 900.263 92.6161 900.009 92.3704 899.756C92.1259 899.505 91.881 899.255 91.6357 899.005C91.4835 898.85 91.3317 898.695 91.1806 898.539C90.7955 898.144 90.4009 897.77 89.9836 897.409C89.448 896.946 88.9474 896.456 88.4505 895.953C88.3615 895.863 88.2725 895.774 88.1808 895.681C87.8052 895.303 87.4304 894.925 87.0555 894.546C86.7794 894.267 86.5029 893.989 86.2263 893.711C86.1436 893.627 86.0608 893.543 85.9755 893.456C85.5628 893.041 85.1428 892.643 84.6998 892.26C84.1665 891.799 83.6681 891.311 83.1733 890.809C83.0843 890.719 82.9953 890.63 82.9036 890.537C82.528 890.16 82.1531 889.781 81.7782 889.402C81.5021 889.123 81.2256 888.845 80.9491 888.567C80.8663 888.483 80.7836 888.399 80.6983 888.313C80.2861 887.898 79.8669 887.5 79.4244 887.118C78.88 886.647 78.3718 886.148 77.8665 885.635C77.7745 885.543 77.6825 885.45 77.5877 885.355C77.1991 884.964 76.8113 884.572 76.4235 884.181C76.138 883.893 75.8521 883.605 75.5662 883.317C75.4804 883.23 75.3947 883.144 75.3064 883.054C74.8007 882.545 74.2778 882.068 73.7352 881.599C73.2995 881.213 72.8922 880.8 72.4836 880.386C72.3945 880.296 72.3055 880.207 72.2138 880.114C71.8382 879.737 71.4634 879.358 71.0885 878.979C70.8124 878.7 70.5359 878.422 70.2593 878.144C70.1766 878.06 70.0938 877.976 70.0085 877.89C69.5027 877.381 68.9803 876.9 68.4359 876.433C68.067 876.11 67.7229 875.765 67.3797 875.415C67.2805 875.315 67.2805 875.315 67.1794 875.213C67.0203 875.053 66.8617 874.891 66.7031 874.73C66.9055 874.243 67.1804 873.968 67.5742 873.622C67.7563 873.462 67.7563 873.462 67.9421 873.298C68.4342 872.879 68.9359 872.472 69.4385 872.066C69.9522 871.638 70.4402 871.185 70.9317 870.733C71.4136 870.3 71.9162 869.896 72.4201 869.489C72.933 869.063 73.4195 868.611 73.9096 868.16C74.2672 867.839 74.6334 867.535 75.008 867.234C75.6573 866.711 76.2664 866.154 76.8747 865.584C77.3187 865.171 77.7719 864.779 78.2471 864.4C78.9986 863.797 79.6951 863.142 80.3924 862.479C80.9194 861.977 81.4557 861.491 82.0048 861.014C82.3935 860.675 82.7734 860.326 83.1522 859.976C83.2663 859.87 83.2663 859.87 83.3827 859.763C83.8521 859.327 84.3087 858.882 84.7569 858.425C84.9806 858.206 85.2137 858.004 85.4525 857.801C85.9943 857.333 86.5019 856.834 87.0086 856.329C87.1258 856.213 87.1258 856.213 87.2454 856.094C87.3608 855.978 87.3608 855.978 87.4785 855.86C87.5582 855.782 87.638 855.705 87.7201 855.625C87.9578 855.38 87.9578 855.38 88.1173 855.075C88.8883 853.833 90.446 854.177 91.7277 854.223Z" fill="black"/>
<path d="M145.288 859.122C145.389 859.122 145.49 859.122 145.594 859.122C147.117 859.129 148.576 859.2 150.058 859.57C150.15 859.592 150.243 859.614 150.338 859.636C153.378 860.367 155.925 861.89 158.177 864.037C158.256 864.107 158.336 864.176 158.418 864.248C160.607 866.241 161.984 869.365 162.778 872.159C162.804 872.248 162.83 872.338 162.857 872.43C164.775 879.091 164.341 887.214 161.054 893.366C160.498 894.366 159.87 895.251 159.124 896.118C159.026 896.237 158.927 896.356 158.826 896.478C155.956 899.823 151.891 901.395 147.622 901.939C146.912 901.971 146.202 901.972 145.491 901.973C145.391 901.973 145.292 901.973 145.189 901.973C143.624 901.972 142.113 901.895 140.586 901.533C140.42 901.494 140.254 901.454 140.082 901.414C137.513 900.733 135.285 899.629 133.279 897.878C133.146 897.769 133.146 897.769 133.01 897.659C129.031 894.401 127.426 888.849 126.919 883.936C126.428 878.39 127.045 872.622 129.761 867.692C129.827 867.569 129.894 867.446 129.962 867.32C132.125 863.517 135.741 860.931 139.91 859.739C140.002 859.712 140.095 859.685 140.191 859.658C141.871 859.203 143.56 859.113 145.288 859.122ZM140.992 861.465C140.844 861.501 140.697 861.537 140.544 861.575C138.697 862.083 136.916 862.943 135.444 864.172C135.311 864.284 135.178 864.395 135.04 864.51C131.273 867.761 129.653 872.779 129.25 877.617C128.876 883.683 129.451 890.485 133.619 895.27C136.269 898.185 139.941 899.862 143.866 900.067C145.82 900.132 147.747 900.11 149.652 899.638C149.743 899.615 149.834 899.593 149.928 899.57C152.059 899.02 153.904 898.048 155.606 896.66C155.728 896.566 155.728 896.566 155.853 896.47C158.586 894.332 160.119 890.551 160.849 887.26C160.89 887.079 160.89 887.079 160.931 886.894C161.362 884.825 161.476 882.777 161.467 880.67C161.466 880.548 161.466 880.427 161.466 880.302C161.447 874.665 160.194 869.216 156.24 865.018C154.384 863.241 152.126 862.103 149.652 861.465C149.485 861.422 149.318 861.378 149.146 861.333C146.533 860.769 143.584 860.802 140.992 861.465Z" fill="black"/>
<rect x="5" y="417.742" width="490" height="490" stroke="black" stroke-width="10"/>
<rect x="16.9863" y="295.837" width="490" height="490" transform="rotate(-36.1211 16.9863 295.837)" stroke="black" stroke-width="10"/>
<path d="M489.998 551.052L306.916 684.661L115.773 422.742H489.998V551.052Z" fill="black"/>
</svg>
