<svg width="707" height="922" viewBox="0 0 707 922" fill="none" xmlns="http://www.w3.org/2000/svg">
<path d="M193.133 862.744C193.435 862.744 193.736 862.741 194.037 862.738C198.038 862.723 201.809 863.692 204.729 866.559C204.822 866.649 204.915 866.739 205.011 866.831C208.481 870.432 208.67 876.021 208.677 880.712C208.677 880.971 208.678 881.229 208.679 881.487C208.681 882.038 208.683 882.59 208.684 883.141C208.686 884.014 208.689 884.887 208.693 885.759C208.703 888.24 208.711 890.72 208.718 893.2C208.721 894.574 208.726 895.947 208.732 897.32C208.736 898.187 208.738 899.054 208.74 899.921C208.741 900.46 208.743 900.999 208.746 901.539C208.747 901.788 208.747 902.037 208.747 902.286C208.697 904.706 208.697 904.706 209.6 906.897C210.488 907.766 211.491 907.876 212.684 907.869C212.825 907.867 212.965 907.864 213.11 907.862C213.326 907.86 213.326 907.86 213.547 907.858C213.9 907.855 214.253 907.851 214.607 907.845C214.607 908.068 214.607 908.292 214.607 908.522C212.069 909.788 209.481 910.785 206.623 910.011C205.098 909.44 204.313 908.519 203.58 907.089C203.153 906.121 202.953 905.102 202.835 904.055C202.767 904.122 202.699 904.19 202.629 904.259C198.105 908.554 191.624 910.839 185.438 910.722C182.091 910.603 178.879 909.507 176.504 907.081C174.554 904.889 173.897 902.206 174.013 899.317C174.261 896.148 175.691 893.545 178.013 891.415C181 888.895 184.72 887.465 188.491 886.593C188.619 886.563 188.748 886.533 188.88 886.503C192.094 885.773 195.371 885.438 198.648 885.138C198.742 885.129 198.836 885.12 198.933 885.111C200.237 884.99 201.526 884.947 202.835 884.969C202.826 883.956 202.816 882.944 202.803 881.932C202.797 881.462 202.791 880.991 202.788 880.521C202.754 876.336 202.543 871.74 199.587 868.454C199.487 868.333 199.487 868.333 199.384 868.209C197.863 866.505 195.301 865.683 193.092 865.476C187.838 865.182 183.458 866.696 179.28 869.882C178.883 870.181 178.478 870.468 178.072 870.755C177.932 870.607 177.795 870.458 177.658 870.307C177.581 870.224 177.504 870.14 177.425 870.055C177.37 869.973 177.316 869.892 177.26 869.808C177.485 869.133 178.092 868.804 178.64 868.374C178.81 868.242 178.979 868.108 179.147 867.974C183.25 864.716 187.835 862.743 193.133 862.744ZM200.432 886.442C200.322 886.454 200.212 886.467 200.098 886.48C199.742 886.522 199.385 886.566 199.029 886.61C198.906 886.625 198.784 886.64 198.658 886.655C195.393 887.059 192.171 887.614 189.033 888.623C188.932 888.655 188.831 888.686 188.728 888.718C186.733 889.344 184.797 890.211 183.214 891.601C183.061 891.726 183.061 891.726 182.904 891.853C181.137 893.331 180.1 895.418 179.831 897.693C179.687 900.443 180.165 902.985 181.996 905.138C183.528 906.832 185.711 907.723 187.95 907.98C191.688 908.166 195.105 907.395 198.369 905.544C198.459 905.493 198.549 905.442 198.641 905.39C200.033 904.59 201.248 903.651 202.429 902.566C202.502 902.505 202.576 902.444 202.652 902.382C202.899 902.081 202.885 901.896 202.883 901.51C202.884 901.376 202.884 901.242 202.885 901.104C202.884 900.958 202.882 900.811 202.881 900.66C202.881 900.505 202.881 900.351 202.881 900.192C202.881 899.68 202.877 899.168 202.874 898.656C202.873 898.301 202.873 897.947 202.872 897.592C202.871 896.754 202.868 895.915 202.864 895.077C202.859 894.122 202.857 893.168 202.855 892.213C202.851 890.249 202.844 888.286 202.835 886.322C202.644 886.321 202.453 886.32 202.262 886.319C202.156 886.319 202.049 886.318 201.94 886.317C201.433 886.325 200.935 886.381 200.432 886.442Z" fill="black"/>
<path d="M226.113 838.949C226.113 862.312 226.113 885.674 226.113 909.744C224.237 909.744 222.362 909.744 220.43 909.744C220.43 887.052 220.43 864.36 220.43 840.98C221.577 840.502 222.722 840.033 223.88 839.584C224.036 839.522 224.192 839.461 224.353 839.397C224.502 839.339 224.652 839.281 224.806 839.222C224.94 839.169 225.075 839.117 225.213 839.063C225.572 838.949 225.572 838.949 226.113 838.949Z" fill="black"/>
<path d="M271.295 849.645C271.429 849.645 271.563 849.645 271.701 849.645C271.701 854.29 271.701 858.936 271.701 863.722C276.881 863.722 282.061 863.722 287.397 863.722C287.308 863.99 287.219 864.258 287.127 864.535C287.087 864.657 287.048 864.779 287.008 864.905C286.785 865.369 286.605 865.59 286.18 865.888C285.129 866.15 283.993 866.045 282.92 866.02C282.597 866.018 282.273 866.016 281.95 866.015C281.101 866.009 280.252 865.996 279.403 865.981C278.536 865.967 277.669 865.961 276.801 865.954C275.101 865.94 273.401 865.917 271.701 865.888C271.712 870.231 271.725 874.575 271.739 878.918C271.741 879.432 271.742 879.945 271.744 880.459C271.744 880.561 271.745 880.663 271.745 880.769C271.75 882.421 271.755 884.073 271.759 885.725C271.763 887.422 271.768 889.12 271.774 890.817C271.778 891.863 271.781 892.909 271.783 893.954C271.785 894.759 271.788 895.563 271.791 896.367C271.793 896.696 271.793 897.024 271.794 897.352C271.798 902.198 271.798 902.198 274.01 906.408C275.484 907.82 277.478 908.25 279.465 908.308C281.847 908.24 284.076 907.586 286.202 906.529C286.585 906.341 286.829 906.227 287.262 906.227C287.807 906.893 287.807 906.893 287.796 907.31C287.605 907.714 287.334 907.814 286.941 908.019C286.789 908.099 286.637 908.178 286.481 908.261C286.316 908.344 286.15 908.428 285.985 908.511C285.902 908.553 285.819 908.596 285.734 908.639C281.865 910.612 277.053 911.701 272.784 910.423C272.624 910.377 272.464 910.331 272.299 910.283C269.916 909.519 268.238 908.031 267.1 905.821C265.982 903.221 265.959 900.466 265.972 897.683C265.972 897.335 265.972 896.986 265.972 896.638C265.971 895.893 265.973 895.148 265.975 894.403C265.978 893.326 265.979 892.25 265.98 891.173C265.981 889.425 265.983 887.677 265.987 885.93C265.991 884.234 265.994 882.538 265.996 880.841C265.996 880.737 265.996 880.632 265.996 880.524C265.996 879.998 265.997 879.472 265.997 878.945C266.002 874.593 266.009 870.241 266.018 865.888C263.607 865.888 261.195 865.888 258.711 865.888C258.711 865.352 258.711 864.816 258.711 864.264C259.03 864.104 259.253 864.097 259.609 864.076C259.739 864.068 259.869 864.06 260.002 864.051C260.143 864.043 260.284 864.035 260.429 864.026C260.573 864.018 260.716 864.009 260.864 864C261.325 863.972 261.785 863.944 262.246 863.917C262.558 863.898 262.869 863.879 263.181 863.86C263.946 863.814 264.711 863.768 265.477 863.722C266.084 862.45 266.599 861.142 267.119 859.832C267.278 859.43 267.438 859.029 267.598 858.627C267.995 857.631 268.391 856.635 268.787 855.639C269.123 854.794 269.46 853.948 269.797 853.103C269.954 852.708 270.111 852.312 270.268 851.916C270.365 851.674 270.461 851.433 270.557 851.191C270.623 851.026 270.623 851.026 270.689 850.858C270.73 850.757 270.77 850.656 270.812 850.552C270.846 850.464 270.881 850.377 270.917 850.287C271.024 850.051 271.024 850.051 271.295 849.645Z" fill="black"/>
<path d="M253.431 863.652C253.694 863.658 253.957 863.663 254.22 863.667C254.862 863.679 255.504 863.698 256.146 863.72C256.042 864.213 255.941 864.363 255.515 864.642C255.412 864.711 255.308 864.781 255.201 864.852C255.089 864.925 254.976 864.998 254.86 865.074C254.623 865.231 254.387 865.389 254.15 865.547C254.031 865.627 253.911 865.706 253.788 865.788C253.279 866.128 252.779 866.479 252.281 866.833C252.187 866.899 252.094 866.966 251.998 867.034C251.711 867.237 251.425 867.441 251.139 867.645C251.04 867.716 250.941 867.786 250.839 867.859C249.437 868.86 248.057 869.885 246.695 870.939C246.396 871.17 246.097 871.4 245.798 871.63C243.865 873.122 241.984 874.673 240.127 876.258C239.895 876.455 239.663 876.652 239.431 876.85C238.559 877.592 237.7 878.346 236.856 879.12C236.483 879.461 236.103 879.794 235.721 880.125C235.172 880.607 234.631 881.098 234.089 881.588C234.743 882.375 235.445 883.1 236.17 883.821C236.28 883.932 236.39 884.042 236.503 884.156C236.986 884.639 237.47 885.113 237.989 885.556C238.865 886.309 239.659 887.153 240.47 887.974C241.206 888.718 241.94 889.454 242.737 890.134C243.477 890.795 244.161 891.522 244.858 892.228C245.805 893.194 245.805 893.194 246.805 894.105C247.675 894.848 248.462 895.688 249.265 896.502C250.001 897.246 250.735 897.982 251.532 898.662C252.272 899.323 252.956 900.049 253.653 900.756C254.39 901.502 255.125 902.243 255.926 902.921C255.999 902.984 256.071 903.046 256.146 903.111C256.216 903.166 256.287 903.222 256.359 903.279C256.628 903.611 256.6 903.835 256.598 904.259C256.598 904.411 256.597 904.562 256.597 904.719C256.595 904.882 256.593 905.046 256.591 905.215C256.591 905.382 256.59 905.55 256.589 905.723C256.587 906.168 256.584 906.613 256.579 907.059C256.575 907.513 256.573 907.968 256.571 908.423C256.567 909.314 256.56 910.206 256.551 911.097C255.853 910.993 255.523 910.679 255.048 910.183C254.931 910.064 254.931 910.064 254.813 909.944C254.565 909.692 254.319 909.439 254.074 909.185C253.829 908.935 253.584 908.685 253.339 908.435C253.187 908.28 253.035 908.124 252.884 907.968C252.499 907.573 252.104 907.2 251.687 906.839C251.151 906.376 250.651 905.886 250.154 905.382C250.065 905.293 249.976 905.203 249.884 905.111C249.508 904.733 249.133 904.354 248.759 903.976C248.482 903.697 248.206 903.419 247.929 903.14C247.847 903.056 247.764 902.973 247.679 902.886C247.266 902.471 246.846 902.072 246.403 901.689C245.87 901.229 245.371 900.74 244.876 900.239C244.787 900.149 244.698 900.059 244.607 899.967C244.231 899.589 243.856 899.21 243.481 898.832C243.205 898.553 242.929 898.275 242.652 897.997C242.569 897.913 242.487 897.829 242.401 897.742C241.989 897.328 241.57 896.93 241.128 896.548C240.583 896.077 240.075 895.577 239.57 895.065C239.478 894.973 239.386 894.88 239.291 894.785C238.902 894.394 238.514 894.002 238.127 893.61C237.841 893.322 237.555 893.035 237.269 892.747C237.184 892.66 237.098 892.573 237.009 892.484C236.504 891.975 235.981 891.498 235.438 891.029C235.003 890.643 234.595 890.23 234.187 889.816C234.098 889.726 234.009 889.636 233.917 889.544C233.541 889.166 233.166 888.787 232.792 888.409C232.515 888.13 232.239 887.852 231.962 887.574C231.88 887.49 231.797 887.406 231.712 887.319C231.206 886.81 230.683 886.33 230.139 885.863C229.77 885.54 229.426 885.195 229.083 884.845C228.984 884.745 228.984 884.745 228.882 884.643C228.723 884.482 228.565 884.321 228.406 884.16C228.609 883.673 228.884 883.398 229.277 883.052C229.459 882.891 229.459 882.891 229.645 882.728C230.137 882.309 230.639 881.902 231.142 881.495C231.655 881.068 232.143 880.615 232.635 880.162C233.117 879.73 233.619 879.326 234.123 878.919C234.636 878.493 235.123 878.041 235.613 877.589C235.97 877.268 236.337 876.965 236.711 876.664C237.36 876.14 237.97 875.584 238.578 875.014C239.022 874.6 239.475 874.208 239.95 873.83C240.702 873.227 241.398 872.572 242.096 871.908C242.622 871.407 243.159 870.921 243.708 870.444C244.097 870.104 244.477 869.756 244.855 869.405C244.969 869.3 244.969 869.3 245.086 869.192C245.555 868.757 246.012 868.312 246.46 867.855C246.684 867.636 246.917 867.434 247.156 867.231C247.697 866.763 248.205 866.264 248.712 865.759C248.829 865.643 248.829 865.643 248.949 865.524C249.064 865.408 249.064 865.408 249.182 865.29C249.261 865.212 249.341 865.134 249.423 865.054C249.661 864.809 249.661 864.809 249.82 864.504C250.591 863.262 252.149 863.606 253.431 863.652Z" fill="black"/>
<path d="M306.991 868.551C307.092 868.552 307.193 868.552 307.298 868.552C308.82 868.558 310.279 868.63 311.761 869C311.853 869.022 311.946 869.043 312.041 869.066C315.081 869.797 317.628 871.32 319.88 873.467C319.96 873.536 320.039 873.606 320.121 873.677C322.31 875.671 323.687 878.795 324.481 881.589C324.507 881.678 324.533 881.767 324.56 881.859C326.478 888.521 326.044 896.643 322.757 902.795C322.201 903.795 321.573 904.68 320.827 905.548C320.729 905.667 320.63 905.785 320.529 905.908C317.66 909.253 313.594 910.824 309.326 911.369C308.616 911.401 307.905 911.402 307.194 911.402C307.095 911.403 306.995 911.403 306.892 911.403C305.328 911.401 303.816 911.325 302.289 910.963C302.123 910.923 301.957 910.884 301.786 910.844C299.216 910.163 296.988 909.059 294.982 907.308C294.849 907.199 294.849 907.199 294.713 907.088C290.734 903.831 289.129 898.278 288.623 893.365C288.132 887.82 288.748 882.051 291.464 877.122C291.531 876.999 291.597 876.876 291.666 876.749C293.828 872.946 297.444 870.361 301.613 869.169C301.706 869.142 301.799 869.115 301.894 869.087C303.574 868.633 305.263 868.543 306.991 868.551ZM302.695 870.895C302.547 870.931 302.4 870.967 302.247 871.004C300.4 871.513 298.619 872.372 297.147 873.602C297.014 873.713 296.881 873.825 296.743 873.939C292.976 877.191 291.356 882.209 290.954 887.046C290.579 893.113 291.155 899.914 295.322 904.7C297.972 907.615 301.644 909.292 305.569 909.496C307.524 909.562 309.45 909.539 311.355 909.067C311.446 909.045 311.538 909.022 311.632 908.999C313.762 908.449 315.607 907.478 317.309 906.089C317.431 905.996 317.431 905.996 317.556 905.9C320.289 903.762 321.823 899.98 322.552 896.69C322.593 896.509 322.593 896.509 322.634 896.324C323.065 894.255 323.179 892.207 323.17 890.1C323.17 889.978 323.169 889.856 323.169 889.731C323.15 884.095 321.897 878.646 317.943 874.448C316.087 872.671 313.83 871.533 311.355 870.895C311.188 870.851 311.021 870.808 310.849 870.763C308.237 870.198 305.287 870.232 302.695 870.895Z" fill="black"/>
<rect x="167" y="426.695" width="490" height="490" stroke="black" stroke-width="10"/>
<rect x="7.06489" y="368.681" width="490" height="490" transform="rotate(-47.3957 7.06489 368.681)" stroke="black" stroke-width="10"/>
<path d="M367.419 693.317L172 513.593V431.695H608.03L367.419 693.317Z" fill="black"/>
</svg>
