<svg width="785" height="838" viewBox="0 0 785 838" fill="none" xmlns="http://www.w3.org/2000/svg">
<rect x="-5" y="5" width="490" height="490" transform="matrix(-1 0 0 1 774.742 337.742)" stroke="black" stroke-width="10"/>
<rect x="-6.33486" y="3.14158" width="490" height="490" transform="matrix(-0.947644 -0.319328 -0.319328 0.947644 622.15 157.806)" stroke="black" stroke-width="10"/>
<path d="M294.744 562.585L467.545 620.814L559.562 347.742H294.744V562.585Z" fill="black"/>
<path d="M316.26 778.795C316.563 778.794 316.866 778.792 317.169 778.789C321.196 778.773 324.992 779.742 327.932 782.61C328.025 782.7 328.119 782.79 328.216 782.882C331.708 786.483 331.898 792.072 331.905 796.763C331.906 797.021 331.907 797.28 331.908 797.538C331.91 798.089 331.911 798.64 331.913 799.192C331.915 800.065 331.918 800.937 331.922 801.81C331.931 804.29 331.939 806.771 331.946 809.251C331.95 810.624 331.955 811.998 331.961 813.371C331.965 814.238 331.967 815.105 331.969 815.971C331.97 816.511 331.972 817.05 331.975 817.59C331.976 817.839 331.976 818.088 331.976 818.337C331.926 820.757 331.926 820.757 332.835 822.948C333.729 823.817 334.738 823.927 335.939 823.92C336.081 823.917 336.222 823.915 336.368 823.913C336.585 823.911 336.585 823.911 336.807 823.909C337.163 823.906 337.519 823.901 337.875 823.896C337.875 824.119 337.875 824.343 337.875 824.573C335.32 825.839 332.715 826.836 329.838 826.062C328.303 825.491 327.513 824.569 326.775 823.14C326.345 822.172 326.144 821.153 326.025 820.106C325.956 820.173 325.888 820.241 325.818 820.31C321.264 824.604 314.74 826.889 308.513 826.772C305.145 826.654 301.911 825.558 299.52 823.132C297.557 820.94 296.896 818.257 297.013 815.368C297.263 812.199 298.702 809.596 301.039 807.466C304.047 804.946 307.791 803.515 311.587 802.644C311.716 802.614 311.845 802.584 311.978 802.553C315.213 801.824 318.512 801.488 321.811 801.189C321.905 801.18 322 801.171 322.098 801.162C323.41 801.041 324.707 800.998 326.025 801.019C326.016 800.007 326.006 798.995 325.993 797.983C325.987 797.512 325.981 797.042 325.977 796.572C325.943 792.387 325.732 787.791 322.756 784.505C322.655 784.383 322.655 784.383 322.551 784.26C321.02 782.555 318.441 781.734 316.218 781.527C310.93 781.233 306.52 782.747 302.315 785.932C301.915 786.232 301.507 786.519 301.099 786.806C300.958 786.658 300.82 786.508 300.682 786.358C300.604 786.274 300.527 786.191 300.447 786.106C300.393 786.024 300.338 785.943 300.282 785.859C300.508 785.183 301.119 784.854 301.671 784.425C301.841 784.293 302.011 784.159 302.181 784.025C306.311 780.767 310.926 778.794 316.26 778.795ZM323.606 802.492C323.495 802.505 323.384 802.518 323.27 802.531C322.911 802.573 322.553 802.617 322.194 802.661C322.071 802.676 321.947 802.691 321.82 802.706C318.534 803.109 315.291 803.665 312.132 804.674C312.03 804.705 311.929 804.737 311.825 804.769C309.817 805.395 307.869 806.262 306.275 807.652C306.121 807.777 306.121 807.777 305.963 807.904C304.184 809.382 303.14 811.469 302.87 813.744C302.725 816.494 303.206 819.036 305.049 821.189C306.591 822.883 308.788 823.774 311.042 824.031C314.805 824.217 318.244 823.446 321.53 821.595C321.62 821.544 321.711 821.493 321.804 821.441C323.205 820.641 324.427 819.702 325.616 818.617C325.69 818.556 325.765 818.495 325.841 818.432C326.089 818.132 326.075 817.946 326.074 817.56C326.074 817.427 326.075 817.293 326.075 817.155C326.074 817.008 326.073 816.862 326.071 816.711C326.071 816.556 326.071 816.402 326.071 816.242C326.071 815.73 326.068 815.218 326.065 814.706C326.064 814.352 326.063 813.997 326.063 813.643C326.062 812.804 326.058 811.966 326.054 811.128C326.049 810.173 326.047 809.218 326.045 808.264C326.041 806.3 326.034 804.337 326.025 802.373C325.833 802.372 325.64 802.371 325.448 802.37C325.341 802.369 325.234 802.369 325.124 802.368C324.614 802.376 324.112 802.432 323.606 802.492Z" fill="black"/>
<path d="M349.455 755C349.455 778.362 349.455 801.725 349.455 825.795C347.567 825.795 345.679 825.795 343.734 825.795C343.734 803.103 343.734 780.41 343.734 757.03C344.889 756.552 346.042 756.084 347.208 755.635C347.365 755.573 347.522 755.512 347.683 755.448C347.834 755.39 347.985 755.332 348.14 755.272C348.275 755.22 348.41 755.168 348.549 755.114C348.91 755 348.91 755 349.455 755Z" fill="black"/>
<path d="M394.933 765.695C395.068 765.695 395.202 765.695 395.341 765.695C395.341 770.341 395.341 774.987 395.341 779.773C400.555 779.773 405.769 779.773 411.141 779.773C411.051 780.041 410.961 780.309 410.869 780.585C410.829 780.708 410.79 780.83 410.749 780.956C410.524 781.42 410.343 781.641 409.915 781.939C408.858 782.2 407.714 782.096 406.634 782.071C406.309 782.069 405.983 782.067 405.658 782.065C404.803 782.06 403.949 782.047 403.094 782.032C402.221 782.018 401.348 782.012 400.475 782.005C398.764 781.991 397.053 781.968 395.341 781.939C395.353 786.282 395.365 790.625 395.379 794.969C395.381 795.482 395.383 795.996 395.385 796.51C395.385 796.612 395.385 796.714 395.386 796.82C395.391 798.472 395.395 800.124 395.4 801.776C395.404 803.473 395.409 805.17 395.415 806.868C395.419 807.913 395.422 808.959 395.424 810.005C395.426 810.81 395.429 811.614 395.432 812.418C395.433 812.746 395.434 813.075 395.435 813.403C395.439 818.249 395.439 818.249 397.665 822.459C399.149 823.871 401.156 824.301 403.156 824.359C405.554 824.291 407.798 823.636 409.938 822.58C410.323 822.391 410.569 822.277 411.005 822.277C411.554 822.944 411.554 822.944 411.542 823.36C411.35 823.765 411.078 823.865 410.682 824.07C410.529 824.15 410.376 824.229 410.218 824.311C410.052 824.395 409.886 824.478 409.72 824.562C409.636 824.604 409.553 824.646 409.467 824.69C405.572 826.663 400.728 827.751 396.431 826.474C396.27 826.428 396.109 826.382 395.943 826.334C393.545 825.57 391.855 824.081 390.71 821.871C389.585 819.272 389.561 816.517 389.574 813.734C389.574 813.385 389.574 813.037 389.574 812.688C389.574 811.944 389.575 811.199 389.578 810.454C389.581 809.377 389.582 808.3 389.582 807.224C389.583 805.476 389.586 803.728 389.59 801.98C389.594 800.284 389.597 798.588 389.598 796.892C389.598 796.787 389.598 796.683 389.599 796.575C389.599 796.048 389.6 795.522 389.6 794.996C389.604 790.644 389.612 786.291 389.621 781.939C387.194 781.939 384.766 781.939 382.266 781.939C382.266 781.403 382.266 780.867 382.266 780.315C382.586 780.155 382.811 780.148 383.169 780.127C383.3 780.118 383.431 780.11 383.566 780.102C383.707 780.094 383.849 780.086 383.995 780.077C384.14 780.068 384.284 780.06 384.433 780.05C384.897 780.022 385.36 779.995 385.824 779.968C386.138 779.949 386.451 779.93 386.765 779.911C387.535 779.864 388.306 779.819 389.076 779.773C389.687 778.501 390.205 777.193 390.729 775.883C390.889 775.481 391.05 775.079 391.211 774.678C391.611 773.682 392.01 772.686 392.408 771.69C392.747 770.845 393.085 769.999 393.424 769.154C393.583 768.759 393.741 768.363 393.899 767.967C393.996 767.725 394.093 767.484 394.19 767.242C394.256 767.077 394.256 767.077 394.323 766.909C394.363 766.808 394.404 766.707 394.446 766.603C394.481 766.515 394.516 766.428 394.552 766.337C394.66 766.101 394.66 766.101 394.933 765.695Z" fill="black"/>
<path d="M376.955 779.703C377.22 779.708 377.485 779.713 377.749 779.718C378.396 779.73 379.042 779.748 379.688 779.771C379.584 780.263 379.482 780.414 379.054 780.693C378.949 780.762 378.845 780.831 378.737 780.903C378.624 780.976 378.511 781.049 378.394 781.124C378.156 781.282 377.917 781.44 377.679 781.598C377.559 781.678 377.438 781.757 377.314 781.839C376.803 782.179 376.299 782.53 375.797 782.884C375.703 782.95 375.61 783.016 375.513 783.085C375.224 783.288 374.936 783.492 374.648 783.696C374.549 783.767 374.449 783.837 374.347 783.91C372.935 784.911 371.546 785.936 370.175 786.99C369.874 787.221 369.573 787.451 369.272 787.681C367.327 789.172 365.433 790.724 363.563 792.308C363.33 792.506 363.096 792.703 362.863 792.9C361.985 793.643 361.121 794.396 360.272 795.17C359.895 795.511 359.513 795.844 359.129 796.176C358.576 796.658 358.032 797.149 357.486 797.639C358.144 798.426 358.851 799.151 359.58 799.872C359.691 799.983 359.802 800.093 359.916 800.207C360.402 800.689 360.889 801.163 361.412 801.607C362.293 802.36 363.093 803.203 363.909 804.025C364.65 804.769 365.388 805.505 366.191 806.184C366.936 806.846 367.624 807.572 368.326 808.279C369.279 809.245 369.279 809.245 370.285 810.156C371.162 810.899 371.953 811.738 372.762 812.552C373.503 813.297 374.242 814.033 375.044 814.712C375.789 815.374 376.477 816.1 377.179 816.807C377.921 817.553 378.66 818.294 379.467 818.972C379.54 819.034 379.613 819.097 379.688 819.162C379.759 819.217 379.83 819.273 379.903 819.33C380.173 819.662 380.146 819.886 380.143 820.31C380.143 820.461 380.143 820.613 380.143 820.769C380.141 820.933 380.138 821.097 380.136 821.266C380.136 821.433 380.135 821.601 380.135 821.774C380.133 822.219 380.129 822.664 380.124 823.11C380.12 823.564 380.118 824.019 380.116 824.473C380.112 825.365 380.105 826.256 380.096 827.148C379.393 827.044 379.062 826.73 378.583 826.233C378.466 826.115 378.466 826.115 378.346 825.995C378.097 825.743 377.849 825.49 377.602 825.236C377.356 824.986 377.109 824.736 376.863 824.486C376.709 824.331 376.557 824.175 376.404 824.019C376.017 823.624 375.62 823.25 375.2 822.89C374.66 822.427 374.157 821.937 373.656 821.433C373.567 821.344 373.477 821.254 373.385 821.162C373.007 820.784 372.629 820.405 372.252 820.026C371.974 819.748 371.696 819.469 371.418 819.191C371.334 819.107 371.251 819.023 371.165 818.937C370.75 818.522 370.327 818.123 369.881 817.74C369.344 817.279 368.842 816.791 368.344 816.289C368.255 816.2 368.165 816.11 368.073 816.018C367.695 815.64 367.317 815.261 366.94 814.882C366.662 814.604 366.384 814.326 366.106 814.047C366.022 813.963 365.939 813.88 365.853 813.793C365.438 813.378 365.016 812.981 364.571 812.598C364.023 812.128 363.511 811.628 363.003 811.116C362.91 811.023 362.817 810.931 362.722 810.835C362.331 810.445 361.94 810.053 361.55 809.661C361.263 809.373 360.975 809.085 360.687 808.798C360.601 808.711 360.514 808.624 360.426 808.535C359.917 808.026 359.39 807.548 358.844 807.08C358.406 806.693 357.995 806.281 357.584 805.866C357.495 805.777 357.405 805.687 357.313 805.595C356.935 805.217 356.557 804.838 356.18 804.459C355.902 804.181 355.624 803.903 355.345 803.624C355.262 803.54 355.179 803.457 355.093 803.37C354.584 802.861 354.058 802.381 353.51 801.913C353.139 801.591 352.792 801.246 352.447 800.896C352.347 800.796 352.347 800.796 352.245 800.694C352.085 800.533 351.925 800.372 351.766 800.211C351.969 799.724 352.246 799.448 352.642 799.102C352.826 798.942 352.826 798.942 353.013 798.779C353.508 798.359 354.013 797.953 354.519 797.546C355.036 797.119 355.527 796.666 356.022 796.213C356.507 795.78 357.013 795.376 357.52 794.97C358.037 794.544 358.526 794.092 359.02 793.64C359.38 793.319 359.748 793.016 360.125 792.715C360.779 792.191 361.392 791.635 362.004 791.065C362.451 790.651 362.907 790.259 363.386 789.881C364.142 789.278 364.843 788.623 365.545 787.959C366.076 787.458 366.615 786.972 367.168 786.495C367.559 786.155 367.942 785.807 368.323 785.456C368.438 785.351 368.438 785.351 368.555 785.243C369.028 784.808 369.487 784.363 369.938 783.906C370.164 783.686 370.398 783.484 370.639 783.282C371.184 782.814 371.695 782.315 372.205 781.81C372.323 781.693 372.323 781.693 372.443 781.575C372.559 781.459 372.559 781.459 372.678 781.341C372.758 781.263 372.838 781.185 372.921 781.105C373.16 780.86 373.16 780.86 373.321 780.555C374.097 779.313 375.665 779.657 376.955 779.703Z" fill="black"/>
<path d="M430.871 784.602C430.973 784.602 431.075 784.603 431.179 784.603C432.712 784.609 434.181 784.681 435.673 785.051C435.765 785.072 435.858 785.094 435.954 785.117C439.015 785.848 441.578 787.371 443.845 789.518C443.925 789.587 444.005 789.656 444.087 789.728C446.291 791.722 447.677 794.846 448.476 797.639C448.502 797.729 448.528 797.818 448.555 797.91C450.486 804.571 450.049 812.694 446.741 818.846C446.181 819.846 445.549 820.731 444.798 821.599C444.699 821.717 444.6 821.836 444.498 821.958C441.61 825.304 437.518 826.875 433.221 827.419C432.506 827.452 431.791 827.453 431.076 827.453C430.975 827.453 430.875 827.453 430.771 827.454C429.197 827.452 427.675 827.375 426.138 827.013C425.971 826.974 425.803 826.935 425.631 826.894C423.044 826.214 420.802 825.109 418.783 823.358C418.649 823.25 418.649 823.25 418.512 823.139C414.506 819.882 412.891 814.329 412.381 809.416C411.887 803.871 412.508 798.102 415.242 793.172C415.309 793.05 415.375 792.927 415.444 792.8C417.621 788.997 421.261 786.412 425.457 785.22C425.551 785.193 425.644 785.166 425.741 785.138C427.431 784.684 429.131 784.593 430.871 784.602ZM426.547 786.946C426.398 786.982 426.249 787.018 426.096 787.055C424.237 787.564 422.444 788.423 420.962 789.653C420.828 789.764 420.694 789.876 420.556 789.99C416.764 793.242 415.133 798.26 414.728 803.097C414.351 809.163 414.93 815.965 419.125 820.75C421.793 823.666 425.489 825.343 429.44 825.547C431.407 825.612 433.346 825.59 435.264 825.118C435.356 825.096 435.447 825.073 435.542 825.05C437.686 824.5 439.544 823.529 441.257 822.14C441.38 822.046 441.38 822.046 441.505 821.951C444.257 819.812 445.8 816.031 446.535 812.741C446.576 812.56 446.576 812.56 446.617 812.375C447.051 810.306 447.165 808.258 447.156 806.15C447.156 806.029 447.156 805.907 447.156 805.782C447.136 800.146 445.875 794.696 441.895 790.499C440.027 788.722 437.755 787.583 435.264 786.946C435.096 786.902 434.928 786.859 434.755 786.814C432.125 786.249 429.156 786.282 426.547 786.946Z" fill="black"/>
</svg>
