<svg width="913" height="709" viewBox="0 0 913 709" fill="none" xmlns="http://www.w3.org/2000/svg">
<rect x="417.719" y="703.633" width="490" height="490" transform="rotate(-89.996 417.719 703.633)" stroke="black" stroke-width="10"/>
<rect x="295.811" y="691.639" width="490" height="490" transform="rotate(-126.117 295.811 691.639)" stroke="black" stroke-width="10"/>
<path d="M551.07 218.644L684.667 401.735L422.734 592.859L422.76 218.635L551.07 218.644Z" fill="black"/>
<path d="M449.26 643.795C449.563 643.794 449.866 643.792 450.169 643.789C454.196 643.773 457.992 644.742 460.932 647.61C461.025 647.7 461.119 647.79 461.216 647.882C464.708 651.483 464.898 657.072 464.905 661.763C464.906 662.021 464.907 662.28 464.908 662.538C464.91 663.089 464.911 663.64 464.913 664.192C464.915 665.065 464.918 665.937 464.922 666.81C464.931 669.29 464.939 671.771 464.946 674.251C464.95 675.624 464.955 676.998 464.961 678.371C464.965 679.238 464.967 680.105 464.969 680.971C464.97 681.511 464.972 682.05 464.975 682.59C464.976 682.839 464.976 683.088 464.976 683.337C464.926 685.757 464.926 685.757 465.835 687.948C466.729 688.817 467.738 688.927 468.939 688.92C469.081 688.917 469.222 688.915 469.368 688.913C469.585 688.911 469.585 688.911 469.807 688.909C470.163 688.906 470.519 688.901 470.875 688.896C470.875 689.119 470.875 689.343 470.875 689.573C468.32 690.839 465.715 691.836 462.838 691.062C461.303 690.491 460.513 689.569 459.775 688.14C459.345 687.172 459.144 686.153 459.025 685.106C458.956 685.173 458.888 685.241 458.818 685.31C454.264 689.604 447.74 691.889 441.513 691.772C438.145 691.654 434.911 690.558 432.52 688.132C430.557 685.94 429.896 683.257 430.013 680.368C430.263 677.199 431.702 674.596 434.039 672.466C437.047 669.946 440.791 668.515 444.587 667.644C444.716 667.614 444.845 667.584 444.978 667.553C448.213 666.824 451.512 666.488 454.811 666.189C454.905 666.18 455 666.171 455.098 666.162C456.41 666.041 457.707 665.998 459.025 666.019C459.016 665.007 459.006 663.995 458.993 662.983C458.987 662.512 458.981 662.042 458.977 661.572C458.943 657.387 458.732 652.791 455.756 649.505C455.655 649.383 455.655 649.383 455.551 649.26C454.02 647.555 451.441 646.734 449.218 646.527C443.93 646.233 439.52 647.747 435.315 650.932C434.915 651.232 434.507 651.519 434.099 651.806C433.958 651.658 433.82 651.508 433.682 651.358C433.604 651.274 433.527 651.191 433.447 651.106C433.393 651.024 433.338 650.943 433.282 650.859C433.508 650.183 434.119 649.854 434.671 649.425C434.841 649.293 435.011 649.159 435.181 649.025C439.311 645.767 443.926 643.794 449.26 643.795ZM456.606 667.492C456.495 667.505 456.384 667.518 456.27 667.531C455.911 667.573 455.553 667.617 455.194 667.661C455.071 667.676 454.947 667.691 454.82 667.706C451.534 668.109 448.291 668.665 445.132 669.674C445.03 669.705 444.929 669.737 444.825 669.769C442.817 670.395 440.869 671.262 439.275 672.652C439.121 672.777 439.121 672.777 438.963 672.904C437.184 674.382 436.14 676.469 435.87 678.744C435.725 681.494 436.206 684.036 438.049 686.189C439.591 687.883 441.788 688.774 444.042 689.031C447.805 689.217 451.244 688.446 454.53 686.595C454.62 686.544 454.711 686.493 454.804 686.441C456.205 685.641 457.427 684.702 458.616 683.617C458.69 683.556 458.765 683.495 458.841 683.432C459.089 683.132 459.075 682.946 459.074 682.56C459.074 682.427 459.075 682.293 459.075 682.155C459.074 682.008 459.073 681.862 459.071 681.711C459.071 681.556 459.071 681.402 459.071 681.242C459.071 680.73 459.068 680.218 459.065 679.706C459.064 679.352 459.063 678.997 459.063 678.643C459.062 677.804 459.058 676.966 459.054 676.128C459.049 675.173 459.047 674.218 459.045 673.264C459.041 671.3 459.034 669.337 459.025 667.373C458.833 667.372 458.64 667.371 458.448 667.37C458.341 667.369 458.234 667.369 458.124 667.368C457.614 667.376 457.112 667.432 456.606 667.492Z" fill="black"/>
<path d="M482.455 620C482.455 643.362 482.455 666.725 482.455 690.795C480.567 690.795 478.679 690.795 476.734 690.795C476.734 668.103 476.734 645.41 476.734 622.03C477.889 621.552 479.042 621.084 480.208 620.635C480.365 620.573 480.522 620.512 480.683 620.448C480.834 620.39 480.985 620.332 481.14 620.272C481.275 620.22 481.41 620.168 481.549 620.114C481.91 620 481.91 620 482.455 620Z" fill="black"/>
<path d="M527.933 630.695C528.068 630.695 528.202 630.695 528.341 630.695C528.341 635.341 528.341 639.987 528.341 644.773C533.555 644.773 538.769 644.773 544.141 644.773C544.051 645.041 543.961 645.309 543.869 645.585C543.829 645.708 543.79 645.83 543.749 645.956C543.524 646.42 543.343 646.641 542.915 646.939C541.858 647.2 540.714 647.096 539.634 647.071C539.309 647.069 538.983 647.067 538.658 647.065C537.803 647.06 536.949 647.047 536.094 647.032C535.221 647.018 534.348 647.012 533.475 647.005C531.764 646.991 530.053 646.968 528.341 646.939C528.353 651.282 528.365 655.625 528.379 659.969C528.381 660.482 528.383 660.996 528.385 661.51C528.385 661.612 528.385 661.714 528.386 661.82C528.391 663.472 528.395 665.124 528.4 666.776C528.404 668.473 528.409 670.17 528.415 671.868C528.419 672.913 528.422 673.959 528.424 675.005C528.426 675.81 528.429 676.614 528.432 677.418C528.433 677.746 528.434 678.075 528.435 678.403C528.439 683.249 528.439 683.249 530.665 687.459C532.149 688.871 534.156 689.301 536.156 689.359C538.554 689.291 540.798 688.636 542.938 687.58C543.323 687.391 543.569 687.277 544.005 687.277C544.554 687.944 544.554 687.944 544.542 688.36C544.35 688.765 544.078 688.865 543.682 689.07C543.529 689.15 543.376 689.229 543.218 689.311C543.052 689.395 542.886 689.478 542.72 689.562C542.636 689.604 542.553 689.646 542.467 689.69C538.572 691.663 533.728 692.751 529.431 691.474C529.27 691.428 529.109 691.382 528.943 691.334C526.545 690.57 524.855 689.081 523.71 686.871C522.585 684.272 522.561 681.517 522.574 678.734C522.574 678.385 522.574 678.037 522.574 677.688C522.574 676.944 522.575 676.199 522.578 675.454C522.581 674.377 522.582 673.3 522.582 672.224C522.583 670.476 522.586 668.728 522.59 666.98C522.594 665.284 522.597 663.588 522.598 661.892C522.598 661.787 522.598 661.683 522.599 661.575C522.599 661.048 522.6 660.522 522.6 659.996C522.604 655.644 522.612 651.291 522.621 646.939C520.194 646.939 517.766 646.939 515.266 646.939C515.266 646.403 515.266 645.867 515.266 645.315C515.586 645.155 515.811 645.148 516.169 645.127C516.3 645.118 516.431 645.11 516.566 645.102C516.707 645.094 516.849 645.086 516.995 645.077C517.14 645.068 517.284 645.06 517.433 645.05C517.897 645.022 518.36 644.995 518.824 644.968C519.138 644.949 519.451 644.93 519.765 644.911C520.535 644.864 521.306 644.819 522.076 644.773C522.687 643.501 523.205 642.193 523.729 640.883C523.889 640.481 524.05 640.079 524.211 639.678C524.611 638.682 525.01 637.686 525.408 636.69C525.747 635.845 526.085 634.999 526.424 634.154C526.583 633.759 526.741 633.363 526.899 632.967C526.996 632.725 527.093 632.484 527.19 632.242C527.256 632.077 527.256 632.077 527.323 631.909C527.363 631.808 527.404 631.707 527.446 631.603C527.481 631.515 527.516 631.428 527.552 631.337C527.66 631.101 527.66 631.101 527.933 630.695Z" fill="black"/>
<path d="M509.955 644.703C510.22 644.708 510.485 644.713 510.749 644.718C511.396 644.73 512.042 644.748 512.688 644.771C512.584 645.263 512.482 645.414 512.054 645.693C511.949 645.762 511.845 645.831 511.737 645.903C511.624 645.976 511.511 646.049 511.394 646.124C511.156 646.282 510.917 646.44 510.679 646.598C510.559 646.678 510.438 646.757 510.314 646.839C509.803 647.179 509.299 647.53 508.797 647.884C508.703 647.95 508.61 648.016 508.513 648.085C508.224 648.288 507.936 648.492 507.648 648.696C507.549 648.767 507.449 648.837 507.347 648.91C505.935 649.911 504.546 650.936 503.175 651.99C502.874 652.221 502.573 652.451 502.272 652.681C500.327 654.172 498.433 655.724 496.563 657.308C496.33 657.506 496.096 657.703 495.863 657.9C494.985 658.643 494.121 659.396 493.272 660.17C492.895 660.511 492.513 660.844 492.129 661.176C491.576 661.658 491.032 662.149 490.486 662.639C491.144 663.426 491.851 664.151 492.58 664.872C492.691 664.983 492.802 665.093 492.916 665.207C493.402 665.689 493.889 666.163 494.412 666.607C495.293 667.36 496.093 668.203 496.909 669.025C497.65 669.769 498.388 670.505 499.191 671.184C499.936 671.846 500.624 672.572 501.326 673.279C502.279 674.245 502.279 674.245 503.285 675.156C504.162 675.899 504.953 676.738 505.762 677.552C506.503 678.297 507.242 679.033 508.044 679.712C508.789 680.374 509.477 681.1 510.179 681.807C510.921 682.553 511.66 683.294 512.467 683.972C512.54 684.034 512.613 684.097 512.688 684.162C512.759 684.217 512.83 684.273 512.903 684.33C513.173 684.662 513.146 684.886 513.143 685.31C513.143 685.461 513.143 685.613 513.143 685.769C513.141 685.933 513.138 686.097 513.136 686.266C513.136 686.433 513.135 686.601 513.135 686.774C513.133 687.219 513.129 687.664 513.124 688.11C513.12 688.564 513.118 689.019 513.116 689.473C513.112 690.365 513.105 691.256 513.096 692.148C512.393 692.044 512.062 691.73 511.583 691.233C511.466 691.115 511.466 691.115 511.346 690.995C511.097 690.743 510.849 690.49 510.602 690.236C510.356 689.986 510.109 689.736 509.863 689.486C509.709 689.331 509.557 689.175 509.404 689.019C509.017 688.624 508.62 688.25 508.2 687.89C507.66 687.427 507.157 686.937 506.656 686.433C506.567 686.344 506.477 686.254 506.385 686.162C506.007 685.784 505.629 685.405 505.252 685.026C504.974 684.748 504.696 684.469 504.418 684.191C504.334 684.107 504.251 684.023 504.165 683.937C503.75 683.522 503.327 683.123 502.881 682.74C502.344 682.279 501.842 681.791 501.344 681.289C501.255 681.2 501.165 681.11 501.073 681.018C500.695 680.64 500.317 680.261 499.94 679.882C499.662 679.604 499.384 679.326 499.106 679.047C499.022 678.963 498.939 678.88 498.853 678.793C498.438 678.378 498.016 677.981 497.571 677.598C497.023 677.128 496.511 676.628 496.003 676.116C495.91 676.023 495.817 675.931 495.722 675.835C495.331 675.445 494.94 675.053 494.55 674.661C494.263 674.373 493.975 674.085 493.687 673.798C493.601 673.711 493.514 673.624 493.426 673.535C492.917 673.026 492.39 672.548 491.844 672.08C491.406 671.693 490.995 671.281 490.584 670.866C490.495 670.777 490.405 670.687 490.313 670.595C489.935 670.217 489.557 669.838 489.18 669.459C488.902 669.181 488.624 668.903 488.345 668.624C488.262 668.54 488.179 668.457 488.093 668.37C487.584 667.861 487.058 667.381 486.51 666.913C486.139 666.591 485.792 666.246 485.447 665.896C485.347 665.796 485.347 665.796 485.245 665.694C485.085 665.533 484.925 665.372 484.766 665.211C484.969 664.724 485.246 664.448 485.642 664.102C485.826 663.942 485.826 663.942 486.013 663.779C486.508 663.359 487.013 662.953 487.519 662.546C488.036 662.119 488.527 661.666 489.022 661.213C489.507 660.78 490.013 660.376 490.52 659.97C491.037 659.544 491.526 659.092 492.02 658.64C492.38 658.319 492.748 658.016 493.125 657.715C493.779 657.191 494.392 656.635 495.004 656.065C495.451 655.651 495.907 655.259 496.386 654.881C497.142 654.278 497.843 653.623 498.545 652.959C499.076 652.458 499.615 651.972 500.168 651.495C500.559 651.155 500.942 650.807 501.323 650.456C501.438 650.351 501.438 650.351 501.555 650.243C502.028 649.808 502.487 649.363 502.938 648.906C503.164 648.686 503.398 648.484 503.639 648.282C504.184 647.814 504.695 647.315 505.205 646.81C505.323 646.693 505.323 646.693 505.443 646.575C505.559 646.459 505.559 646.459 505.678 646.341C505.758 646.263 505.838 646.185 505.921 646.105C506.16 645.86 506.16 645.86 506.321 645.555C507.097 644.313 508.665 644.657 509.955 644.703Z" fill="black"/>
<path d="M563.871 649.602C563.973 649.602 564.075 649.603 564.179 649.603C565.712 649.609 567.181 649.681 568.673 650.051C568.765 650.072 568.858 650.094 568.954 650.117C572.015 650.848 574.578 652.371 576.845 654.518C576.925 654.587 577.005 654.656 577.087 654.728C579.291 656.722 580.677 659.846 581.476 662.639C581.502 662.729 581.528 662.818 581.555 662.91C583.486 669.571 583.049 677.694 579.741 683.846C579.181 684.846 578.549 685.731 577.798 686.599C577.699 686.717 577.6 686.836 577.498 686.958C574.61 690.304 570.518 691.875 566.221 692.419C565.506 692.452 564.791 692.453 564.076 692.453C563.975 692.453 563.875 692.453 563.771 692.454C562.197 692.452 560.675 692.375 559.138 692.013C558.971 691.974 558.803 691.935 558.631 691.894C556.044 691.214 553.802 690.109 551.783 688.358C551.649 688.25 551.649 688.25 551.512 688.139C547.506 684.882 545.891 679.329 545.381 674.416C544.887 668.871 545.508 663.102 548.242 658.172C548.309 658.05 548.375 657.927 548.444 657.8C550.621 653.997 554.261 651.412 558.457 650.22C558.551 650.193 558.644 650.166 558.741 650.138C560.431 649.684 562.131 649.593 563.871 649.602ZM559.547 651.946C559.398 651.982 559.249 652.018 559.096 652.055C557.237 652.564 555.444 653.423 553.962 654.653C553.828 654.764 553.694 654.876 553.556 654.99C549.764 658.242 548.133 663.26 547.728 668.097C547.351 674.163 547.93 680.965 552.125 685.75C554.793 688.666 558.489 690.343 562.44 690.547C564.407 690.612 566.346 690.59 568.264 690.118C568.356 690.096 568.447 690.073 568.542 690.05C570.686 689.5 572.544 688.529 574.257 687.14C574.38 687.046 574.38 687.046 574.505 686.951C577.257 684.812 578.8 681.031 579.535 677.741C579.576 677.56 579.576 677.56 579.617 677.375C580.051 675.306 580.165 673.258 580.156 671.15C580.156 671.029 580.156 670.907 580.156 670.782C580.136 665.146 578.875 659.696 574.895 655.499C573.027 653.722 570.755 652.583 568.264 651.946C568.096 651.902 567.928 651.859 567.755 651.814C565.125 651.249 562.156 651.282 559.547 651.946Z" fill="black"/>
</svg>
