<svg width="922" height="707" viewBox="0 0 922 707" fill="none" xmlns="http://www.w3.org/2000/svg">
<rect x="425.31" y="539.708" width="490" height="490" transform="rotate(-89.8546 425.31 539.708)" stroke="black" stroke-width="10"/>
<rect x="366.886" y="699.493" width="490" height="490" transform="rotate(-137.25 366.886 699.493)" stroke="black" stroke-width="10"/>
<path d="M692.438 339.967L575.345 466.638V457.693H574.937C574.664 458.099 574.664 458.1 574.556 458.336C574.52 458.426 574.485 458.513 574.45 458.601C574.408 458.705 574.367 458.805 574.326 458.906C574.259 459.075 574.259 459.075 574.193 459.24C574.096 459.482 574 459.723 573.903 459.965C573.745 460.361 573.586 460.757 573.428 461.152C573.089 461.997 572.75 462.843 572.412 463.688C572.014 464.684 571.614 465.68 571.215 466.676C571.054 467.077 570.893 467.479 570.732 467.881C570.209 469.191 569.691 470.499 569.08 471.771C568.31 471.817 567.539 471.863 566.769 471.909C566.455 471.928 566.142 471.947 565.828 471.966C565.365 471.993 564.901 472.021 564.438 472.049C564.288 472.058 564.143 472.066 563.998 472.075C563.852 472.084 563.711 472.091 563.569 472.1C563.435 472.108 563.304 472.117 563.173 472.125C562.815 472.146 562.59 472.153 562.27 472.312V473.938H568.597L546.188 498.18C545.386 497.501 544.648 496.766 543.908 496.022C543.092 495.201 542.292 494.358 541.411 493.604C540.888 493.161 540.401 492.688 539.915 492.205L539.037 491.327C538.5 490.782 537.979 490.227 537.485 489.637C538.031 489.147 538.575 488.655 539.128 488.174C539.512 487.842 539.895 487.51 540.271 487.169C541.12 486.395 541.985 485.641 542.862 484.898C543.096 484.701 543.329 484.504 543.562 484.307C545.432 482.722 547.326 481.17 549.271 479.679C549.572 479.449 549.874 479.219 550.174 478.988C551.545 477.934 552.935 476.909 554.346 475.908C554.448 475.836 554.548 475.765 554.647 475.694C554.935 475.49 555.223 475.286 555.512 475.083C555.608 475.015 555.703 474.948 555.797 474.882C556.299 474.528 556.802 474.177 557.313 473.837C557.438 473.755 557.558 473.675 557.679 473.596C557.917 473.438 558.155 473.28 558.394 473.122C558.51 473.047 558.623 472.973 558.736 472.9C558.844 472.829 558.948 472.761 559.053 472.691C559.481 472.412 559.583 472.261 559.688 471.769C559.041 471.746 558.394 471.728 557.748 471.716C557.483 471.711 557.219 471.707 556.954 471.701C555.664 471.655 554.096 471.311 553.32 472.553C553.16 472.858 553.16 472.859 552.921 473.104C552.838 473.184 552.757 473.261 552.677 473.339C552.559 473.457 552.558 473.457 552.442 473.572C552.322 473.691 552.322 473.691 552.204 473.808C551.694 474.313 551.183 474.811 550.638 475.279C550.397 475.482 550.163 475.684 549.938 475.903C549.486 476.36 549.027 476.806 548.555 477.241C548.437 477.349 548.437 477.349 548.322 477.454C547.941 477.805 547.558 478.154 547.167 478.493C546.614 478.97 546.074 479.456 545.544 479.957C544.842 480.621 544.141 481.276 543.385 481.879C542.907 482.257 542.451 482.649 542.004 483.062C541.392 483.633 540.778 484.189 540.124 484.713C539.747 485.014 539.378 485.318 539.019 485.639C538.525 486.09 538.036 486.542 537.52 486.968C537.012 487.374 536.507 487.778 536.021 488.211C535.527 488.663 535.036 489.117 534.519 489.544C534.013 489.951 533.507 490.357 533.012 490.776C532.825 490.94 532.825 490.94 532.642 491.101C532.245 491.447 531.968 491.722 531.765 492.209C531.924 492.37 532.084 492.531 532.244 492.691C532.346 492.794 532.347 492.793 532.446 492.894C532.792 493.243 533.138 493.588 533.509 493.911C534.057 494.378 534.583 494.859 535.092 495.368C535.178 495.455 535.261 495.538 535.345 495.622C535.623 495.9 535.901 496.179 536.179 496.458C536.556 496.837 536.934 497.215 537.312 497.593C537.404 497.685 537.494 497.775 537.583 497.864C537.994 498.279 538.405 498.691 538.844 499.077C539.39 499.546 539.916 500.024 540.425 500.532C540.514 500.622 540.6 500.709 540.687 500.796C540.974 501.083 541.262 501.371 541.55 501.659C541.796 501.906 542.041 502.152 542.287 502.398L529.456 516.28V446.998C528.912 446.998 528.911 446.998 528.551 447.111C528.412 447.165 528.277 447.218 528.142 447.271C527.986 447.33 527.835 447.388 527.685 447.446C527.523 447.51 527.366 447.571 527.209 447.633C526.044 448.082 524.89 448.55 523.735 449.028V517.793H528.058L512.218 534.929L430.32 534.721L431.427 98.6914L692.438 339.967ZM611.176 476.601C612.708 476.607 614.177 476.679 615.669 477.049C615.762 477.071 615.855 477.092 615.95 477.114C619.011 477.846 621.575 479.369 623.842 481.516C623.922 481.585 624.002 481.654 624.084 481.726C626.288 483.72 627.674 486.844 628.473 489.638C628.499 489.727 628.525 489.816 628.552 489.908C630.482 496.569 630.046 504.692 626.738 510.844C626.179 511.844 625.545 512.729 624.795 513.597C624.696 513.715 624.597 513.834 624.495 513.956C621.607 517.302 617.514 518.873 613.218 519.417C612.503 519.449 611.788 519.451 611.072 519.451C610.972 519.451 610.871 519.452 610.768 519.452C609.193 519.451 607.671 519.374 606.135 519.012C605.967 518.972 605.8 518.933 605.628 518.893C603.041 518.212 600.799 517.107 598.78 515.356C598.646 515.248 598.646 515.248 598.509 515.137C594.503 511.879 592.888 506.327 592.378 501.414C591.884 495.869 592.504 490.1 595.238 485.17C595.305 485.047 595.373 484.924 595.441 484.798C597.618 480.995 601.258 478.41 605.454 477.218C605.548 477.191 605.641 477.164 605.737 477.137C607.428 476.682 609.128 476.592 610.868 476.601C610.97 476.601 611.071 476.6 611.176 476.601ZM546.19 498.183C546.935 498.844 547.624 499.57 548.325 500.276C549.278 501.243 549.278 501.243 550.284 502.153C551.161 502.897 551.953 503.737 552.762 504.551C553.502 505.295 554.242 506.03 555.044 506.71C555.789 507.371 556.477 508.098 557.179 508.805C557.92 509.551 558.659 510.292 559.466 510.97C559.539 511.032 559.612 511.095 559.688 511.159C559.758 511.215 559.829 511.271 559.902 511.328C560.173 511.66 560.144 511.884 560.142 512.308C560.142 512.459 560.142 512.611 560.142 512.768C560.139 512.931 560.138 513.095 560.136 513.264C560.135 513.431 560.134 513.599 560.134 513.771C560.132 514.217 560.129 514.662 560.124 515.107C560.12 515.562 560.117 516.017 560.115 516.472C560.111 517.363 560.104 518.255 560.096 519.146C559.393 519.043 559.061 518.728 558.582 518.231C558.465 518.114 558.465 518.113 558.346 517.993C558.096 517.742 557.849 517.488 557.602 517.234C557.355 516.984 557.108 516.734 556.861 516.484C556.708 516.329 556.555 516.173 556.403 516.017C556.016 515.622 555.619 515.248 555.199 514.888C554.66 514.425 554.155 513.935 553.655 513.432C553.566 513.342 553.476 513.252 553.384 513.16C553.006 512.782 552.628 512.403 552.251 512.024C551.973 511.746 551.695 511.468 551.417 511.189C551.334 511.106 551.25 511.021 551.164 510.935C550.749 510.519 550.326 510.121 549.88 509.738C549.343 509.277 548.842 508.789 548.344 508.287C548.254 508.198 548.165 508.108 548.072 508.016C547.694 507.638 547.317 507.259 546.939 506.881C546.662 506.602 546.383 506.324 546.104 506.046C546.021 505.962 545.938 505.877 545.853 505.791C545.438 505.377 545.016 504.979 544.57 504.597C544.022 504.126 543.511 503.626 543.002 503.114C542.909 503.022 542.816 502.928 542.721 502.833C542.576 502.688 542.432 502.543 542.287 502.398L546.188 498.18C546.188 498.181 546.189 498.182 546.19 498.183ZM575.345 471.771H591.145C591.055 472.039 590.965 472.307 590.872 472.583C590.833 472.705 590.794 472.828 590.753 472.954C590.528 473.418 590.347 473.64 589.919 473.938C588.861 474.199 587.717 474.094 586.638 474.069C586.313 474.067 585.987 474.065 585.662 474.063C584.807 474.058 583.952 474.045 583.098 474.03C582.225 474.016 581.352 474.01 580.479 474.003C578.768 473.988 577.056 473.966 575.345 473.938C575.356 478.281 575.368 482.624 575.383 486.967C575.385 487.48 575.387 487.994 575.389 488.508C575.389 488.61 575.389 488.712 575.39 488.817C575.395 490.469 575.399 492.122 575.403 493.773C575.408 495.471 575.413 497.168 575.419 498.865C575.423 499.911 575.426 500.957 575.428 502.003C575.429 502.807 575.432 503.612 575.436 504.416C575.437 504.744 575.438 505.073 575.438 505.401C575.443 510.247 575.443 510.247 577.669 514.457C579.153 515.869 581.16 516.299 583.16 516.356C585.558 516.289 587.802 515.634 589.941 514.578C590.327 514.39 590.573 514.275 591.009 514.275C591.558 514.942 591.557 514.942 591.546 515.358C591.353 515.763 591.081 515.863 590.686 516.068C590.533 516.148 590.38 516.228 590.223 516.31C590.057 516.393 589.89 516.476 589.724 516.56C589.64 516.602 589.557 516.645 589.471 516.688C585.576 518.661 580.732 519.749 576.435 518.472C576.274 518.426 576.113 518.379 575.947 518.332C573.549 517.568 571.859 516.079 570.714 513.869C569.588 511.269 569.565 508.514 569.578 505.731C569.578 505.383 569.578 505.035 569.578 504.687C569.578 503.942 569.579 503.197 569.581 502.452C569.584 501.375 569.585 500.298 569.586 499.222C569.587 497.474 569.59 495.726 569.594 493.979C569.598 492.283 569.6 490.587 569.602 488.891C569.602 488.786 569.602 488.68 569.603 488.572C569.603 488.046 569.603 487.52 569.604 486.994C569.608 482.642 569.615 478.29 569.624 473.938H568.597L575.345 466.638V471.771ZM496.26 470.793C490.926 470.792 486.311 472.765 482.181 476.023C482.011 476.157 481.841 476.29 481.671 476.423C481.119 476.852 480.509 477.181 480.282 477.856C480.338 477.94 480.393 478.022 480.447 478.104C480.527 478.189 480.604 478.272 480.682 478.355C480.819 478.506 480.958 478.656 481.099 478.804C481.507 478.517 481.915 478.23 482.314 477.931C486.519 474.745 490.93 473.231 496.218 473.525C498.441 473.732 501.021 474.554 502.552 476.258C502.655 476.381 502.655 476.382 502.756 476.503C505.732 479.789 505.944 484.385 505.978 488.569C505.981 489.04 505.986 489.51 505.992 489.98C506.005 490.993 506.016 492.005 506.024 493.018C504.707 492.996 503.41 493.039 502.098 493.16C502 493.169 501.905 493.178 501.811 493.187C498.512 493.486 495.213 493.823 491.978 494.552C491.845 494.582 491.716 494.612 491.587 494.642C487.791 495.513 484.046 496.944 481.039 499.464C478.702 501.593 477.263 504.197 477.013 507.366C476.896 510.255 477.557 512.938 479.521 515.13C481.911 517.556 485.144 518.652 488.513 518.771C494.739 518.888 501.264 516.603 505.817 512.309C505.888 512.239 505.956 512.171 506.024 512.104C506.144 513.151 506.345 514.171 506.774 515.139C507.512 516.568 508.303 517.489 509.839 518.06C512.715 518.833 515.32 517.837 517.875 516.57V515.894C517.519 515.899 517.163 515.904 516.808 515.907C516.586 515.909 516.585 515.909 516.368 515.911C516.223 515.913 516.081 515.916 515.939 515.918C514.739 515.926 513.729 515.815 512.835 514.946C511.926 512.755 511.926 512.755 511.977 510.335C511.977 510.086 511.976 509.837 511.975 509.588C511.972 509.049 511.97 508.509 511.969 507.97C511.967 507.103 511.965 506.236 511.961 505.369C511.955 503.996 511.95 502.622 511.946 501.249C511.939 498.769 511.932 496.289 511.922 493.809C511.918 492.936 511.915 492.062 511.913 491.189C511.912 490.638 511.91 490.087 511.908 489.536C511.907 489.278 511.906 489.02 511.905 488.762C511.898 484.07 511.708 478.481 508.216 474.88C508.119 474.787 508.025 474.697 507.932 474.607C504.992 471.74 501.196 470.771 497.169 470.787C496.866 470.79 496.563 470.793 496.26 470.793ZM529.456 517.793H528.058L529.456 516.28V517.793ZM614.752 478.812C612.122 478.247 609.153 478.28 606.544 478.943C606.395 478.979 606.246 479.016 606.093 479.053C604.233 479.562 602.44 480.422 600.959 481.651C600.825 481.763 600.691 481.874 600.553 481.988C596.76 485.24 595.13 490.258 594.725 495.096C594.348 501.162 594.927 507.963 599.122 512.748C601.79 515.663 605.486 517.341 609.437 517.545C611.404 517.61 613.343 517.588 615.261 517.116C615.353 517.094 615.445 517.071 615.539 517.048C617.683 516.498 619.541 515.527 621.254 514.139C621.377 514.045 621.377 514.045 621.502 513.949C624.253 511.811 625.796 508.029 626.531 504.739C626.572 504.558 626.572 504.558 626.613 504.373C627.048 502.304 627.162 500.256 627.153 498.148C627.153 498.027 627.153 497.905 627.152 497.78C627.133 492.144 625.872 486.694 621.893 482.497C620.024 480.72 617.751 479.581 615.261 478.943C615.093 478.9 614.925 478.856 614.752 478.812ZM505.448 494.368C505.64 494.369 505.832 494.37 506.024 494.371C506.034 496.335 506.041 498.298 506.045 500.262C506.047 501.216 506.049 502.171 506.054 503.126C506.058 503.964 506.061 504.802 506.062 505.641C506.063 505.995 506.064 506.35 506.064 506.704C506.068 507.216 506.071 507.728 506.071 508.24C506.071 508.399 506.071 508.554 506.071 508.709C506.073 508.86 506.074 509.007 506.075 509.153C506.075 509.291 506.075 509.425 506.074 509.559C506.075 509.944 506.089 510.13 505.841 510.431C505.764 510.493 505.69 510.554 505.616 510.614C504.428 511.7 503.205 512.639 501.804 513.438C501.711 513.491 501.621 513.542 501.53 513.593C498.244 515.444 494.805 516.215 491.042 516.029C488.788 515.772 486.59 514.881 485.049 513.187C483.206 511.034 482.725 508.492 482.87 505.741C483.141 503.467 484.184 501.38 485.963 499.902C486.12 499.775 486.12 499.775 486.274 499.65C487.868 498.261 489.817 497.394 491.825 496.768C491.929 496.735 492.031 496.703 492.132 496.672C495.291 495.663 498.534 495.107 501.82 494.704C501.947 494.689 502.071 494.673 502.194 494.658C502.553 494.614 502.912 494.571 503.271 494.529C503.384 494.516 503.495 494.503 503.605 494.49C504.112 494.43 504.614 494.374 505.124 494.366C505.234 494.367 505.341 494.368 505.448 494.368Z" fill="black"/>
</svg>
