<svg width="838" height="785" viewBox="0 0 838 785" fill="none" xmlns="http://www.w3.org/2000/svg">
<rect x="5" y="5" width="490" height="490" transform="matrix(-7.35623e-07 1 1 7.35623e-07 337.734 3.67811e-06)" stroke="black" stroke-width="10"/>
<rect x="3.14157" y="6.33486" width="490" height="490" transform="matrix(-0.319329 0.947644 0.947644 0.319329 157.806 152.589)" stroke="black" stroke-width="10"/>
<path d="M620.814 317.197L562.585 489.998H347.742V225.18L620.814 317.197ZM483.868 446.603C482.128 446.594 480.428 446.684 478.737 447.139C478.641 447.166 478.548 447.193 478.454 447.22C474.258 448.411 470.618 450.997 468.441 454.8C468.373 454.926 468.305 455.049 468.238 455.172C465.504 460.102 464.884 465.871 465.378 471.416C465.888 476.329 467.503 481.881 471.509 485.139C471.646 485.249 471.646 485.25 471.78 485.358C473.799 487.109 476.041 488.214 478.628 488.895C478.8 488.935 478.967 488.974 479.135 489.014C480.671 489.376 482.193 489.453 483.768 489.454C483.871 489.454 483.972 489.453 484.072 489.453C484.788 489.452 485.503 489.451 486.218 489.419C490.514 488.875 494.607 487.303 497.495 483.958C497.597 483.836 497.696 483.717 497.795 483.599C498.545 482.731 499.179 481.846 499.738 480.846C503.046 474.694 503.482 466.571 501.552 459.91C501.525 459.818 501.499 459.729 501.473 459.64C500.674 456.846 499.288 453.722 497.084 451.728C497.002 451.656 496.922 451.587 496.842 451.518C494.575 449.371 492.011 447.848 488.95 447.116C488.855 447.094 488.762 447.073 488.669 447.051C487.177 446.681 485.708 446.609 484.176 446.603C484.071 446.602 483.97 446.603 483.868 446.603ZM429.954 441.703C428.664 441.657 427.096 441.313 426.32 442.555C426.16 442.86 426.16 442.861 425.921 443.105C425.838 443.186 425.757 443.263 425.677 443.341C425.559 443.459 425.558 443.459 425.442 443.574C425.322 443.693 425.322 443.693 425.204 443.81C424.694 444.315 424.183 444.813 423.638 445.281C423.397 445.484 423.163 445.686 422.938 445.905C422.486 446.362 422.027 446.808 421.555 447.243C421.437 447.351 421.437 447.351 421.322 447.456C420.941 447.807 420.558 448.156 420.167 448.495C419.614 448.972 419.074 449.458 418.544 449.959C417.842 450.623 417.141 451.278 416.385 451.881C415.907 452.259 415.451 452.651 415.004 453.064C414.392 453.634 413.778 454.191 413.124 454.715C412.747 455.016 412.378 455.32 412.019 455.641C411.525 456.092 411.036 456.544 410.52 456.97C410.012 457.376 409.507 457.78 409.021 458.213C408.527 458.665 408.036 459.119 407.519 459.546C407.013 459.952 406.507 460.359 406.012 460.778C405.825 460.942 405.825 460.942 405.642 461.103C405.245 461.449 404.968 461.724 404.765 462.211C404.924 462.372 405.084 462.533 405.244 462.693C405.346 462.795 405.347 462.795 405.446 462.896C405.792 463.245 406.138 463.59 406.509 463.913C407.057 464.38 407.583 464.861 408.092 465.37C408.178 465.457 408.261 465.54 408.345 465.624C408.623 465.902 408.901 466.181 409.179 466.46C409.556 466.839 409.934 467.217 410.312 467.595C410.404 467.687 410.494 467.777 410.583 467.866C410.994 468.281 411.405 468.693 411.844 469.079C412.39 469.548 412.916 470.026 413.425 470.534C413.514 470.624 413.6 470.711 413.687 470.798C413.974 471.085 414.262 471.373 414.55 471.661C414.94 472.053 415.33 472.444 415.721 472.835C415.816 472.93 415.909 473.024 416.002 473.116C416.511 473.628 417.022 474.128 417.57 474.599C418.016 474.981 418.438 475.378 418.853 475.793C418.938 475.879 419.021 475.964 419.104 476.048C419.383 476.326 419.662 476.604 419.939 476.883C420.317 477.261 420.694 477.64 421.072 478.018C421.165 478.11 421.254 478.2 421.344 478.289C421.842 478.791 422.343 479.279 422.88 479.74C423.326 480.123 423.749 480.521 424.164 480.937C424.25 481.023 424.334 481.107 424.417 481.191C424.695 481.47 424.973 481.748 425.251 482.026C425.628 482.405 426.006 482.784 426.384 483.162C426.476 483.254 426.566 483.344 426.655 483.434C427.155 483.937 427.66 484.427 428.199 484.89C428.619 485.25 429.016 485.624 429.403 486.019C429.555 486.175 429.708 486.331 429.861 486.486C430.108 486.736 430.355 486.986 430.602 487.236C430.849 487.49 431.096 487.744 431.346 487.995C431.465 488.115 431.465 488.115 431.582 488.233C432.061 488.73 432.393 489.044 433.096 489.148C433.104 488.257 433.111 487.365 433.115 486.474C433.117 486.019 433.12 485.564 433.124 485.109C433.129 484.664 433.132 484.219 433.134 483.773C433.134 483.601 433.135 483.433 433.136 483.266C433.138 483.097 433.139 482.933 433.142 482.77C433.142 482.613 433.142 482.461 433.142 482.31C433.144 481.886 433.173 481.662 432.902 481.33C432.829 481.273 432.758 481.217 432.688 481.161C432.612 481.097 432.539 481.034 432.466 480.972C431.659 480.294 430.92 479.553 430.179 478.807C429.477 478.1 428.789 477.373 428.044 476.712C427.242 476.032 426.502 475.297 425.762 474.553C424.953 473.739 424.161 472.899 423.284 472.155C422.278 471.245 422.278 471.245 421.325 470.278C420.624 469.572 419.935 468.846 419.19 468.185C418.388 467.505 417.649 466.769 416.908 466.024C416.092 465.203 415.292 464.36 414.411 463.606C413.888 463.163 413.401 462.689 412.915 462.207L412.037 461.329C411.5 460.784 410.979 460.229 410.485 459.639C411.031 459.149 411.575 458.657 412.128 458.176C412.512 457.844 412.895 457.512 413.271 457.171C414.12 456.397 414.985 455.643 415.862 454.9C416.096 454.703 416.329 454.506 416.562 454.309C418.432 452.724 420.326 451.172 422.271 449.681C422.572 449.451 422.874 449.221 423.174 448.99C424.545 447.936 425.935 446.911 427.346 445.91C427.448 445.838 427.548 445.767 427.647 445.696C427.935 445.492 428.223 445.288 428.512 445.085C428.608 445.017 428.703 444.95 428.797 444.884C429.299 444.53 429.802 444.179 430.313 443.839C430.438 443.757 430.558 443.677 430.679 443.598C430.917 443.44 431.155 443.282 431.394 443.124C431.51 443.049 431.623 442.975 431.736 442.902C431.844 442.831 431.948 442.763 432.053 442.693C432.481 442.414 432.583 442.263 432.688 441.771C432.041 441.748 431.394 441.73 430.748 441.718C430.483 441.713 430.219 441.709 429.954 441.703ZM447.937 427.695C447.664 428.101 447.664 428.102 447.556 428.338C447.52 428.428 447.485 428.515 447.45 428.603C447.408 428.706 447.367 428.807 447.326 428.908C447.259 429.077 447.259 429.077 447.193 429.242C447.096 429.484 447 429.725 446.903 429.967C446.745 430.363 446.586 430.759 446.428 431.154C446.089 431.999 445.75 432.845 445.412 433.69C445.014 434.686 444.614 435.682 444.215 436.678C444.054 437.079 443.893 437.481 443.732 437.883C443.209 439.193 442.691 440.501 442.08 441.773C441.31 441.819 440.539 441.865 439.769 441.911C439.455 441.93 439.142 441.949 438.828 441.968C438.365 441.995 437.901 442.023 437.438 442.051C437.288 442.06 437.143 442.068 436.998 442.077C436.852 442.086 436.711 442.093 436.569 442.102C436.435 442.11 436.304 442.119 436.173 442.127C435.815 442.148 435.59 442.155 435.27 442.314V443.939H442.624C442.615 448.292 442.608 452.644 442.604 456.996C442.603 457.522 442.603 458.048 442.603 458.574C442.602 458.682 442.602 458.788 442.602 458.893C442.6 460.588 442.598 462.285 442.594 463.98C442.59 465.728 442.587 467.476 442.586 469.224C442.585 470.3 442.584 471.377 442.581 472.454C442.579 473.199 442.578 473.944 442.578 474.688C442.578 475.037 442.578 475.385 442.578 475.733C442.565 478.516 442.588 481.271 443.714 483.871C444.859 486.081 446.549 487.57 448.947 488.334C449.113 488.381 449.274 488.428 449.435 488.474C453.732 489.751 458.576 488.663 462.471 486.69C462.557 486.647 462.64 486.604 462.724 486.562C462.89 486.478 463.057 486.395 463.223 486.312C463.38 486.23 463.533 486.15 463.686 486.07C464.081 485.865 464.353 485.765 464.546 485.36C464.557 484.944 464.558 484.944 464.009 484.277C463.573 484.277 463.327 484.391 462.941 484.58C460.802 485.636 458.558 486.291 456.16 486.358C454.16 486.301 452.153 485.87 450.669 484.459C448.443 480.249 448.443 480.249 448.438 475.403C448.438 475.075 448.437 474.746 448.436 474.418C448.432 473.614 448.429 472.809 448.428 472.005C448.426 470.959 448.423 469.913 448.419 468.867C448.413 467.17 448.408 465.473 448.403 463.775C448.399 462.123 448.395 460.471 448.39 458.819C448.389 458.714 448.389 458.612 448.389 458.51C448.387 457.996 448.385 457.482 448.383 456.969C448.368 452.626 448.356 448.283 448.345 443.939C450.056 443.968 451.768 443.99 453.479 444.005C454.352 444.012 455.225 444.018 456.098 444.032C456.952 444.047 457.807 444.06 458.662 444.065C458.987 444.067 459.313 444.069 459.638 444.071C460.717 444.096 461.861 444.201 462.919 443.939C463.347 443.642 463.528 443.42 463.753 442.956C463.794 442.83 463.833 442.707 463.872 442.585C463.965 442.309 464.055 442.041 464.145 441.773H448.345V427.695H447.937ZM369.26 440.795C363.926 440.794 359.311 442.767 355.181 446.025C355.011 446.159 354.841 446.292 354.671 446.425C354.119 446.854 353.509 447.183 353.282 447.858C353.338 447.942 353.393 448.024 353.447 448.105C353.527 448.191 353.604 448.274 353.682 448.357C353.819 448.508 353.958 448.658 354.099 448.806C354.507 448.519 354.915 448.232 355.314 447.933C359.519 444.747 363.93 443.233 369.218 443.527C371.441 443.734 374.021 444.556 375.552 446.26C375.655 446.383 375.655 446.384 375.756 446.505C378.732 449.791 378.944 454.387 378.978 458.571C378.981 459.042 378.986 459.512 378.992 459.982C379.005 460.995 379.016 462.007 379.024 463.02C377.707 462.998 376.41 463.041 375.098 463.162C375 463.171 374.905 463.18 374.811 463.188C371.512 463.488 368.213 463.824 364.978 464.554C364.845 464.584 364.716 464.614 364.587 464.644C360.791 465.515 357.046 466.946 354.039 469.466C351.702 471.595 350.263 474.199 350.013 477.368C349.896 480.257 350.557 482.94 352.521 485.132C354.911 487.558 358.144 488.654 361.513 488.772C367.739 488.889 374.264 486.604 378.817 482.311C378.888 482.241 378.956 482.173 379.024 482.105C379.144 483.153 379.345 484.173 379.774 485.141C380.512 486.57 381.303 487.491 382.839 488.062C385.715 488.835 388.32 487.839 390.875 486.572V485.896C390.519 485.901 390.163 485.906 389.808 485.909C389.586 485.911 389.585 485.911 389.368 485.913C389.223 485.915 389.081 485.918 388.939 485.92C387.739 485.927 386.729 485.817 385.835 484.948C384.926 482.757 384.926 482.757 384.977 480.337C384.977 480.088 384.976 479.839 384.975 479.59C384.972 479.051 384.97 478.511 384.969 477.972C384.967 477.105 384.965 476.238 384.961 475.371C384.955 473.998 384.95 472.624 384.946 471.251C384.939 468.771 384.932 466.291 384.922 463.811C384.918 462.938 384.915 462.064 384.913 461.191C384.912 460.64 384.91 460.089 384.908 459.538C384.907 459.28 384.906 459.022 384.905 458.764C384.898 454.072 384.708 448.483 381.216 444.882C381.119 444.789 381.025 444.699 380.932 444.609C377.992 441.742 374.196 440.773 370.169 440.789C369.866 440.792 369.563 440.795 369.26 440.795ZM402.456 417C401.912 417 401.911 417 401.551 417.113C401.412 417.167 401.277 417.22 401.142 417.272C400.986 417.332 400.835 417.39 400.685 417.448C400.523 417.512 400.366 417.573 400.209 417.635C399.044 418.084 397.89 418.552 396.735 419.03V487.795H402.456V417ZM479.544 448.945C482.153 448.282 485.122 448.249 487.752 448.813C487.925 448.858 488.093 448.902 488.261 448.945C490.751 449.583 493.024 450.722 494.893 452.499C498.872 456.696 500.133 462.146 500.152 467.782C500.153 467.907 500.153 468.029 500.153 468.15C500.162 470.258 500.048 472.306 499.613 474.375C499.572 474.56 499.572 474.56 499.531 474.741C498.796 478.031 497.253 481.813 494.502 483.951C494.377 484.047 494.377 484.047 494.254 484.141C492.541 485.529 490.683 486.5 488.539 487.05C488.445 487.073 488.353 487.096 488.261 487.118C486.343 487.59 484.404 487.612 482.437 487.547C478.486 487.343 474.79 485.665 472.122 482.75C467.927 477.965 467.348 471.164 467.725 465.098C468.13 460.26 469.76 455.242 473.553 451.99C473.691 451.876 473.825 451.765 473.959 451.653C475.44 450.424 477.233 449.564 479.093 449.055C479.246 449.017 479.395 448.981 479.544 448.945ZM378.448 464.37C378.64 464.371 378.832 464.372 379.024 464.373C379.034 466.337 379.041 468.3 379.045 470.264C379.047 471.218 379.049 472.173 379.054 473.128C379.058 473.966 379.061 474.804 379.062 475.643C379.063 475.997 379.064 476.352 379.064 476.706C379.068 477.218 379.071 477.73 379.071 478.242C379.071 478.401 379.071 478.556 379.071 478.711C379.073 478.862 379.074 479.009 379.075 479.155C379.075 479.293 379.075 479.427 379.074 479.561C379.075 479.946 379.089 480.132 378.841 480.433C378.764 480.495 378.69 480.556 378.616 480.616C377.428 481.702 376.205 482.641 374.804 483.44C374.711 483.493 374.621 483.544 374.53 483.595C371.244 485.446 367.805 486.217 364.042 486.031C361.788 485.774 359.59 484.883 358.049 483.188C356.206 481.036 355.725 478.494 355.87 475.743C356.141 473.469 357.184 471.382 358.963 469.904C359.12 469.777 359.12 469.777 359.274 469.652C360.868 468.262 362.817 467.396 364.825 466.77C364.929 466.737 365.031 466.705 365.132 466.674C368.291 465.665 371.534 465.109 374.82 464.706C374.947 464.691 375.071 464.675 375.194 464.66C375.553 464.616 375.912 464.573 376.271 464.531C376.384 464.518 376.495 464.505 376.605 464.492C377.112 464.432 377.614 464.376 378.124 464.368C378.234 464.369 378.341 464.37 378.448 464.37Z" fill="black"/>
</svg>
