<svg width="789" height="874" viewBox="0 0 789 874" fill="none" xmlns="http://www.w3.org/2000/svg">
<rect x="-6.98636" y="-1.09122" width="490" height="490" transform="matrix(-0.589514 -0.807758 -0.807758 0.589514 686.857 572.467)" stroke="black" stroke-width="10"/>
<rect x="-5.00013" y="-4.99987" width="490" height="490" transform="matrix(-2.58078e-05 -1 -1 2.58078e-05 778.281 490.922)" stroke="black" stroke-width="10"/>
<path d="M622.527 490.939L298.279 490.947L298.273 264.297L401.917 188.656L622.527 490.939ZM434.88 447.604C433.14 447.596 431.44 447.686 429.749 448.141C429.653 448.168 429.559 448.195 429.466 448.222C425.27 449.413 421.63 451.999 419.453 455.802C419.384 455.928 419.317 456.051 419.25 456.174C416.516 461.104 415.895 466.873 416.39 472.418C416.899 477.331 418.515 482.883 422.521 486.141C422.657 486.251 422.658 486.252 422.792 486.36C424.811 488.111 427.053 489.216 429.64 489.896C429.812 489.937 429.979 489.976 430.146 490.016C431.683 490.378 433.205 490.455 434.779 490.456C434.883 490.456 434.984 490.455 435.084 490.455C435.799 490.454 436.515 490.453 437.229 490.421C441.526 489.877 445.618 488.305 448.507 484.96C448.609 484.838 448.708 484.719 448.807 484.601C449.557 483.733 450.19 482.848 450.75 481.848C454.058 475.696 454.494 467.573 452.563 460.912C452.536 460.82 452.511 460.731 452.484 460.642C451.686 457.848 450.3 454.723 448.096 452.729C448.013 452.658 447.933 452.589 447.854 452.52C445.586 450.373 443.023 448.849 439.962 448.118C439.866 448.096 439.773 448.074 439.681 448.053C438.189 447.683 436.72 447.611 435.188 447.604C435.083 447.604 434.981 447.605 434.88 447.604ZM380.966 442.705C379.676 442.659 378.108 442.315 377.332 443.557C377.172 443.862 377.172 443.863 376.933 444.107C376.85 444.187 376.769 444.265 376.688 444.343C376.57 444.461 376.57 444.461 376.454 444.576C376.334 444.695 376.334 444.695 376.216 444.812C375.706 445.317 375.195 445.815 374.649 446.283C374.409 446.486 374.174 446.688 373.949 446.907C373.498 447.364 373.039 447.81 372.566 448.245C372.449 448.353 372.449 448.353 372.334 448.458C371.953 448.809 371.57 449.158 371.179 449.497C370.626 449.974 370.086 450.46 369.556 450.961C368.854 451.625 368.153 452.28 367.396 452.883C366.918 453.261 366.462 453.653 366.016 454.066C365.403 454.636 364.789 455.193 364.136 455.717C363.759 456.018 363.39 456.322 363.03 456.643C362.537 457.094 362.047 457.546 361.531 457.972C361.024 458.378 360.518 458.782 360.033 459.215C359.539 459.667 359.047 460.121 358.53 460.548C358.024 460.954 357.519 461.361 357.023 461.78C356.836 461.944 356.837 461.944 356.653 462.104C356.257 462.45 355.98 462.726 355.776 463.213C355.936 463.374 356.096 463.535 356.256 463.695C356.358 463.797 356.358 463.797 356.458 463.897C356.803 464.247 357.149 464.592 357.521 464.915C358.069 465.382 358.594 465.863 359.104 466.372C359.189 466.459 359.273 466.542 359.356 466.626C359.635 466.904 359.913 467.183 360.19 467.462C360.568 467.841 360.945 468.219 361.323 468.597C361.415 468.689 361.505 468.779 361.595 468.868C362.006 469.283 362.417 469.695 362.855 470.081C363.402 470.55 363.928 471.028 364.437 471.536C364.525 471.626 364.612 471.713 364.698 471.8C364.986 472.087 365.274 472.375 365.562 472.663C365.952 473.055 366.342 473.446 366.732 473.837C366.828 473.932 366.921 474.026 367.014 474.118C367.522 474.63 368.034 475.13 368.582 475.601C369.027 475.983 369.449 476.38 369.864 476.795C369.95 476.881 370.033 476.966 370.116 477.05C370.395 477.328 370.673 477.606 370.951 477.885C371.328 478.263 371.706 478.642 372.084 479.02C372.176 479.112 372.266 479.201 372.355 479.291C372.853 479.793 373.355 480.281 373.892 480.742C374.337 481.125 374.76 481.523 375.176 481.938C375.262 482.025 375.345 482.109 375.429 482.193C375.707 482.471 375.985 482.75 376.263 483.028C376.64 483.407 377.017 483.786 377.396 484.164C377.488 484.256 377.577 484.346 377.667 484.436C378.167 484.939 378.672 485.429 379.211 485.892C379.631 486.252 380.028 486.626 380.415 487.021C380.567 487.177 380.72 487.333 380.873 487.488C381.12 487.738 381.367 487.988 381.613 488.238C381.86 488.492 382.108 488.745 382.357 488.997C382.477 489.117 382.477 489.117 382.594 489.235C383.073 489.732 383.404 490.046 384.107 490.15C384.116 489.259 384.122 488.367 384.127 487.476C384.129 487.021 384.132 486.566 384.136 486.111C384.14 485.666 384.144 485.221 384.146 484.775C384.146 484.603 384.147 484.435 384.147 484.268C384.15 484.099 384.151 483.935 384.153 483.771C384.153 483.615 384.153 483.463 384.153 483.312C384.156 482.888 384.184 482.664 383.914 482.332C383.841 482.275 383.77 482.219 383.699 482.163C383.624 482.099 383.55 482.036 383.478 481.974C382.671 481.296 381.932 480.554 381.19 479.809C380.489 479.102 379.801 478.375 379.056 477.714C378.253 477.034 377.514 476.299 376.773 475.555C375.964 474.741 375.172 473.901 374.296 473.157C373.29 472.247 373.29 472.247 372.337 471.28C371.635 470.574 370.947 469.848 370.202 469.187C369.4 468.507 368.661 467.771 367.92 467.026C367.104 466.205 366.304 465.361 365.423 464.608C364.9 464.165 364.413 463.691 363.927 463.209L363.049 462.331C362.512 461.786 361.99 461.231 361.497 460.641C362.042 460.151 362.587 459.659 363.14 459.178C363.524 458.846 363.906 458.514 364.282 458.173C365.132 457.399 365.996 456.645 366.874 455.902C367.108 455.705 367.341 455.508 367.574 455.311C369.444 453.726 371.337 452.174 373.283 450.683C373.584 450.453 373.885 450.223 374.186 449.992C375.556 448.938 376.946 447.913 378.357 446.912C378.46 446.84 378.56 446.769 378.659 446.698C378.947 446.494 379.235 446.29 379.523 446.087C379.62 446.019 379.715 445.952 379.809 445.886C380.31 445.532 380.814 445.181 381.325 444.841C381.449 444.759 381.57 444.679 381.69 444.6C381.928 444.442 382.167 444.284 382.405 444.126C382.522 444.051 382.635 443.977 382.748 443.904C382.855 443.833 382.96 443.765 383.064 443.695C383.493 443.416 383.595 443.265 383.699 442.772C383.053 442.75 382.406 442.732 381.76 442.72C381.495 442.715 381.23 442.711 380.966 442.705ZM398.948 428.697C398.676 429.103 398.676 429.104 398.567 429.34C398.531 429.43 398.497 429.517 398.462 429.604C398.42 429.708 398.379 429.809 398.338 429.91C398.271 430.079 398.271 430.079 398.205 430.244C398.108 430.486 398.012 430.727 397.915 430.969C397.757 431.365 397.598 431.761 397.439 432.156C397.1 433.001 396.762 433.847 396.424 434.692C396.025 435.688 395.626 436.684 395.227 437.68C395.065 438.081 394.905 438.483 394.744 438.885C394.221 440.195 393.703 441.503 393.092 442.775C392.322 442.821 391.55 442.867 390.78 442.913C390.467 442.932 390.153 442.951 389.84 442.97C389.376 442.997 388.913 443.025 388.449 443.053C388.3 443.062 388.154 443.07 388.01 443.079C387.864 443.088 387.723 443.095 387.581 443.104C387.446 443.112 387.315 443.121 387.185 443.129C386.827 443.15 386.602 443.157 386.281 443.316V444.941H393.636C393.627 449.294 393.619 453.646 393.615 457.998C393.615 458.524 393.615 459.05 393.614 459.576C393.614 459.684 393.613 459.79 393.613 459.895C393.612 461.59 393.609 463.287 393.605 464.982C393.602 466.73 393.599 468.478 393.598 470.226C393.597 471.302 393.596 472.379 393.593 473.456C393.59 474.201 393.59 474.946 393.59 475.69C393.59 476.039 393.59 476.387 393.59 476.735C393.577 479.518 393.6 482.273 394.726 484.873C395.871 487.083 397.561 488.572 399.959 489.336C400.125 489.383 400.285 489.43 400.446 489.476C404.744 490.753 409.588 489.665 413.482 487.692C413.568 487.649 413.652 487.606 413.735 487.563C413.902 487.48 414.068 487.397 414.234 487.313C414.392 487.231 414.544 487.152 414.697 487.072C415.093 486.867 415.365 486.767 415.558 486.362C415.569 485.946 415.569 485.946 415.021 485.279C414.584 485.279 414.338 485.393 413.953 485.582C411.814 486.638 409.569 487.292 407.172 487.36C405.172 487.303 403.165 486.872 401.681 485.461C399.455 481.251 399.455 481.251 399.45 476.405C399.45 476.077 399.448 475.748 399.447 475.42C399.444 474.616 399.441 473.811 399.439 473.007C399.437 471.961 399.434 470.915 399.431 469.869C399.424 468.172 399.419 466.474 399.415 464.777C399.411 463.125 399.407 461.473 399.401 459.821C399.401 459.716 399.401 459.614 399.4 459.512C399.399 458.998 399.396 458.484 399.395 457.971C399.38 453.628 399.368 449.284 399.356 444.941C401.068 444.97 402.78 444.992 404.491 445.007C405.364 445.014 406.237 445.02 407.109 445.034C407.964 445.049 408.819 445.062 409.674 445.067C409.999 445.069 410.324 445.071 410.649 445.073C411.729 445.098 412.873 445.203 413.931 444.941C414.358 444.644 414.54 444.422 414.765 443.958C414.805 443.832 414.844 443.709 414.884 443.587C414.976 443.311 415.066 443.043 415.156 442.775H399.356V428.697H398.948ZM320.271 441.797C314.938 441.796 310.323 443.769 306.192 447.027C306.023 447.161 305.853 447.294 305.683 447.427C305.131 447.856 304.52 448.185 304.294 448.86C304.35 448.944 304.404 449.026 304.459 449.107C304.539 449.193 304.616 449.276 304.693 449.359C304.831 449.51 304.97 449.66 305.11 449.808C305.519 449.52 305.927 449.234 306.326 448.935C310.531 445.749 314.941 444.235 320.229 444.529C322.453 444.736 325.032 445.557 326.563 447.262C326.666 447.385 326.667 447.385 326.768 447.507C329.743 450.793 329.955 455.389 329.989 459.573C329.993 460.043 329.998 460.514 330.004 460.984C330.017 461.997 330.028 463.009 330.036 464.021C328.719 464 327.422 464.043 326.109 464.164C326.012 464.173 325.917 464.182 325.822 464.19C322.523 464.49 319.225 464.826 315.989 465.556C315.856 465.586 315.728 465.616 315.599 465.646C311.803 466.517 308.058 467.947 305.051 470.468C302.714 472.597 301.274 475.201 301.024 478.37C300.908 481.259 301.569 483.942 303.532 486.134C305.923 488.56 309.156 489.656 312.524 489.774C318.751 489.891 325.276 487.606 329.829 483.312C329.899 483.243 329.968 483.175 330.036 483.107C330.156 484.154 330.356 485.175 330.786 486.143C331.524 487.572 332.315 488.493 333.851 489.063C336.727 489.837 339.332 488.841 341.887 487.574V486.897C341.531 486.903 341.175 486.908 340.819 486.911C340.597 486.913 340.597 486.913 340.38 486.915C340.234 486.917 340.093 486.92 339.951 486.922C338.75 486.929 337.741 486.819 336.847 485.95C335.938 483.759 335.938 483.759 335.988 481.339C335.988 481.09 335.987 480.841 335.986 480.592C335.984 480.052 335.982 479.513 335.98 478.974C335.979 478.107 335.976 477.24 335.973 476.373C335.967 475 335.962 473.626 335.958 472.253C335.951 469.773 335.943 467.293 335.934 464.812C335.93 463.94 335.927 463.066 335.925 462.193C335.923 461.642 335.922 461.091 335.92 460.54C335.919 460.282 335.918 460.024 335.917 459.766C335.91 455.074 335.72 449.485 332.228 445.884C332.131 445.791 332.037 445.701 331.943 445.611C329.004 442.744 325.208 441.775 321.181 441.791C320.878 441.794 320.575 441.797 320.271 441.797ZM353.468 418.002C352.923 418.002 352.923 418.002 352.562 418.115C352.423 418.169 352.288 418.222 352.153 418.274C351.998 418.334 351.847 418.392 351.696 418.45C351.535 418.514 351.378 418.575 351.221 418.637C350.055 419.086 348.902 419.554 347.747 420.032V488.797H353.468V418.002ZM430.556 449.947C433.164 449.284 436.134 449.251 438.764 449.815C438.937 449.86 439.105 449.904 439.272 449.947C441.763 450.585 444.036 451.724 445.904 453.501C449.884 457.698 451.145 463.148 451.164 468.784C451.164 468.909 451.165 469.031 451.165 469.152C451.174 471.26 451.059 473.308 450.625 475.377C450.584 475.562 450.584 475.562 450.543 475.743C449.808 479.033 448.265 482.815 445.514 484.953C445.388 485.049 445.389 485.049 445.266 485.143C443.553 486.531 441.695 487.502 439.551 488.052C439.456 488.075 439.364 488.098 439.272 488.12C437.355 488.592 435.415 488.614 433.448 488.549C429.497 488.345 425.802 486.667 423.134 483.752C418.939 478.967 418.36 472.166 418.736 466.1C419.142 461.262 420.772 456.244 424.564 452.992C424.703 452.878 424.837 452.767 424.971 452.655C426.452 451.425 428.245 450.566 430.104 450.057C430.258 450.019 430.407 449.983 430.556 449.947ZM329.46 465.372C329.652 465.373 329.844 465.374 330.036 465.375C330.045 467.339 330.052 469.302 330.057 471.266C330.059 472.22 330.061 473.175 330.065 474.13C330.07 474.968 330.073 475.806 330.074 476.645C330.075 476.999 330.075 477.354 330.076 477.708C330.079 478.22 330.083 478.732 330.083 479.244C330.083 479.403 330.083 479.558 330.083 479.713C330.085 479.864 330.085 480.011 330.087 480.157C330.086 480.295 330.086 480.429 330.086 480.562C330.087 480.948 330.101 481.134 329.853 481.435C329.776 481.497 329.702 481.558 329.628 481.618C328.439 482.703 327.216 483.643 325.815 484.442C325.722 484.495 325.632 484.546 325.542 484.597C322.256 486.448 318.817 487.219 315.054 487.033C312.8 486.776 310.602 485.885 309.061 484.19C307.218 482.038 306.737 479.496 306.882 476.745C307.153 474.471 308.196 472.384 309.975 470.906C310.132 470.779 310.132 470.779 310.286 470.654C311.88 469.264 313.829 468.398 315.837 467.771C315.941 467.739 316.042 467.707 316.144 467.676C319.303 466.666 322.546 466.111 325.832 465.708C325.959 465.693 326.083 465.677 326.206 465.662C326.565 465.618 326.923 465.575 327.282 465.533C327.396 465.52 327.507 465.507 327.617 465.494C328.123 465.434 328.626 465.378 329.136 465.37C329.246 465.371 329.353 465.371 329.46 465.372Z" fill="black"/>
</svg>
