<svg width="707" height="921" viewBox="0 0 707 921" fill="none" xmlns="http://www.w3.org/2000/svg">
<rect x="539.418" y="495.004" width="490" height="490" transform="rotate(179.958 539.418 495.004)" stroke="black" stroke-width="10"/>
<rect x="699.396" y="552.898" width="490" height="490" transform="rotate(132.562 699.396 552.898)" stroke="black" stroke-width="10"/>
<path d="M534.354 408.107L534.414 490.005L98.3839 490.328L103.729 484.508V487.796H109.448V478.279L118.327 468.61C118.494 468.77 118.663 468.927 118.836 469.08C119.382 469.549 119.908 470.027 120.417 470.535C120.506 470.625 120.593 470.712 120.679 470.799C120.967 471.086 121.255 471.374 121.542 471.662C121.932 472.054 122.323 472.445 122.714 472.836C122.809 472.931 122.902 473.025 122.994 473.117C123.503 473.629 124.015 474.129 124.563 474.6C125.008 474.982 125.43 475.379 125.845 475.794C125.931 475.88 126.014 475.965 126.097 476.049C126.375 476.327 126.654 476.605 126.932 476.884C127.309 477.262 127.687 477.641 128.065 478.019C128.157 478.111 128.247 478.201 128.336 478.29C128.834 478.792 129.336 479.28 129.873 479.741C130.319 480.124 130.741 480.523 131.156 480.938C131.242 481.024 131.326 481.108 131.409 481.192C131.688 481.471 131.966 481.749 132.244 482.027C132.622 482.406 132.999 482.785 133.377 483.163C133.469 483.255 133.559 483.345 133.649 483.435C134.149 483.938 134.653 484.428 135.192 484.891C135.612 485.251 136.009 485.625 136.397 486.02C136.549 486.176 136.701 486.332 136.855 486.487C137.101 486.737 137.348 486.987 137.594 487.237C137.841 487.491 138.089 487.744 138.338 487.996C138.457 488.116 138.457 488.116 138.574 488.234C139.053 488.731 139.385 489.045 140.088 489.149C140.097 488.258 140.104 487.366 140.109 486.475C140.111 486.02 140.112 485.565 140.116 485.11C140.121 484.665 140.124 484.22 140.126 483.774C140.127 483.602 140.128 483.434 140.128 483.267C140.13 483.098 140.132 482.934 140.134 482.771C140.134 482.614 140.135 482.462 140.135 482.311C140.138 481.887 140.165 481.663 139.895 481.331C139.822 481.274 139.751 481.218 139.68 481.162C139.605 481.098 139.532 481.035 139.459 480.973C138.652 480.295 137.913 479.554 137.171 478.808C136.469 478.101 135.781 477.374 135.036 476.713C134.234 476.033 133.495 475.298 132.754 474.554C131.945 473.74 131.154 472.9 130.277 472.156C129.271 471.246 129.271 471.246 128.318 470.279C127.616 469.573 126.928 468.847 126.183 468.186C125.38 467.506 124.641 466.77 123.901 466.025C123.347 465.468 122.799 464.903 122.23 464.36L142.262 442.547V443.94H149.617C149.609 448.293 149.601 452.645 149.597 456.997C149.596 457.523 149.595 458.049 149.595 458.575C149.595 458.683 149.595 458.789 149.595 458.894C149.593 460.589 149.59 462.286 149.586 463.981C149.582 465.729 149.579 467.477 149.578 469.225C149.578 470.301 149.577 471.378 149.573 472.455C149.571 473.2 149.57 473.945 149.57 474.689C149.571 475.038 149.571 475.386 149.57 475.734C149.557 478.517 149.581 481.272 150.706 483.872C151.851 486.082 153.541 487.571 155.94 488.335C156.105 488.382 156.266 488.429 156.427 488.475C160.724 489.752 165.568 488.664 169.463 486.691C169.549 486.648 169.633 486.605 169.716 486.562C169.882 486.479 170.049 486.396 170.215 486.312C170.372 486.231 170.525 486.151 170.678 486.071C171.073 485.866 171.346 485.766 171.538 485.361C171.55 484.945 171.55 484.945 171.001 484.278C170.565 484.278 170.32 484.393 169.935 484.581C167.795 485.637 165.55 486.292 163.152 486.359C161.152 486.302 159.145 485.871 157.661 484.46C155.435 480.25 155.436 480.25 155.431 475.404C155.431 475.076 155.43 474.747 155.429 474.419C155.425 473.615 155.422 472.81 155.42 472.006C155.418 470.96 155.415 469.914 155.411 468.868C155.405 467.171 155.4 465.474 155.396 463.776C155.392 462.124 155.387 460.472 155.382 458.82C155.382 458.715 155.381 458.613 155.381 458.511C155.379 457.997 155.378 457.483 155.376 456.97C155.362 452.627 155.349 448.284 155.338 443.94C157.049 443.969 158.761 443.991 160.472 444.006C161.345 444.013 162.217 444.019 163.09 444.033C163.945 444.048 164.8 444.061 165.654 444.066C165.98 444.068 166.305 444.07 166.63 444.072C167.71 444.097 168.854 444.202 169.911 443.94C170.339 443.643 170.521 443.421 170.745 442.957C170.786 442.831 170.826 442.708 170.865 442.586C170.958 442.31 171.048 442.042 171.138 441.774H155.338V428.308L338.802 228.527L534.354 408.107ZM190.861 446.604C189.12 446.595 187.42 446.685 185.73 447.14C185.633 447.167 185.54 447.194 185.446 447.221C181.25 448.412 177.611 450.998 175.434 454.801C175.365 454.927 175.297 455.05 175.231 455.173C172.497 460.103 171.876 465.872 172.37 471.417C172.88 476.33 174.496 481.882 178.501 485.14C178.638 485.25 178.639 485.251 178.773 485.359C180.791 487.11 183.034 488.215 185.62 488.896C185.793 488.936 185.96 488.975 186.127 489.015C187.664 489.377 189.186 489.454 190.76 489.455C190.863 489.455 190.964 489.454 191.065 489.454C191.78 489.453 192.495 489.452 193.21 489.42C197.507 488.876 201.599 487.304 204.487 483.959C204.589 483.837 204.688 483.718 204.787 483.6C205.538 482.732 206.171 481.847 206.731 480.847C210.039 474.695 210.476 466.572 208.545 459.911C208.518 459.819 208.491 459.73 208.465 459.641C207.666 456.847 206.28 453.723 204.076 451.729C203.994 451.657 203.914 451.588 203.834 451.519C201.567 449.372 199.004 447.849 195.944 447.117C195.848 447.095 195.755 447.074 195.662 447.052C194.171 446.682 192.702 446.61 191.169 446.604C191.064 446.603 190.962 446.604 190.861 446.604ZM77.1623 440.79C81.1889 440.774 84.9848 441.743 87.924 444.61C88.0177 444.7 88.1116 444.79 88.2082 444.883C91.7004 448.484 91.8908 454.073 91.8976 458.765C91.8985 459.023 91.8996 459.281 91.9005 459.539C91.9025 460.09 91.9041 460.641 91.9054 461.192C91.9075 462.065 91.9108 462.939 91.9142 463.812C91.9239 466.292 91.9317 468.772 91.9386 471.252C91.9425 472.625 91.9474 473.999 91.9533 475.372C91.9569 476.239 91.9595 477.106 91.9611 477.973C91.9623 478.512 91.9643 479.051 91.9669 479.591C91.968 479.84 91.9688 480.089 91.9689 480.338C91.9186 482.758 91.9186 482.758 92.8273 484.949C93.7214 485.818 94.731 485.928 95.9318 485.921C96.0732 485.919 96.2148 485.916 96.3605 485.914C96.5779 485.912 96.578 485.912 96.8 485.91C97.1557 485.907 97.5117 485.902 97.8673 485.896V486.573C95.3125 487.84 92.7075 488.836 89.8312 488.062C88.2957 487.492 87.5057 486.57 86.7677 485.142C86.3381 484.174 86.1365 483.153 86.0168 482.106C85.9485 482.174 85.8801 482.242 85.8097 482.312C81.2563 486.605 74.7326 488.89 68.506 488.773C65.1374 488.655 61.9038 487.559 59.5128 485.133C57.5497 482.941 56.8887 480.258 57.005 477.369C57.255 474.2 58.6952 471.596 61.0324 469.467C64.0395 466.947 67.7836 465.516 71.5793 464.645C71.7081 464.615 71.8371 464.585 71.9699 464.555C75.2052 463.825 78.5042 463.489 81.8029 463.189C81.8975 463.181 81.9925 463.172 82.09 463.163C83.4027 463.042 84.6992 462.999 86.0168 463.021C86.0083 462.008 85.9986 460.996 85.9855 459.983C85.9795 459.513 85.9736 459.043 85.9699 458.572C85.9359 454.388 85.724 449.792 82.7482 446.506C82.6471 446.385 82.6471 446.384 82.5441 446.261C81.013 444.557 78.4333 443.735 76.2101 443.528C70.922 443.234 66.5127 444.748 62.3078 447.934C61.9085 448.233 61.5002 448.52 61.0919 448.807C60.9513 448.659 60.8117 448.509 60.674 448.358C60.5967 448.275 60.5193 448.192 60.4396 448.106C60.385 448.025 60.3308 447.943 60.2746 447.859C60.5011 447.184 61.1112 446.855 61.6632 446.426C61.8336 446.293 62.0036 446.16 62.173 446.026C66.3034 442.768 70.9185 440.795 76.2521 440.796C76.5554 440.796 76.859 440.793 77.1623 440.79ZM186.536 448.946C189.145 448.283 192.114 448.25 194.744 448.814C194.917 448.859 195.085 448.903 195.253 448.946C197.744 449.584 200.017 450.723 201.885 452.5C205.865 456.697 207.125 462.147 207.145 467.783C207.145 467.908 207.145 468.03 207.146 468.151C207.155 470.259 207.041 472.307 206.607 474.376C206.565 474.561 206.565 474.561 206.525 474.742C205.79 478.032 204.245 481.814 201.494 483.952C201.369 484.047 201.369 484.048 201.246 484.142C199.534 485.53 197.675 486.501 195.531 487.051C195.437 487.074 195.345 487.097 195.253 487.119C193.336 487.591 191.396 487.613 189.429 487.548C185.478 487.344 181.782 485.666 179.114 482.751C174.92 477.966 174.34 471.165 174.717 465.099C175.122 460.261 176.753 455.243 180.545 451.991C180.683 451.877 180.817 451.766 180.951 451.654C182.433 450.425 184.226 449.565 186.085 449.056C186.238 449.018 186.388 448.982 186.536 448.946ZM85.1164 464.369C84.6063 464.377 84.1048 464.433 83.5988 464.493C83.488 464.506 83.3769 464.519 83.2628 464.532C82.9041 464.574 82.5452 464.617 82.1867 464.661C82.0634 464.676 81.9397 464.692 81.8127 464.707C78.5263 465.11 75.2834 465.665 72.1242 466.675C72.0229 466.706 71.9218 466.738 71.8175 466.771C69.8099 467.397 67.8615 468.264 66.2677 469.653C66.1134 469.778 66.1127 469.778 65.9552 469.905C64.1769 471.383 63.1332 473.47 62.8625 475.744C62.7174 478.495 63.1983 481.037 65.0412 483.189C66.5827 484.884 68.7807 485.775 71.0343 486.032C74.7973 486.218 78.2365 485.447 81.5226 483.596C81.6129 483.545 81.703 483.494 81.796 483.441C83.1969 482.642 84.4201 481.703 85.6085 480.617C85.6826 480.557 85.7568 480.496 85.8332 480.434C86.0816 480.133 86.0678 479.947 86.0666 479.562C86.0671 479.428 86.067 479.294 86.0675 479.156C86.0661 479.01 86.0651 478.863 86.0636 478.712C86.0637 478.557 86.0636 478.402 86.0636 478.243C86.0633 477.731 86.06 477.219 86.0568 476.707C86.056 476.353 86.0552 475.998 86.0548 475.644C86.0536 474.805 86.0511 473.967 86.047 473.129C86.0425 472.174 86.0393 471.219 86.0373 470.265C86.033 468.301 86.0259 466.338 86.0168 464.374C85.8248 464.373 85.6326 464.372 85.4406 464.371C85.3336 464.371 85.2265 464.37 85.1164 464.369ZM109.448 478.279L103.729 484.508V419.031C104.883 418.553 106.036 418.085 107.201 417.636C107.358 417.574 107.515 417.513 107.677 417.449C107.828 417.391 107.979 417.333 108.134 417.273C108.269 417.221 108.404 417.168 108.543 417.114C108.904 417.001 108.904 417.001 109.448 417.001V478.279ZM133.313 442.556C134.089 441.314 135.656 441.658 136.946 441.704C137.211 441.71 137.477 441.714 137.741 441.719C138.388 441.731 139.034 441.749 139.68 441.771C139.576 442.264 139.473 442.415 139.045 442.694C138.941 442.764 138.836 442.832 138.729 442.903C138.615 442.976 138.503 443.05 138.386 443.125C138.148 443.283 137.909 443.441 137.671 443.599C137.551 443.678 137.43 443.758 137.306 443.84C136.794 444.18 136.291 444.531 135.789 444.885C135.695 444.951 135.601 445.018 135.504 445.086C135.216 445.289 134.928 445.493 134.64 445.697C134.54 445.768 134.441 445.839 134.338 445.911C132.927 446.912 131.537 447.937 130.166 448.991C129.866 449.222 129.565 449.452 129.264 449.682C127.318 451.173 125.424 452.725 123.555 454.31C123.322 454.507 123.088 454.704 122.855 454.901C121.977 455.644 121.112 456.398 120.263 457.172C119.887 457.513 119.504 457.845 119.12 458.177C118.567 458.658 118.023 459.15 117.478 459.64C117.971 460.23 118.492 460.785 119.029 461.33L119.907 462.208C120.394 462.69 120.881 463.164 121.403 463.607C121.687 463.85 121.96 464.103 122.23 464.36L118.327 468.61C118.073 468.367 117.825 468.117 117.576 467.867C117.487 467.778 117.397 467.688 117.305 467.596C116.927 467.218 116.549 466.84 116.172 466.461C115.894 466.182 115.615 465.903 115.337 465.625C115.254 465.541 115.17 465.458 115.084 465.371C114.575 464.862 114.049 464.381 113.501 463.914C113.13 463.591 112.784 463.246 112.439 462.896C112.339 462.796 112.338 462.796 112.236 462.694C112.076 462.534 111.916 462.373 111.757 462.212C111.961 461.725 112.238 461.449 112.634 461.104C112.817 460.943 112.817 460.943 113.004 460.779C113.499 460.36 114.005 459.953 114.511 459.547C115.028 459.12 115.519 458.666 116.014 458.214C116.499 457.781 117.005 457.377 117.512 456.971C118.028 456.545 118.518 456.093 119.012 455.642C119.372 455.321 119.74 455.017 120.117 454.716C120.771 454.192 121.384 453.635 121.996 453.065C122.443 452.652 122.899 452.26 123.377 451.882C124.134 451.279 124.835 450.624 125.537 449.96C126.068 449.459 126.608 448.973 127.16 448.496C127.551 448.157 127.933 447.808 128.315 447.457C128.429 447.352 128.43 447.352 128.547 447.244C129.02 446.809 129.479 446.363 129.93 445.906C130.155 445.687 130.39 445.485 130.63 445.282C131.175 444.814 131.686 444.316 132.196 443.811C132.314 443.694 132.314 443.694 132.435 443.575C132.551 443.459 132.552 443.46 132.67 443.342C132.75 443.264 132.831 443.186 132.913 443.106C133.152 442.862 133.152 442.861 133.313 442.556ZM142.262 442.547V442.315C142.379 442.257 142.484 442.218 142.587 442.192L142.262 442.547ZM153.896 429.968C153.738 430.364 153.58 430.76 153.421 431.155C153.082 432 152.743 432.846 152.404 433.691C152.006 434.687 151.607 435.683 151.207 436.679C151.046 437.08 150.885 437.482 150.725 437.884C150.201 439.194 149.684 440.502 149.072 441.774C148.302 441.82 147.532 441.866 146.762 441.912C146.448 441.931 146.134 441.95 145.82 441.969C145.357 441.996 144.893 442.024 144.43 442.052C144.281 442.061 144.136 442.069 143.991 442.078C143.845 442.087 143.703 442.094 143.562 442.103C143.427 442.111 143.296 442.12 143.165 442.128C142.939 442.141 142.765 442.148 142.587 442.192L153.958 429.81C153.937 429.862 153.917 429.915 153.896 429.968ZM155.338 428.308L153.958 429.81C154.034 429.621 154.111 429.432 154.187 429.243C154.252 429.078 154.252 429.078 154.319 428.909C154.36 428.808 154.401 428.707 154.443 428.604C154.477 428.516 154.512 428.429 154.548 428.339C154.656 428.103 154.656 428.102 154.929 427.696H155.338V428.308Z" fill="black"/>
</svg>
