<svg width="18" height="14" viewBox="0 0 18 14" fill="none" xmlns="http://www.w3.org/2000/svg">
<path fill-rule="evenodd" clip-rule="evenodd" d="M0.46934 7.53082C0.32889 7.3902 0.25 7.19957 0.25 7.00082C0.25 6.80207 0.32889 6.61145 0.46934 6.47082L6.46934 0.470822C6.538 0.397136 6.6208 0.338034 6.7128 0.297042C6.8048 0.25605 6.90412 0.234009 7.00482 0.232232C7.10552 0.230455 7.20555 0.24898 7.29894 0.2867C7.39233 0.324421 7.47716 0.380567 7.54838 0.451785C7.6196 0.523004 7.67574 0.607838 7.71346 0.701226C7.75118 0.794615 7.76971 0.894642 7.76793 0.995345C7.76616 1.09605 7.74411 1.19536 7.70312 1.28736C7.66213 1.37936 7.60303 1.46216 7.52934 1.53082L2.80934 6.25082L16.9993 6.25082C17.1983 6.25082 17.389 6.32984 17.5297 6.47049C17.6703 6.61115 17.7493 6.80191 17.7493 7.00082C17.7493 7.19974 17.6703 7.3905 17.5297 7.53115C17.389 7.6718 17.1983 7.75082 16.9993 7.75082L2.80934 7.75082L7.52934 12.4708C7.60303 12.5395 7.66213 12.6223 7.70312 12.7143C7.74411 12.8063 7.76616 12.9056 7.76793 13.0063C7.76971 13.107 7.75118 13.207 7.71346 13.3004C7.67574 13.3938 7.6196 13.4786 7.54838 13.5499C7.47716 13.6211 7.39233 13.6772 7.29894 13.7149C7.20555 13.7527 7.10552 13.7712 7.00482 13.7694C6.90412 13.7676 6.8048 13.7456 6.7128 13.7046C6.6208 13.6636 6.538 13.6045 6.46934 13.5308L0.46934 7.53082Z" fill="white"/>
</svg>
