<svg width="24" height="24" viewBox="0 0 24 24" fill="none" xmlns="http://www.w3.org/2000/svg">
<path fill-rule="evenodd" clip-rule="evenodd" d="M20.5307 12.5308C20.6711 12.3902 20.75 12.1996 20.75 12.0008C20.75 11.8021 20.6711 11.6114 20.5307 11.4708L14.5307 5.47082C14.462 5.39714 14.3792 5.33803 14.2872 5.29704C14.1952 5.25605 14.0959 5.23401 13.9952 5.23223C13.8945 5.23046 13.7945 5.24898 13.7011 5.2867C13.6077 5.32442 13.5228 5.38057 13.4516 5.45179C13.3804 5.523 13.3243 5.60784 13.2865 5.70123C13.2488 5.79461 13.2303 5.89464 13.2321 5.99535C13.2338 6.09605 13.2559 6.19536 13.2969 6.28736C13.3379 6.37936 13.397 6.46216 13.4707 6.53082L18.1907 11.2508L4.00066 11.2508C3.80175 11.2508 3.61098 11.3298 3.47033 11.4705C3.32968 11.6111 3.25066 11.8019 3.25066 12.0008C3.25066 12.1997 3.32968 12.3905 3.47033 12.5312C3.61098 12.6718 3.80175 12.7508 4.00066 12.7508L18.1907 12.7508L13.4707 17.4708C13.397 17.5395 13.3379 17.6223 13.2969 17.7143C13.2559 17.8063 13.2338 17.9056 13.2321 18.0063C13.2303 18.107 13.2488 18.207 13.2865 18.3004C13.3243 18.3938 13.3804 18.4786 13.4516 18.5499C13.5228 18.6211 13.6077 18.6772 13.7011 18.7149C13.7945 18.7527 13.8945 18.7712 13.9952 18.7694C14.0959 18.7676 14.1952 18.7456 14.2872 18.7046C14.3792 18.6636 14.462 18.6045 14.5307 18.5308L20.5307 12.5308Z" fill="white"/>
</svg>
