<svg width="80" height="80" viewBox="0 0 80 80" fill="none" xmlns="http://www.w3.org/2000/svg">
<g clip-path="url(#clip0_492_471)">
<path d="M33.3545 5.01214C33.2429 5.02722 33.1373 5.06039 33.0378 5.10864L0.702671 20.7122C0.687592 20.7183 0.672513 20.7273 0.657435 20.7364L0.627277 20.7484C0.600135 20.7665 0.576009 20.7876 0.54887 20.8057C0.461414 20.857 0.376969 20.9173 0.30459 20.9867C0.28348 21.0138 0.265385 21.044 0.247291 21.0711C0.180943 21.1525 0.123641 21.243 0.0814266 21.3395V21.3425C0.0301589 21.4692 0.00301866 21.6049 0 21.7436V58.8492V58.8461C0 59.2714 0.244279 59.6574 0.627278 59.8414L33.035 75.472C33.0561 75.478 33.0772 75.4871 33.0953 75.4931C33.1677 75.5233 33.2461 75.5474 33.3215 75.5625C33.3456 75.5655 33.3667 75.5685 33.3908 75.5685C33.43 75.5775 33.4753 75.5836 33.5175 75.5866C33.7165 75.5866 33.9126 75.5323 34.0845 75.4298L66.4072 59.8416C66.7902 59.6577 67.0345 59.2716 67.0345 58.8494V21.7439C67.0345 21.2825 66.751 20.8723 66.3198 20.7095L33.997 5.10899C33.798 5.01249 33.5718 4.97931 33.3516 5.01249L33.3545 5.01214ZM33.5173 7.33125L63.3943 21.7405L53.6983 26.4149L23.8244 12.0057L33.5173 7.33125ZM21.2852 13.2301L51.1652 27.6362L45.755 30.2449L15.8811 15.8387L21.2852 13.2301ZM13.3417 17.0631L43.2156 31.4692L33.5196 36.1437L3.64266 21.7437L13.3417 17.0631ZM2.20744 23.4957L32.4195 38.0678V72.7283L2.20744 58.1562V23.4957ZM64.8264 23.4957V58.1562L34.6236 72.7221V38.0647L44.6539 33.2275V42.962V42.959C44.6539 43.0254 44.6569 43.0887 44.666 43.152C44.6841 43.2576 44.7142 43.3571 44.7595 43.4536C44.8137 43.5622 44.8861 43.6647 44.9736 43.7522C44.9766 43.7552 44.9826 43.7612 44.9856 43.7642C45.0188 43.7974 45.058 43.8306 45.0942 43.8577C45.1063 43.8668 45.1183 43.8728 45.1274 43.8788C45.1636 43.906 45.2028 43.9271 45.242 43.9482C45.251 43.9542 45.2601 43.9603 45.2691 43.9663C45.5737 44.1171 45.9296 44.1231 46.2342 43.9783L54.163 40.1544V40.1514C54.169 40.1483 54.175 40.1453 54.181 40.1423C54.1931 40.1393 54.2022 40.1333 54.2142 40.1272C54.2504 40.1061 54.2866 40.085 54.3198 40.0609C54.3349 40.0518 54.3499 40.0398 54.365 40.0277C54.3741 40.0217 54.3831 40.0157 54.3891 40.0096C54.3952 40.0036 54.4012 40.0006 54.4072 39.9945C54.4102 39.9915 54.4133 39.9915 54.4163 39.9885C54.4253 39.9765 54.4374 39.9674 54.4495 39.9584C54.4525 39.9553 54.4525 39.9523 54.4555 39.9493C54.4675 39.9403 54.4766 39.9312 54.4856 39.9192C54.4887 39.9161 54.4947 39.9131 54.4977 39.9071C54.5068 39.9011 54.5158 39.892 54.5248 39.883C54.5429 39.8619 54.561 39.8407 54.5761 39.8196C54.5821 39.8106 54.5882 39.8046 54.5942 39.7985C54.6002 39.7895 54.6093 39.7774 54.6153 39.7684C54.6183 39.7623 54.6244 39.7563 54.6274 39.7533C54.6334 39.7412 54.6425 39.7292 54.6485 39.7171H54.6515C54.6515 39.7141 54.6515 39.7111 54.6545 39.7081C54.7691 39.512 54.8234 39.2858 54.8023 39.0566V28.3354L64.8264 23.4957ZM52.5912 29.3975V38.4534L46.8582 41.2189V32.1629L52.5912 29.3975ZM6.3718 46.2765C6.27529 46.2825 6.18181 46.3036 6.09133 46.3338C5.81087 46.4303 5.58469 46.6323 5.45501 46.8977C5.32835 47.1601 5.31025 47.4617 5.40676 47.7391C5.50326 48.0165 5.70532 48.2427 5.96769 48.3694L13.8085 52.1451C14.0708 52.2717 14.3754 52.2898 14.6498 52.1933C14.9273 52.0968 15.1535 51.8948 15.2801 51.6324C15.4098 51.37 15.4249 51.0654 15.3284 50.791C15.2349 50.5136 15.0328 50.2874 14.7675 50.1607L6.92667 46.382C6.75477 46.2976 6.56179 46.2614 6.3718 46.2765ZM6.51354 52.2265C6.3718 52.2175 6.22705 52.2386 6.09133 52.2868C5.81388 52.3803 5.58468 52.5824 5.455 52.8448C5.32834 53.1102 5.31025 53.4117 5.40675 53.6892C5.50326 53.9637 5.70531 54.1928 5.96768 54.3195L13.8085 58.0982C14.0708 58.2249 14.3754 58.243 14.6498 58.1465C14.9273 58.05 15.1535 57.8479 15.2801 57.5856C15.4098 57.3202 15.4249 57.0186 15.3284 56.7411C15.2349 56.4667 15.0328 56.2375 14.7674 56.1108L6.92666 52.3321C6.8 52.2718 6.6583 52.2356 6.51354 52.2265Z" fill="white"/>
</g>
<defs>
<clipPath id="clip0_492_471">
<rect width="80" height="80" fill="white"/>
</clipPath>
</defs>
</svg>
