<svg width="100" height="75" viewBox="0 0 100 75" fill="none" xmlns="http://www.w3.org/2000/svg">
<path fill-rule="evenodd" clip-rule="evenodd" d="M67.5621 74.4176H10.4532C9.80471 74.4176 9.28125 73.8903 9.28125 73.2457V16.1367C9.28125 15.4883 9.80469 14.9648 10.4532 14.9648H67.5621C68.2106 14.9648 68.734 15.4883 68.734 16.1367V73.2457C68.734 73.8903 68.2106 74.4176 67.5621 74.4176ZM11.6242 72.0738H66.3902V17.3078H11.6242V72.0738Z" fill="white"/>
<path fill-rule="evenodd" clip-rule="evenodd" d="M89.5315 74.4176H67.5625C66.9141 74.4176 66.3906 73.8903 66.3906 73.2457V16.1367C66.3906 15.4883 66.918 14.9648 67.5625 14.9648H89.5315C90.18 14.9648 90.7034 15.4883 90.7034 16.1367V73.2457C90.7034 73.8903 90.18 74.4176 89.5315 74.4176ZM68.7345 72.0738H88.3595V17.3078H68.7345V72.0738Z" fill="white"/>
<path fill-rule="evenodd" clip-rule="evenodd" d="M89.5312 58.3008H10.4532C9.80471 58.3008 9.28125 57.7735 9.28125 57.1289C9.28125 56.4844 9.80469 55.957 10.4532 55.957H89.5312C90.1796 55.957 90.703 56.4844 90.703 57.1289C90.703 57.7735 90.1796 58.3008 89.5312 58.3008Z" fill="white"/>
<path fill-rule="evenodd" clip-rule="evenodd" d="M89.5312 65.2657H10.4532C9.80471 65.2657 9.28125 64.7383 9.28125 64.0938C9.28125 63.4493 9.80469 62.9219 10.4532 62.9219H89.5312C90.1796 62.9219 90.703 63.4492 90.703 64.0938C90.703 64.7383 90.1796 65.2657 89.5312 65.2657Z" fill="white"/>
<path fill-rule="evenodd" clip-rule="evenodd" d="M38.4959 43.0274H35.6248C34.9763 43.0274 34.4529 42.5001 34.4529 41.8555C34.4529 41.2109 34.9763 40.6836 35.6248 40.6836H38.4959C39.1443 40.6836 39.6678 41.2109 39.6678 41.8555C39.6678 42.5001 39.1443 43.0274 38.4959 43.0274ZM30.3553 43.0274H19.7813C19.1328 43.0274 18.6094 42.5001 18.6094 41.8555C18.6094 41.2109 19.1328 40.6836 19.7813 40.6836H30.3553C31.0037 40.6836 31.5272 41.2109 31.5272 41.8555C31.5272 42.5001 31.0037 43.0274 30.3553 43.0274Z" fill="white"/>
<path fill-rule="evenodd" clip-rule="evenodd" d="M38.4964 47.8047H27.9224C27.2739 47.8047 26.7505 47.2774 26.7505 46.6328C26.7505 45.9883 27.2739 45.4609 27.9224 45.4609H38.4964C39.1448 45.4609 39.6683 45.9883 39.6683 46.6328C39.6683 47.2774 39.1448 47.8047 38.4964 47.8047ZM22.6524 47.8047H19.7813C19.1328 47.8047 18.6094 47.2774 18.6094 46.6328C18.6094 45.9883 19.1328 45.4609 19.7813 45.4609H22.6524C23.3008 45.4609 23.8243 45.9883 23.8243 46.6328C23.8243 47.2774 23.3008 47.8047 22.6524 47.8047Z" fill="white"/>
<path fill-rule="evenodd" clip-rule="evenodd" d="M42.1684 52.4337H16.1094C15.461 52.4337 14.9375 51.9063 14.9375 51.2618V37.2188C14.9375 36.5703 15.4609 36.0469 16.1094 36.0469H42.1684C42.8168 36.0469 43.3403 36.5703 43.3403 37.2188V51.2618C43.3403 51.9063 42.8169 52.4337 42.1684 52.4337ZM17.2854 50.0899H41.0004V38.3909H17.2854V50.0899Z" fill="white"/>
<path fill-rule="evenodd" clip-rule="evenodd" d="M48.9727 36.4337C48.832 36.4337 48.6875 36.4102 48.5547 36.3555C48.1016 36.1798 47.8047 35.7462 47.8047 35.2617V16.1367C47.8047 15.4883 48.3281 14.9648 48.9766 14.9648H61.8636C62.512 14.9648 63.0355 15.4883 63.0355 16.1367V35.2617C63.0355 35.7461 62.7386 36.1797 62.2894 36.3555C61.8402 36.5314 61.3285 36.4102 61.0003 36.0548L55.3714 29.922L49.8519 36.047C49.6253 36.297 49.305 36.4337 48.9808 36.4337L48.9727 36.4337ZM55.3555 27.0079C55.6836 27.0079 55.9961 27.1446 56.2187 27.3868L60.6835 32.2501V17.3051H50.1405V32.2071L54.4803 27.3907C54.6991 27.1446 55.0155 27.004 55.3436 27.004H55.3475L55.3555 27.0079Z" fill="white"/>
<path fill-rule="evenodd" clip-rule="evenodd" d="M67.5654 17.3087H10.4564C10.0502 17.3087 9.67518 17.0977 9.46034 16.754L0.175141 1.79297C-0.0475191 1.42969 -0.0592391 0.976556 0.147797 0.605466C0.354827 0.234376 0.745457 0.00390625 1.1712 0.00390625H58.2802C58.6864 0.00390625 59.0614 0.214847 59.2763 0.558597L68.5615 15.5236C68.7841 15.8869 68.7959 16.34 68.5888 16.7111C68.3818 17.0822 67.9912 17.3127 67.5654 17.3127V17.3087ZM11.1084 14.9649H65.4604L57.6284 2.34386H3.27643L11.1084 14.9649Z" fill="white"/>
<path fill-rule="evenodd" clip-rule="evenodd" d="M89.5344 17.3088H69.3274C68.9017 17.3088 68.511 17.0783 68.304 16.7072C68.097 16.3361 68.1087 15.8791 68.3314 15.5197L77.6166 0.554689C77.8314 0.210939 78.2064 0 78.6127 0H98.8197C99.2455 0 99.6361 0.23047 99.8431 0.60156C100.05 0.97265 100.038 1.42968 99.8157 1.78906L90.5305 16.7541C90.3157 17.0978 89.9407 17.3088 89.5344 17.3088ZM71.4364 14.9649H88.8814L96.7134 2.34395H79.2644L71.4324 14.9649H71.4364Z" fill="white"/>
</svg>
