<svg width="80" height="80" viewBox="0 0 80 80" fill="none" xmlns="http://www.w3.org/2000/svg">
<g clip-path="url(#clip0_490_361)">
<path d="M36.5758 19.7891C36.443 19.5234 36.1696 19.3516 35.8727 19.3516H32.8727C32.5758 19.3516 32.3024 19.5234 32.1696 19.7891L17.9746 48.9841C17.873 49.2028 17.873 49.4528 17.9746 49.6716L23.9434 61.7656C23.0762 61.9609 22.42 62.7421 22.42 63.6718V67.1952H21.1778C20.7481 67.1952 20.3966 67.5467 20.3966 67.9764V73.9686C20.3966 74.3983 20.7481 74.7499 21.1778 74.7499H47.5758C48.0055 74.7499 48.3571 74.3983 48.3571 73.9686V67.9686C48.3571 67.5389 48.0055 67.1874 47.5758 67.1874H46.3258V63.664C46.3258 62.7343 45.6696 61.9609 44.8024 61.7578L50.7712 49.6638C50.8806 49.445 50.8806 49.195 50.7712 48.9763L36.5758 19.7891ZM46.7868 68.7501V73.1876H21.9588V68.7501H46.7868ZM23.9818 67.1876V63.6642C23.9818 63.4454 24.1615 63.2735 24.3725 63.2735H44.3645C44.5832 63.2735 44.7551 63.4532 44.7551 63.6642V67.1876H23.9818ZM43.0838 61.711H25.6618L19.5446 49.32L33.3566 20.906H33.591V42.718C31.4348 43.093 29.7941 44.968 29.7941 47.2258C29.7941 49.7492 31.8488 51.8039 34.3722 51.8039C36.8956 51.8039 38.9503 49.7492 38.9503 47.2258C38.9503 44.968 37.3019 43.093 35.1534 42.718V20.906H35.38L49.192 49.32L43.0838 61.711ZM34.3729 44.211C36.037 44.211 37.3885 45.5626 37.3885 47.2266C37.3885 48.8907 36.0369 50.2422 34.3729 50.2422C32.7089 50.2422 31.3573 48.8906 31.3573 47.2266C31.3573 45.5704 32.7089 44.211 34.3729 44.211Z" fill="white"/>
<path d="M67.9691 6H61.3675C60.9378 6 60.5862 6.35156 60.5862 6.78125V9.29685H38.4532V6.78125C38.4532 6.35156 38.1016 6 37.672 6H31.0704C30.6407 6 30.2891 6.35156 30.2891 6.78125V9.29685H8.1641V6.78125C8.1641 6.35156 7.81254 6 7.38285 6H0.78125C0.35156 6 0 6.35156 0 6.78125V13.3829C0 13.8125 0.35156 14.1641 0.78125 14.1641H7.38285C7.81254 14.1641 8.1641 13.8125 8.1641 13.3829V10.8673H26.5231C20.2731 13.4454 15.6171 19 14.2651 25.7892C12.187 25.9767 10.5542 27.7112 10.5542 29.8362C10.5542 32.0862 12.3823 33.9142 14.6323 33.9142C16.8823 33.9142 18.7104 32.0862 18.7104 29.8362C18.7104 28.0081 17.4916 26.469 15.8276 25.9534C17.3432 18.6487 23.0151 12.9223 30.2966 11.3284V13.3909C30.2966 13.8205 30.6482 14.1721 31.0779 14.1721H37.6795C38.1091 14.1721 38.4607 13.8205 38.4607 13.3909V11.3284C45.7419 12.9222 51.4217 18.6565 52.9297 25.9534C51.2656 26.469 50.0469 28.0003 50.0469 29.8362C50.0469 32.0862 51.875 33.9142 54.125 33.9142C56.375 33.9142 58.2031 32.0862 58.2031 29.8362C58.2031 27.7112 56.5625 25.9845 54.4922 25.7892C53.1406 19.008 48.4766 13.4453 42.2342 10.8673H60.5932V13.3829C60.5932 13.8125 60.9448 14.1641 61.3744 14.1641H67.9682C68.3979 14.1641 68.7495 13.8125 68.7495 13.3829V6.78125C68.7495 6.35156 68.3987 6 67.9691 6ZM6.60205 12.6016H1.56295V7.5625H6.60205V12.6016ZM17.149 29.8286C17.149 31.2192 16.0162 32.3442 14.6334 32.3442C13.2506 32.3442 12.1178 31.2114 12.1178 29.8286C12.1178 28.4458 13.2506 27.313 14.6334 27.313C16.0162 27.313 17.149 28.438 17.149 29.8286ZM36.891 12.6016H31.8519V7.5625H36.891V12.6016ZM56.641 29.8286C56.641 31.2192 55.5082 32.3442 54.1254 32.3442C52.7426 32.3442 51.6099 31.2114 51.6099 29.8286C51.6099 28.4458 52.7426 27.313 54.1254 27.313C55.5082 27.313 56.641 28.438 56.641 29.8286ZM67.188 12.6016H62.149V7.5625H67.188V12.6016Z" fill="white"/>
</g>
<defs>
<clipPath id="clip0_490_361">
<rect width="80" height="80" fill="white"/>
</clipPath>
</defs>
</svg>
