<svg width="69" height="64" viewBox="0 0 69 64" fill="none" xmlns="http://www.w3.org/2000/svg">
<path d="M18.3681 48.1112C19.0606 47.4142 20.1945 47.4142 20.8869 48.1112C21.584 48.8083 21.584 49.9376 20.8869 50.6347L8.99005 62.5316C8.29762 63.224 7.16365 63.224 6.47125 62.5316L0.522814 56.5831C-0.174271 55.886 -0.174271 54.7567 0.522814 54.0597C1.21525 53.3626 2.34922 53.3626 3.04162 54.0597L7.73065 58.7441L18.3681 48.1112ZM67.2155 53.5345C68.2007 53.5345 69 54.3339 69 55.3191C69 56.3043 68.2007 57.1036 67.2155 57.1036H34.4991C33.5139 57.1036 32.7146 56.3043 32.7146 55.3191C32.7146 54.3339 33.5139 53.5345 34.4991 53.5345H67.2155ZM18.3681 24.317C19.0606 23.6199 20.1945 23.6199 20.8869 24.317C21.584 25.0141 21.584 26.1434 20.8869 26.8405L8.99005 38.7373C8.29762 39.4298 7.16365 39.4298 6.47125 38.7373L0.522814 32.7889C-0.174271 32.0918 -0.174271 30.9625 0.522814 30.2655C1.21525 29.5684 2.34922 29.5684 3.04162 30.2655L7.73065 34.9499L18.3681 24.317ZM67.2155 29.7403C68.2007 29.7403 69 30.5397 69 31.5249C69 32.5101 68.2007 33.3094 67.2155 33.3094H34.4991C33.5139 33.3094 32.7146 32.5101 32.7146 31.5249C32.7146 30.5397 33.5139 29.7403 34.4991 29.7403H67.2155ZM18.3681 0.522814C19.0606 -0.174271 20.1945 -0.174271 20.8869 0.522814C21.584 1.2199 21.584 2.34922 20.8869 3.04626L8.99005 14.9431C8.29762 15.6356 7.16365 15.6356 6.47125 14.9431L0.522814 8.99469C-0.174271 8.29761 -0.174271 7.16829 0.522814 6.47125C1.21525 5.77416 2.34922 5.77416 3.04162 6.47125L7.73065 11.1556L18.3681 0.522814ZM67.2155 5.94612C68.2007 5.94612 69 6.74545 69 7.73065C69 8.71585 68.2007 9.51518 67.2155 9.51518H34.4991C33.5139 9.51518 32.7146 8.71585 32.7146 7.73065C32.7146 6.74545 33.5139 5.94612 34.4991 5.94612H67.2155Z" fill="white"/>
</svg>
