<svg width="80" height="80" viewBox="0 0 80 80" fill="none" xmlns="http://www.w3.org/2000/svg">
<g clip-path="url(#clip0_490_369)">
<path d="M45.8829 32.6642C47.172 32.6642 48.2267 31.6095 48.2267 30.3204C48.2267 29.0313 47.172 27.9766 45.8829 27.9766C44.5938 27.9766 43.5391 29.0313 43.5391 30.3204C43.5391 31.6095 44.5938 32.6642 45.8829 32.6642ZM45.8829 29.5392C46.3126 29.5392 46.6641 29.8907 46.6641 30.3204C46.6641 30.7501 46.3126 31.1017 45.8829 31.1017C45.4532 31.1017 45.1016 30.7501 45.1016 30.3204C45.1016 29.8907 45.4532 29.5392 45.8829 29.5392Z" fill="white"/>
<path d="M53.086 32.6642C54.3751 32.6642 55.4298 31.6095 55.4298 30.3204C55.4298 29.0313 54.3751 27.9766 53.086 27.9766C51.7969 27.9766 50.7422 29.0313 50.7422 30.3204C50.7422 31.6095 51.7891 32.6642 53.086 32.6642ZM53.086 29.5392C53.5157 29.5392 53.8672 29.8907 53.8672 30.3204C53.8672 30.7501 53.5157 31.1017 53.086 31.1017C52.6563 31.1017 52.3047 30.7501 52.3047 30.3204C52.3047 29.8907 52.6563 29.5392 53.086 29.5392Z" fill="white"/>
<path d="M60.2813 32.6642C61.5704 32.6642 62.6251 31.6095 62.6251 30.3204C62.6251 29.0313 61.5704 27.9766 60.2813 27.9766C58.9922 27.9766 57.9375 29.0313 57.9375 30.3204C57.9375 31.6095 58.9922 32.6642 60.2813 32.6642ZM60.2813 29.5392C60.711 29.5392 61.0625 29.8907 61.0625 30.3204C61.0625 30.7501 60.711 31.1017 60.2813 31.1017C59.8516 31.1017 59.5 30.7501 59.5 30.3204C59.5 29.8907 59.8516 29.5392 60.2813 29.5392Z" fill="white"/>
<path d="M7.60161 27.9766C6.31251 27.9766 5.25781 29.0313 5.25781 30.3204C5.25781 31.6095 6.31251 32.6642 7.60161 32.6642C8.89071 32.6642 9.94541 31.6095 9.94541 30.3204C9.94541 29.0313 8.89851 27.9766 7.60161 27.9766ZM7.60161 31.1016C7.17192 31.1016 6.82036 30.75 6.82036 30.3203C6.82036 29.8906 7.17192 29.5391 7.60161 29.5391C8.0313 29.5391 8.38286 29.8906 8.38286 30.3203C8.38286 30.75 8.03911 31.1016 7.60161 31.1016Z" fill="white"/>
<path d="M14.8047 27.9766C13.5156 27.9766 12.4609 29.0313 12.4609 30.3204C12.4609 31.6095 13.5156 32.6642 14.8047 32.6642C16.0938 32.6642 17.1485 31.6095 17.1485 30.3204C17.1485 29.0313 16.0938 27.9766 14.8047 27.9766ZM14.8047 31.1016C14.375 31.1016 14.0235 30.75 14.0235 30.3203C14.0235 29.8906 14.375 29.5391 14.8047 29.5391C15.2344 29.5391 15.586 29.8906 15.586 30.3203C15.586 30.75 15.2344 31.1016 14.8047 31.1016Z" fill="white"/>
<path d="M58.6801 50.008C65.0004 45.4377 68.7501 38.149 68.7501 30.32C68.7501 16.906 57.8441 6 44.4301 6C38.3442 6 32.7821 8.25 28.5081 11.9531C25.969 10.7969 23.1487 10.1484 20.18 10.1484C9.055 10.1406 0 19.1953 0 30.3204C0 41.4455 9.0547 50.5004 20.18 50.5004C23.1566 50.5004 25.9847 49.8442 28.5316 48.6801C32.1878 51.852 36.7894 53.9613 41.8676 54.4926L42.4535 58.0238C42.5004 58.3129 42.7035 58.5472 42.9848 58.641C43.266 58.7347 43.5707 58.6566 43.7738 58.4457L46.0005 56.2191L55.5238 65.7425C55.6723 65.8909 55.8676 65.969 56.0785 65.969C56.2895 65.969 56.4848 65.8831 56.6332 65.7425L64.9691 57.4066C65.2738 57.1019 65.2738 56.6097 64.9691 56.305L58.6801 50.008ZM28.7741 13.813C29.86 14.3833 30.8835 15.0552 31.8288 15.813L24.3757 19.5474C25.5319 17.4068 27.0241 15.4771 28.7741 13.813ZM23.5085 39.251C23.1413 38.4072 22.8288 37.5401 22.5632 36.6494L38.7042 28.5791C38.7589 29.1494 38.7901 29.7275 38.7901 30.3135C38.7901 30.7588 38.7667 31.1963 38.7354 31.6338L23.5085 39.251ZM38.5165 33.501C38.3056 34.7354 37.9696 35.9307 37.5165 37.0791L25.5865 43.04C25.0709 42.2822 24.5943 41.4853 24.1724 40.665L38.5165 33.501ZM22.1805 35.1026C21.9774 34.1729 21.8289 33.2198 21.7508 32.251L37.7668 24.2354C38.0715 25.1104 38.3137 26.0245 38.4856 26.9542L22.1805 35.1026ZM21.6649 30.5401C21.6649 30.4698 21.6571 30.3917 21.6571 30.3214C21.6571 29.3214 21.7274 28.337 21.8524 27.3683L35.8834 20.3526C36.3756 21.1261 36.8131 21.9308 37.1803 22.7746L21.6649 30.5401ZM22.1883 25.4542C22.4617 24.2042 22.8367 22.9933 23.3055 21.8292L33.0867 16.9308C33.7664 17.5871 34.3992 18.298 34.9773 19.0558L22.1883 25.4542ZM20.1805 48.9382C9.91451 48.9382 1.56351 40.5866 1.56351 30.3212C1.56351 20.0552 9.91511 11.7042 20.1805 11.7042C22.6883 11.7042 25.0789 12.2042 27.2586 13.1026C22.8367 17.5088 20.1024 23.5946 20.1024 30.3136C20.1024 36.9777 22.8524 43.0866 27.2899 47.5166C25.0946 48.4307 22.6961 48.9382 20.1805 48.9382ZM26.5243 44.321L36.4384 39.3601C34.6728 42.5242 32.0087 45.1257 28.79 46.8054C27.9775 46.0398 27.2196 45.2038 26.5243 44.321ZM30.0399 47.9148C36.1883 44.4539 40.3599 37.8678 40.3599 30.3208C40.3599 22.7661 36.188 16.1728 30.0239 12.7118C33.9536 9.493 38.9692 7.5556 44.4379 7.5556C56.9849 7.5556 67.1959 17.7666 67.1959 30.3136C67.1959 37.7277 63.6021 44.6186 57.5709 48.8836L55.4615 46.7742L57.6881 44.5476C57.8912 44.3445 57.9694 44.032 57.8834 43.7585C57.7975 43.4773 57.5553 43.2742 57.2662 43.2273L40.5942 40.4461C40.3442 40.3992 40.0942 40.4852 39.9145 40.6648C39.7348 40.8445 39.6567 41.0945 39.6958 41.3445L41.6177 52.8915C37.2427 52.3525 33.2663 50.5711 30.0399 47.9148ZM56.0789 64.0868L46.5633 54.5634C46.4071 54.4072 46.2117 54.3368 46.0086 54.3368C45.8055 54.3368 45.6102 54.415 45.4539 54.5634L43.7508 56.2665L41.3992 42.1645L55.5012 44.5161L53.7981 46.2192C53.4934 46.5239 53.4934 47.0161 53.7981 47.3208L63.3215 56.8442L56.0789 64.0868Z" fill="white"/>
</g>
<defs>
<clipPath id="clip0_490_369">
<rect width="80" height="80" fill="white"/>
</clipPath>
</defs>
</svg>
