<svg width="75" height="78" viewBox="0 0 75 78" fill="none" xmlns="http://www.w3.org/2000/svg">
<path d="M71.1273 41.33H69.3213V35.6597C69.3213 34.6807 68.5426 33.8649 67.43 33.6719C57.2947 31.9438 47.2267 33.9983 37.4957 39.7686C27.7648 34.002 17.6968 31.9438 7.56146 33.6719C6.44891 33.8611 5.67015 34.6769 5.67015 35.6597V41.33H3.86418C1.73182 41.33 0 43.0618 0 45.1941V56.4488C0 58.5812 1.73182 60.313 3.86418 60.313H5.67015V69.1761C5.67015 69.7435 5.952 70.2442 6.46746 70.5854C6.94214 70.9006 7.50207 71.0155 8.09172 70.9191C17.9261 69.3208 27.7131 71.3975 37.1811 77.0937C37.2775 77.153 37.3887 77.1827 37.5 77.1827C37.6038 77.1827 37.7114 77.1567 37.8041 77.1011C37.8078 77.0974 37.8115 77.0937 37.8152 77.0899L37.8189 77.0937C47.2866 71.4012 57.0729 69.3245 66.9083 70.9191C67.4979 71.0155 68.0579 70.9006 68.5325 70.5854C69.048 70.2442 69.3298 69.7435 69.3298 69.1761V60.313H71.1358C73.2682 60.313 75 58.5812 75 56.4488L74.9926 45.1941C74.9926 43.0618 73.2571 41.33 71.1284 41.33H71.1273ZM1.22686 56.4495V45.1948C1.22686 43.7448 2.40615 42.5655 3.85611 42.5655H10.8094C11.9034 42.5655 12.393 43.3703 12.393 44.1676C12.393 44.9649 11.9034 45.7696 10.8094 45.7696H6.0255C5.68431 45.7696 5.40989 46.0441 5.40989 46.3852C5.40989 46.7264 5.68431 47.0008 6.0255 47.0008H10.8094C11.9034 47.0008 12.393 47.8056 12.393 48.6029C12.393 49.0257 12.2483 49.4336 11.9961 49.7191C11.7106 50.0418 11.3138 50.205 10.8057 50.205H6.02182C5.68065 50.205 5.40622 50.4794 5.40622 50.8206C5.40622 51.1617 5.68064 51.4362 6.02182 51.4362H10.8057C11.8997 51.4362 12.3893 52.2409 12.3893 53.0382C12.3893 53.8355 11.8998 54.6403 10.8057 54.6403H6.02182C5.68065 54.6403 5.40622 54.9147 5.40622 55.2559C5.40622 55.597 5.68064 55.8715 6.02182 55.8715H10.8057C11.8997 55.8715 12.3893 56.6762 12.3893 57.4735C12.3893 58.2708 11.8998 59.0756 10.8057 59.0756H3.85244C2.40618 59.0793 1.22686 57.8994 1.22686 56.4495ZM36.8763 75.4851C27.442 70.0522 17.6964 68.109 7.88757 69.6999C7.60944 69.7444 7.35727 69.6962 7.14588 69.5553C6.90113 69.3921 6.90113 69.2326 6.90113 69.1733V60.3102H10.8135C12.664 60.3102 13.632 58.8824 13.632 57.4732C13.632 56.6388 13.2945 55.8007 12.6344 55.2519C12.7494 55.1555 12.8458 55.059 12.9274 54.9663C13.3835 54.4508 13.632 53.7648 13.632 53.0342C13.632 52.1998 13.2945 51.3617 12.6344 50.8166C13.2945 50.2714 13.632 49.4297 13.632 48.599C13.632 47.7646 13.2945 46.9265 12.6344 46.3814C13.2945 45.8362 13.632 44.9944 13.632 44.1637C13.632 42.7545 12.6641 41.3268 10.8135 41.3268H6.90111V35.6565C6.90111 35.2894 7.25712 34.9742 7.76518 34.8852C17.6072 33.2053 27.4017 35.2078 36.8764 40.8261L36.8763 75.4851ZM68.0865 69.1771C68.0865 69.2364 68.0865 69.3959 67.838 69.559C67.6267 69.7 67.3782 69.7482 67.0964 69.7037C57.2876 68.109 47.5414 70.0671 38.1076 75.5V40.8369C47.5864 35.2149 57.3768 33.2124 67.2188 34.8886C67.7269 34.9739 68.0829 35.2928 68.0829 35.66V41.3302H64.1705C62.32 41.3302 61.352 42.758 61.352 44.1672C61.352 45.0016 61.6895 45.8397 62.3496 46.3885C62.2347 46.4812 62.1382 46.5776 62.0567 46.6741C61.6005 47.1895 61.352 47.8756 61.352 48.6062C61.352 49.4406 61.6895 50.2787 62.3496 50.8238C61.6895 51.3689 61.352 52.2107 61.352 53.0414C61.352 53.8758 61.6895 54.7139 62.3496 55.259C61.6895 55.8042 61.352 56.6459 61.352 57.4766C61.352 58.8859 62.3199 60.3136 64.1705 60.3136H68.0829V69.1767L68.0865 69.1771ZM73.7568 56.4499C73.7568 57.8999 72.5775 59.0792 71.1275 59.0792H64.1742C63.0803 59.0792 62.5907 58.2745 62.5907 57.4772C62.5907 56.6798 63.0802 55.8751 64.1742 55.8751H68.9581C69.2993 55.8751 69.5737 55.6007 69.5737 55.2595C69.5737 54.9183 69.2993 54.6439 68.9581 54.6439H64.1742C63.0803 54.6439 62.5907 53.8392 62.5907 53.0419C62.5907 52.6191 62.7353 52.2112 62.9875 51.9256C63.273 51.603 63.6698 51.4398 64.1779 51.4398H68.9618C69.303 51.4398 69.5774 51.1654 69.5774 50.8242C69.5774 50.483 69.303 50.2086 68.9618 50.2086H64.1779C63.0839 50.2086 62.5943 49.4038 62.5943 48.6065C62.5943 47.8092 63.0839 47.0045 64.1779 47.0045H68.9618C69.303 47.0045 69.5774 46.7301 69.5774 46.3889C69.5774 46.0477 69.303 45.7733 68.9618 45.7733H64.1779C63.0839 45.7733 62.5943 44.9686 62.5943 44.1712C62.5943 43.3739 63.0839 42.5692 64.1779 42.5692H71.1312C72.5811 42.5692 73.7604 43.7485 73.7604 45.1985L73.7568 56.4499ZM37.4921 31.3071C49.6553 31.3071 61.0078 25.4366 67.115 15.9873C67.2485 15.7833 67.2485 15.52 67.115 15.316C61.0072 5.86695 49.6553 0 37.4921 0C25.3289 0 13.9765 5.87046 7.86925 15.3198C7.73575 15.5238 7.73575 15.7871 7.86925 15.9911C13.9771 25.4364 25.3289 31.3071 37.4921 31.3071ZM37.4921 1.23135C49.0962 1.23135 59.9246 6.7458 65.8581 15.6531C59.9246 24.557 49.0962 30.0748 37.4921 30.0748C25.8881 30.0748 15.0597 24.5604 9.1262 15.6531C15.0597 6.74913 25.8881 1.23135 37.4921 1.23135ZM37.4921 29.809C45.2984 29.809 51.6471 23.4601 51.6471 15.654C51.6471 7.84792 45.2983 1.49907 37.4921 1.49907C29.686 1.49907 23.341 7.84792 23.341 15.654C23.341 23.4601 29.6861 29.809 37.4921 29.809ZM33.4574 23.4193C33.4574 21.1942 35.267 19.3845 37.4921 19.3845C39.7173 19.3845 41.5269 21.1942 41.5269 23.4193C41.5269 25.6444 39.7173 27.4541 37.4921 27.4541C35.267 27.4541 33.4574 25.6444 33.4574 23.4193ZM37.4921 2.73371C44.616 2.73371 50.412 8.53003 50.412 15.6536C50.412 22.3065 45.3574 27.7949 38.8858 28.4956C41.1146 27.8837 42.7611 25.8403 42.7611 23.4187C42.7611 20.5112 40.3988 18.1489 37.4914 18.1489C34.584 18.1489 32.2217 20.5112 32.2217 23.4187C32.2217 25.8403 33.8682 27.8799 36.097 28.4956C29.6294 27.7984 24.5708 22.3062 24.5708 15.6536C24.5708 8.52965 30.3671 2.73371 37.4906 2.73371H37.4921Z" fill="white"/>
</svg>
