<svg width="86" height="86" viewBox="0 0 86 86" fill="none" xmlns="http://www.w3.org/2000/svg">
<path d="M41.8282 80.6801V86H44.1718V80.6801C64.0362 80.0708 80.0705 64.0314 80.6801 44.1718H86V41.8282H80.6801C80.0708 21.9638 64.0314 5.92946 44.1718 5.3199V0H41.8282V5.3199C21.9638 5.92923 5.92945 21.9686 5.3199 41.8282H0V44.1718H5.3199C5.92923 64.0362 21.9686 80.0705 41.8282 80.6801ZM7.66332 44.1718H16.4095C17.0095 57.9191 28.0806 68.9954 41.8284 69.5906V78.3368C23.2574 77.7275 8.27287 62.7427 7.66332 44.1718ZM42.9993 18.7206C56.3855 18.7206 67.2782 29.6134 67.2782 42.9995C67.2782 56.3855 56.3854 67.2784 42.9993 67.2784C29.6133 67.2784 18.7204 56.3855 18.7204 42.9995C18.7204 29.6134 29.6133 18.7206 42.9993 18.7206ZM44.1711 78.3367V69.5904C57.9184 68.9905 68.9948 57.9194 69.5899 44.1716H78.3362C77.7268 62.7426 62.7421 77.7319 44.1711 78.3367ZM78.336 41.8283H69.5898C68.9899 28.081 57.9188 17.0047 44.171 16.4096V7.66332C62.7419 8.27264 77.7265 23.2574 78.336 41.8283ZM41.8277 7.66344V16.4097C28.0804 17.0096 17.0041 28.0807 16.4089 41.8285H7.66267C8.27199 23.2575 23.2568 8.26819 41.8277 7.66344Z" fill="#FFFDF6"/>
</svg>
