<svg width="80" height="80" viewBox="0 0 80 80" fill="none" xmlns="http://www.w3.org/2000/svg">
<g clip-path="url(#clip0_492_500)">
<path d="M47.4415 76.4618L38.3417 67.3707C37.8669 66.8872 37.1762 66.7404 36.5632 66.8958L33.5415 63.8568C36.0366 61.0509 37.4179 57.4679 37.4179 53.6778C37.4179 51.2604 36.8568 48.938 35.8121 46.84L43.6773 41.7548C43.7118 41.7376 43.7205 41.703 43.7464 41.6858C43.8068 41.6512 43.85 41.6081 43.8931 41.5649C43.9277 41.5217 43.9622 41.4699 43.9881 41.4181C44.0226 41.3663 44.0485 41.3145 44.0572 41.2627C44.0831 41.2023 44.1003 41.1418 44.1003 41.0814C44.1003 41.0469 44.109 41.021 44.109 40.9864V15.5778C44.109 15.4656 44.0831 15.362 44.0485 15.2584C44.0399 15.2411 44.0313 15.2152 44.014 15.1979C43.9708 15.103 43.919 15.0166 43.85 14.9476C43.8413 14.9303 43.8241 14.9217 43.8068 14.913C43.7809 14.8785 43.7377 14.8439 43.6859 14.8094L22.5596 1.14245C22.2487 0.952515 21.8689 0.952515 21.5581 1.14245L0.431679 14.8094C0.379877 14.8439 0.33671 14.8785 0.302176 14.913C0.284909 14.9217 0.276276 14.9303 0.267642 14.9476C0.18994 15.0253 0.138137 15.1116 0.0863357 15.2066C0.0863357 15.2066 0.0777034 15.2411 0.0690698 15.267C0.0345355 15.362 0 15.4742 0 15.5778V40.9778C0 41.0123 0.017268 41.0382 0.017268 41.0728C0.0259016 41.1418 0.0345347 41.1936 0.0518019 41.2541C0.0777026 41.3145 0.0949689 41.3663 0.12087 41.4181C0.14677 41.4699 0.181306 41.5217 0.21584 41.5649C0.259008 41.6081 0.302176 41.6512 0.353978 41.6944C0.379879 41.7117 0.388511 41.7462 0.423046 41.7635L8.27961 46.84C7.52848 48.3595 7.02774 49.9999 6.8119 51.718C6.19028 56.4837 7.79612 61.1631 11.1891 64.5561C14.09 67.4656 17.9492 69.0542 22.0502 69.0542C25.8403 69.0542 29.4232 67.6728 32.2378 65.1691L35.2682 68.2081C35.1041 68.8211 35.2595 69.4945 35.7344 69.9866L44.8342 79.0864C45.1968 79.4404 45.6716 79.6217 46.1379 79.6217C46.6041 79.6217 47.0789 79.4404 47.4329 79.0864C48.1668 78.3526 48.1668 77.1784 47.4415 76.4618ZM10.7661 46.2443C11.2668 45.5018 11.8366 44.7766 12.4842 44.1291C14.8239 41.7894 17.8715 40.4253 21.135 40.2094V52.9612L10.7661 46.2443ZM22.974 40.2008C26.2461 40.4166 29.2765 41.7894 31.6162 44.1204C32.2723 44.7766 32.8594 45.5018 33.3602 46.2443L22.974 52.9526V40.2008ZM32.9198 42.8168C30.2434 40.1317 26.7296 38.5777 22.974 38.3618V29.7455L42.2614 17.2786V40.4857L34.8969 45.2428C34.3271 44.3794 33.6623 43.5592 32.9198 42.8168ZM22.0588 3.02457L41.4844 15.5864L22.0588 28.1569L2.62461 15.5778L22.0588 3.02457ZM1.84759 40.4857V17.2786L21.135 29.7455V38.3532C17.3708 38.5777 13.8655 40.1317 11.1891 42.8168C10.438 43.5592 9.78185 44.3794 9.22067 45.2428L1.84759 40.4857ZM22.0502 67.2066C18.4327 67.2066 15.0311 65.7994 12.4842 63.2524C9.50558 60.2652 8.0983 56.147 8.64221 51.9597C8.82352 50.5179 9.2293 49.1365 9.85092 47.8501L21.5581 55.4218C21.584 55.4391 21.6271 55.4477 21.653 55.4563C21.6876 55.4822 21.7135 55.4995 21.7394 55.5081C21.8516 55.5427 21.9466 55.5686 22.0674 55.5686C22.171 55.5686 22.266 55.5427 22.3782 55.5081C22.4041 55.4995 22.43 55.4822 22.4646 55.4563C22.4905 55.4477 22.525 55.4391 22.5596 55.4218L34.2494 47.8588C35.1128 49.6632 35.579 51.6403 35.579 53.6864C35.579 57.2953 34.1717 60.6969 31.6162 63.2524C29.0606 65.7994 25.6676 67.2066 22.0502 67.2066Z" fill="white"/>
</g>
<defs>
<clipPath id="clip0_492_500">
<rect width="80" height="80" fill="white"/>
</clipPath>
</defs>
</svg>
