<svg width="80" height="80" viewBox="0 0 80 80" fill="none" xmlns="http://www.w3.org/2000/svg">
<g clip-path="url(#clip0_490_314)">
<path d="M15.0897 39.6152C15.0354 42.0605 15.5462 47.7336 18.0241 50.8635" stroke="white" stroke-width="1.23082" stroke-linecap="round" stroke-linejoin="round"/>
<path d="M20.7886 54.2855L21.9297 55.5897M24.864 57.5458C33.0147 63.4143 55.1845 60.6431 55.1845 39.9404M70.9968 39.9404V47.113H63.9872C63.4982 49.9385 62.8461 53.3075 60.4009 55.5897C62.0963 57.1546 64.3676 59.2846 65.2913 60.154L55.8365 69.9348L50.9461 65.0444C49.5333 65.9138 45.7949 67.8157 42.1434 68.4677C42.1434 71.2063 42.1434 74.2819 42.1434 75.4773H28.9393V68.4677C26.8201 68.3047 22.1254 67.3918 20.2996 65.0444C17.561 67.7831 16.0069 69.4458 15.5722 69.9348L6.60648 60.8061L11.0078 55.9157C9.81241 54.0139 7.38894 49.6234 7.25853 47.276C4.38949 47.276 1.28137 47.276 0.0859375 47.276V39.7773" stroke="white" stroke-width="1.23082" stroke-linecap="round" stroke-linejoin="round"/>
<path d="M15.0038 40.8613C14.9494 38.416 15.4602 32.743 17.9381 29.613" stroke="white" stroke-width="1.23082" stroke-linecap="round" stroke-linejoin="round"/>
<path d="M20.7027 26.191L21.8438 24.8869M24.778 22.9308C32.9287 17.0623 55.0985 19.8335 55.0985 40.5362M70.9108 40.5362V33.3636H63.9013C63.4122 30.538 62.7602 27.1691 60.315 24.8869C62.0103 23.322 64.2816 21.1919 65.2054 20.3225L55.7506 10.5417L50.8602 15.4321C49.4474 14.5627 45.709 12.6609 42.0575 12.0088C42.0575 9.27022 42.0575 6.1947 42.0575 4.99927H28.8534V12.0088C26.7342 12.1719 22.0394 13.0847 20.2137 15.4321C17.475 12.6935 15.921 11.0308 15.4863 10.5417L6.52054 19.6705L10.9219 24.5609C9.72647 26.4627 7.303 30.8532 7.17259 33.2006C4.30355 33.2006 1.19543 33.2006 0 33.2006V40.6992" stroke="white" stroke-width="1.23082" stroke-linecap="round" stroke-linejoin="round"/>
</g>
<defs>
<clipPath id="clip0_490_314">
<rect width="80" height="80" fill="white"/>
</clipPath>
</defs>
</svg>
