<svg width="80" height="80" viewBox="0 0 80 80" fill="none" xmlns="http://www.w3.org/2000/svg">
<g clip-path="url(#clip0_490_245)">
<path fill-rule="evenodd" clip-rule="evenodd" d="M40.3015 6.41041L80 20.8452L61.6994 27.5017L80 34.1582L61.6994 40.8147L80 47.4712L43.4124 60.7778C42.2644 61.1967 41.1265 61.4012 39.9983 61.4012C38.8701 61.4012 37.7322 61.1967 36.5843 60.7778L0 47.4678L18.3006 40.8113L0 34.1548L18.3006 27.4983L0 20.8484C13.3328 16.0028 26.6655 11.1509 39.9983 6.30469L40.3015 6.41041ZM59.0732 41.7711L43.4115 47.4677C42.2636 47.8866 41.1256 48.0912 39.9975 48.0912C38.8693 48.0912 37.7313 47.8866 36.5834 47.4677L20.9217 41.7711L5.2338 47.4776L37.1973 59.1055C38.1407 59.4518 39.0742 59.62 39.9978 59.62C40.9214 59.62 41.8549 59.4518 42.7983 59.1055L74.7618 47.4776L59.0732 41.7711ZM59.0732 28.4544L43.4115 34.151C42.2636 34.5699 41.1256 34.7744 39.9975 34.7744C38.8693 34.7744 37.7313 34.56 36.5834 34.151L20.9217 28.4544L5.2338 34.1609L37.1973 45.7887C38.1407 46.1351 39.0742 46.3033 39.9978 46.3033C40.9214 46.3033 41.8549 46.1351 42.7983 45.7887L74.7618 34.1609L59.0732 28.4544ZM58.3805 14.8911L39.9972 8.20813L5.23354 20.8485L37.1971 32.4763C38.1405 32.8227 39.074 32.9909 39.9975 32.9909C40.9211 32.9909 41.8546 32.8227 42.798 32.4763L74.7615 20.8485L58.3812 14.8945L58.3805 14.8911Z" fill="white"/>
</g>
<defs>
<clipPath id="clip0_490_245">
<rect width="80" height="80" fill="white"/>
</clipPath>
</defs>
</svg>
